<svg id="background" xmlns="http://www.w3.org/2000/svg" xmlns:xlink="http://www.w3.org/1999/xlink" viewBox="0 0 1910.3 1351.62"><defs><style>.cls-1{fill:url(#linear-gradient);}.cls-2{fill:url(#linear-gradient-2);}.cls-3{fill:url(#linear-gradient-3);}.cls-4{fill:url(#linear-gradient-4);}.cls-5{fill:url(#linear-gradient-5);}.cls-6{fill:url(#linear-gradient-6);}</style><linearGradient id="linear-gradient" x1="946.56" y1="568.49" x2="955.17" y2="-550.94" gradientUnits="userSpaceOnUse"><stop offset="0.02" stop-color="#6ac1eb"/><stop offset="1" stop-color="#f7f7fb"/></linearGradient><linearGradient id="linear-gradient-2" x1="954.48" y1="-3811.99" x2="954.48" y2="327.17" gradientUnits="userSpaceOnUse"><stop offset="0" stop-color="#fff"/><stop offset="0.4" stop-color="#fdfeff"/><stop offset="0.55" stop-color="#f6fafd"/><stop offset="0.66" stop-color="#eaf4fb"/><stop offset="0.74" stop-color="#d9ebf7"/><stop offset="0.82" stop-color="#c3dff3"/><stop offset="0.88" stop-color="#a8d1ed"/><stop offset="0.94" stop-color="#88c0e6"/><stop offset="1" stop-color="#63addf"/><stop offset="1" stop-color="#60abde"/></linearGradient><linearGradient id="linear-gradient-3" x1="954.18" y1="-1972.3" x2="954.18" y2="-121.39" xlink:href="#linear-gradient-2"/><linearGradient id="linear-gradient-4" x1="955.43" y1="1470.96" x2="955.43" y2="-411.35" gradientUnits="userSpaceOnUse"><stop offset="0" stop-color="#7aabc5"/><stop offset="0.06" stop-color="#81b0c9"/><stop offset="0.49" stop-color="#b1d3e5"/><stop offset="0.81" stop-color="#cee9f6"/><stop offset="1" stop-color="#d9f1fc"/></linearGradient><linearGradient id="linear-gradient-5" x1="955.43" y1="1652.07" x2="955.43" y2="56.24" xlink:href="#linear-gradient-4"/><linearGradient id="linear-gradient-6" x1="955.76" y1="1681.7" x2="955.76" y2="1163.43" gradientUnits="userSpaceOnUse"><stop offset="0" stop-color="#a7b7d0"/><stop offset="1" stop-color="#e3ecf8"/></linearGradient></defs><rect class="cls-1" x="1.22" y="-898.72" width="1905.92" height="952.96"/><path class="cls-2" d="M1850.33-1720c.09-.43.18-.85.26-1.27s.24-.84.35-1.25.29-.82.43-1.22l.51-1.2c.2-.39.4-.78.59-1.17l.68-1.15.75-1.13.83-1.09.91-1.08,1-1,1.07-1,1.15-1,1.24-1,1.31-1,2.76-1.83,2.88-1.73,3-1.62,3.11-1.53,3.22-1.42,3.34-1.31,3.45-1.22,3.57-1.11,7.06-1.92,6.7-1.49,6.34-1.06,1.31-.14v-37l-.42-.11-2.26-.69-2.28-.8-2.28-.92-9.24-4.23-9.39-4.84-5.54-2.87-5.55-2.62-5.59-2.38-5.6-2.12-2.81-.91-2.82-.72-2.81-.54-2.82-.35-2.81-.17-2.82,0-2.82.2-2.82.39c-.2.45-.4.9-.61,1.35s-.39,1-.59,1.46c-.39,1.08-.77,2.16-1.15,3.24-.37,1.23-.73,2.45-1.09,3.68l-1,4.13q-.83,4-1.67,8.09l-.57,3.6c-.14,1.09-.27,2.19-.41,3.29l.75.75,13.1.73,2.73.26,2.76.37,2.81.49,2.83.6,9.85,2.62,9.57,3-5,2.5-4.9,2.68-9.5,5.75-4,2.78-3.73,2.88-3.45,3-3.19,3.07L1838-1749l-2.63,3.28-2.37,3.37-1.08,1.73-1,1.75-1.83,3.54c-.52,1.19-1,2.38-1.58,3.58l-1.34,3.6c-.36,1.22-.73,2.43-1.09,3.64l-.84,3.68-.6,3.71-.36,3.74c0,1.25-.07,2.51-.1,3.77l.15,2.78.27,2.7c.13.87.27,1.73.4,2.6s.35,1.69.53,2.53.44,1.62.65,2.43.53,1.57.79,2.35l.91,2.26,1,2.18.68,1.21-4.86,1q1.76,13.75,3.49,27.51,1.24,15.83,2.48,31.65l-9.29,2-8.67,1.37-7.59.79-3.23.2-2.83.06-3.24-.09-3-.27-1.42-.21-1.36-.24-1.32-.29-1.25-.34-1.2-.38-1.15-.42-1.09-.47-1-.51-1-.56-.92-.6-.87-.64-.82-.69-.76-.73-.71-.78-.66-.82-.61-.85-.56-.91-.51-.94-.47-1c-.13-.34-.27-.68-.41-1l-.36-1.07c-.11-.37-.21-.74-.32-1.11s-.17-.77-.26-1.16-.15-.8-.22-1.2-.11-.82-.16-1.24l-.12-1.28c0-.44,0-.88-.07-1.32s0-.92,0-1.37,0-1.16,0-1.74.07-1.19.11-1.79c.13-1.26.27-2.53.41-3.79s.45-2.69.68-4,.63-2.87.94-4.3q1.29-4.63,2.57-9.28l3.43-10.17-12-3.89c.39-1.49.79-3,1.19-4.46l2.7-13.19,4.62-24,4.83-26.12q1.65-9.8,3.32-19.6l-28-5.07q-2.37,16.1-4.76,32.19l-5.88,33.83q-3,14.13-5.89,28.28l-4.53-.23-4.35-.42-4.16-.61-4-.81-2.17-.59-2-.66-1.88-.71-1.74-.78-1.58-.84-.74-.44-.7-.46c-.23-.15-.45-.31-.67-.47l-.63-.49-.59-.5-.56-.52-.52-.53-.48-.55-.45-.57-.41-.57-.38-.6c-.11-.2-.22-.41-.34-.61l-.3-.63c-.09-.21-.17-.42-.26-.64s-.16-.43-.23-.65-.13-.45-.19-.68-.11-.45-.16-.68l-.12-.7c0-.24-.05-.48-.08-.72s0-.49,0-.73,0-.33,0-.49v-.26l0-.77c0-.52.09-1,.13-1.57s.16-1.08.23-1.62l.33-1.68.42-1.73.51-1.79.61-1.84,1.5-3.84,1.88-4.07,2.25-4.28,2.63-4.49,3-4.72-21.89-13.44q-3.86,5.91-7.73,11.81l-3.3,5.71-2.92,5.58-2.54,5.42-2.15,5.27-1.75,5.1-.77,2.78-1.23-.53-1.68-.61-1.73-.51-1.78-.41-1.82-.32-1.87-.23-1.92-.13-2,0-2,.06-2.06.15-.91.13-.92.18-.93.22-.93.26-.93.31-1,.36-.95.4-1,.45-2,1-2,1.16-2,1.32-2.07,1.47q.57-4.68,1.13-9.34l.69-9.69.42-19.77-30,1.68q.26,13.06.52,26.12l-.33,19.44c-.18,2.53-.37,5.06-.55,7.59-.13,1.14-.27,2.29-.4,3.44l-.5,3.2c-.19,1-.38,2-.58,3s-.44,1.82-.67,2.73l-.75,2.5c-.28.75-.56,1.5-.85,2.26l-6.32-.89-2.6-.47c.2-3.06.39-6.11.59-9.16l.24-8.65-.79-.79-7.58.77-7.3,1.11-7,1.4-6.8,1.67-4.84-3.29-1.11-.84-1-.86-1-.86-.94-.88-1.63-1.65c-.24-.28-.49-.55-.74-.82s-.45-.55-.68-.82l-.63-.82-.58-.81c-.17-.27-.34-.54-.52-.81l-.47-.81-.4-.8-.18-.39-.1-.27,0-.12-.09-.27-.05-.12a2.58,2.58,0,0,0-.08-.26l0-.12c0-.13-.07-.25-.1-.38s0-.17-.05-.25l0-.12a1.87,1.87,0,0,0,0-.25.5.5,0,0,0,0-.12l0-.37c0-.08,0-.16,0-.24v-.12c0-.12,0-.23,0-.35s0-.2,0-.3l0-.35.06-.35c0-.13,0-.26.08-.39s.05-.16.08-.24l0-.11c0-.11.09-.22.13-.33l.11-.23,0-.1.12-.23.06-.1.13-.21.06-.1.22-.3.17-.21.07-.09.27-.29.28-.28.31-.27.33-.27.24-.17.11-.08.37-.25.39-.24.42-.23.44-.23.93-.42,1-.41,1.07-.38,1.12-.36,2.46-.65,2.72-.55,2.39-.41,2.54-.34,5.53-.49,12.54-.35.09-.64c0-.18,0-.35,0-.53l0-.23c0-.62.08-1.24.13-1.85,0-1.68.07-3.36.11-5l-.24-11.91-.33-5.13c-.07-.64-.13-1.28-.2-1.92l-.24-1.5-2.16-.42-2.27-.35-4.86-.47-2.55-.1H1580l-2.6.12-2.62.23-2.54.36-2.47.46-2.4.54-2.34.64-2.27.72-2.2.81-2.14.9-2.07,1-2,1.06c-.64.37-1.28.74-1.91,1.12l-1.84,1.17-1.74,1.23-1.67,1.28-1.59,1.33-1.51,1.4-1.42,1.44-1.51,1.68-1.4,1.72-1.29,1.77-1.17,1.83-1.06,1.87c-.32.64-.63,1.28-1,1.93l-.84,2-.72,2c-.2.69-.4,1.38-.61,2.06l-.48,2.1c-.12.7-.23,1.41-.35,2.12l-.24,2.15c0,.72-.07,1.45-.1,2.17s0,1.47,0,2.21.1,1.49.14,2.24l.27,2.26c.18,1,.36,2,.55,2.92l.75,2.94c.32,1,.64,2,1,3l1.17,3,1.39,3,1.6,3,1.83,3,2,3-1,.62-1,.69-2,1.46-2.72,2.13c-.87.73-1.73,1.47-2.59,2.21L1531-1660l-2.29,2.4-2.16,2.5c-.67.86-1.35,1.72-2,2.59l-1.87,2.68-1.74,2.78-1.56,2.87-1.38,3c-.4,1-.79,2-1.19,3s-.67,2.1-1,3.15l-.81,3.24c-.2,1.11-.41,2.22-.61,3.33s-.29,2.29-.43,3.43l-.24,3.52v3.18c0,1,.11,2.06.17,3.08,0,.38.09.76.13,1.14l-.41-.31-1-.66-1-.59-1-.55-1.06-.49-1.1-.44-1.12-.39-1.15-.33-1.18-.28-1.21-.22-1.24-.17-1.27-.12-1.3-.06-1.09.06-1.09.1-.6.09c-.08-1.62-.15-3.25-.23-4.88-.08-.87-.17-1.75-.25-2.62l-.33-2.53-.42-2.44c-.17-.78-.34-1.56-.5-2.34s-.39-1.5-.59-2.25l-.67-2.17-.75-2.07c-.28-.65-.56-1.31-.83-2s-.62-1.26-.92-1.89-.67-1.19-1-1.79l-1.09-1.7-1.17-1.61-1.25-1.52-1.33-1.42-1.41-1.33-1.45-1.23-1.5-1.13-1.56-1-1.6-.93-1.65-.84-1.71-.73-1.76-.63-1.8-.54-1.86-.43-1.91-.34-2-.23-2-.14-2.06,0-2.11.07-2.16.16-1,.14-1,.18-1,.23-1,.28-1,.33-1,.37-1,.42-1,.46-2,1.06-2.08,1.22-2.12,1.38-2.17,1.53q.59-4.87,1.19-9.77c.24-3.38.47-6.76.71-10.14q.23-10.35.44-20.69l-31.43,1.76.54,27.33q-.18,10.17-.34,20.35c-.2,2.65-.39,5.29-.58,7.94l-.42,3.6c-.18,1.12-.35,2.23-.52,3.35s-.4,2.07-.61,3.11-.46,1.9-.7,2.86-.52,1.74-.79,2.61-.58,1.58-.88,2.37l-6.62-.94-3.08-.55-2.81-.67c-.87,2.85-1.75,5.71-2.63,8.56l-1.07,4.3c-.31,1.43-.61,2.87-.91,4.3l-.74,4.31-.09.68c0,.11,0,.21,0,.32l-.2-.16-.09-.08-1.08-.79-1.11-.73-1.13-.67-1.17-.59-1.2-.53-1.22-.47-1.26-.4-1.29-.33-1.31-.26-1.35-.2-1.37-.14-1.41-.06-1.89.1-1.86.2-1.82.29-1.78.39-1.74.49-1.71.59-1.66.68-1.63.78-1.59.88-1.55,1c-.51.35-1,.71-1.51,1.07l-1.48,1.16-1.44,1.27-1.39,1.36c-.46.48-.91,1-1.36,1.45l-1.33,1.56-1.26,1.63-1.19,1.69-1.1,1.74c-.35.6-.69,1.2-1,1.8s-.64,1.24-1,1.86-.59,1.28-.88,1.92-.53,1.31-.79,2l-.72,2c-.21.7-.43,1.39-.64,2.09s-.37,1.43-.56,2.14l-.48,2.21c-.14.75-.27,1.5-.41,2.25s-.22,1.55-.32,2.32-.17,1.58-.25,2.37l-.27,4.92c0,.62.08,1.24.11,1.86s.13,1.19.19,1.78.19,1.15.28,1.73.24,1.1.35,1.65l.45,1.58c.17.51.34,1,.52,1.52l.6,1.45c.24.47.47.93.69,1.39l.78,1.31.42.63.43.62.46.6.48.58.5.57.52.54.55.53c.18.18.37.35.56.52l1.19,1,1.27.91,1.35.84,1.42.78,1.44.74,1.48.68,1.51.63,1.55.58,1.58.53,3.26.91,3.39.71,3.52.5,3.66.3,3.79.09.09,1.93c0,.67,0,1.33,0,2,0,1.36,0,2.72-.08,4.08l-17.07,2.4-7.57.71-6.88.26-3.13,0-2.95-.19-2.77-.35-1.32-.24-1.27-.27-1.22-.32-1.18-.35-1.13-.4-1.09-.43-1-.48-1-.51-1-.56-.9-.59-.44-.32-.42-.33-.29-.24-.12-.1-.28-.25-.11-.11-.38-.37-.37-.39-.25-.28-.1-.12-.24-.29-.1-.12-.24-.31-.09-.13-.22-.31-.09-.13-.21-.33-.09-.13c-.1-.16-.19-.32-.29-.47l-.37-.71-.16-.29-.47-1-.42-1.1c-.13-.39-.25-.78-.37-1.17s-.21-.82-.31-1.23-.17-.85-.26-1.28-.09-.63-.14-1l-.06-.39c0-.33-.07-.66-.11-1,0-.13,0-.27,0-.41l-.09-1.45,0-1.52,0-1.66c0-.57.07-1.14.1-1.71.13-1.2.25-2.41.38-3.61s.42-2.56.62-3.84.59-2.71.88-4.07c.8-3,1.61-5.93,2.42-8.9l3.28-9.94-13.38-4.34c-.2-.89-.4-1.77-.59-2.66l1.07-.28,2.52-.81,1.06-.4.92-.4.79-.4.2-.11.15-.09.18-.11.13-.09.71-1.2c.21-.42.43-.83.65-1.24l.59-1.27.54-1.31c.17-.45.33-.89.49-1.34s.29-.92.43-1.38.25-.94.38-1.41.21-1,.32-1.44l.51-2.86.36-2.72.21-2.58c0-.81,0-1.62,0-2.44s-.06-1.52-.08-2.28l-.21-2.21c-.1-.71-.21-1.42-.31-2.13s-.29-1.36-.43-2-.37-1.32-.55-2l-.66-1.89-.78-1.81-.24-.5-.19-.38-.26-.48c-.06-.13-.13-.25-.2-.38l-1-1.66-1.06-1.58-1.13-1.5-1.21-1.43-1.28-1.35-1.36-1.28-1.43-1.2-1.5-1.12c-.48-.33-1-.67-1.42-1l-1.46-.94-1.5-.88-1.53-.8-1.56-.74-1.61-.66-1.64-.59-1.67-.52-3.41-.86-3.44-.63L1287-1640l-3.52-.15-.7.56-.33,2.29-.24,2.32-.24,4.8c0,1.58,0,3.16,0,4.74s.16,3,.23,4.46l-2,2.8-1.71,2.85c-.25.48-.5,1-.76,1.44l-.7,1.45-.65,1.47-.58,1.47c-.17.5-.35,1-.52,1.48l-.45,1.47c-.13.48-.25,1-.38,1.45s-.21,1-.31,1.44-.17,1-.25,1.44l-.18,1.42c0,.47-.07.94-.1,1.41s0,.93,0,1.39v1c0,.35,0,.69,0,1l-.27-.31-.12-.15-.41-.48-.45-.49-1-1-1.18-1-1.33-1.07-1.5-1.1-1.53-1.05-1.44-.9-1.36-.76-1.27-.62-.61-.25-.58-.22-.56-.19-.54-.14-.35-.08-.17,0-.49-.08-.21,0-.27,0h-.42l-.35.08-.27.1-.38.15-.33.15-.22.12-.11.06-.33.2-.23.15-.11.07-.23.16-.1.08-.23.18-.11.08-.35.29-.69.64-.7.72-.49.55a2.85,2.85,0,0,1-.23.26c-.46.59-.92,1.17-1.39,1.75l-1.29,1.82-1.2,1.88-1.11,2-.18-.29-.08-.15a3,3,0,0,1-.2-.29l-.1-.14c-.07-.11-.15-.21-.22-.31l-.1-.14-.25-.3-.11-.15-.81-.91-.93-.94-1-.95-1.18-1-2.72-2-1.44-1-1.36-.82-1.28-.69-1.19-.56-.39-.15-.18-.07-.55-.2-.52-.16-.51-.13-.48-.09-.47-.06-.18,0H1230l-.24.08-.19.07-.51.22-.48.25-.32.2-.16.09-.32.22-.16.11-.48.36-.49.41-.49.44-.49.48-.5.53-1,1.16-1,1.32-1,1.48-1.87,3-1.5,2.66-.61,1.22c-.17.38-.34.76-.52,1.14s-.19.49-.29.73l-.13.34-.33,1,.79.84.87.86,2,1.78,2.35,1.87,2.7,2,2.75,1.86,2.52,1.56,2.28,1.29,2,1,.51-.39.55-.45,1.18-1.09,1.29-1.34,1.41-1.58,1.41-1.73,1.32-1.77,1.22-1.81,1.13-1.87,1.8,1.66,2,1.7,2.28,1.74,2.52,1.79,2.55,1.68,2.33,1.42,2.13,1.15,1,.48.63.28.3.13.86-.66.88-.78.92-.89,1-1,2-2.37,2.13-2.83,1-1.49c.3-.47.6-.94.89-1.41s.51-.88.76-1.33l.62-1.25.18-.41.08-.19.15-.39a1.34,1.34,0,0,0,.07-.18c0-.13.09-.26.13-.38l.06-.18,0-.15,0,.11c.06.17.11.33.17.49s.08.26.13.38l.33.85c.08.16.15.31.22.47l.16.36.42.8.26.44.2.34.5.75.54.74.58.71.62.69.66.65.71.62.76.57.8.53.87.51-4,1.18,3.45,8.7q1.07,3,2.15,6l2.07,6.53-4.8.78-5.19.65-11.32.89-14.7.44-15.39-.13-15.62-.62-15.2-1.18,1.87-6.48c.66-2,1.31-3.93,2-5.89l3.3-8.77-30.78-8.21-.87,2.87-.78,3c-.43,2.11-.87,4.23-1.31,6.34-.18,1.11-.35,2.22-.52,3.32s-.28,2.27-.41,3.4c-.1,1.45-.2,2.9-.31,4.35l-22.92-.49q-1.28,12.32-2.54,24.62-2.11,14-4.24,28l-8.48-.15-7.82-.56-6.76-.85-2.84-.48-2.48-.52-2.79-.74-2.57-.84-1.19-.46-1.14-.49-1.08-.52-1-.55-1-.57-.91-.6-.85-.63-.8-.65-.74-.68c-.23-.24-.45-.48-.68-.71s-.42-.49-.62-.74l-.57-.76c-.12-.18-.24-.36-.35-.54l-.16-.25-.47-.82-.28-.58a2.1,2.1,0,0,0-.13-.26c-.11-.29-.23-.58-.35-.87s-.21-.6-.31-.9-.12-.42-.17-.64a2.45,2.45,0,0,1-.08-.29l-.21-1c0-.22-.07-.45-.1-.67s0-.2,0-.31c0-.33-.06-.67-.1-1l0-.71c0-.11,0-.22,0-.32,0-.36,0-.71,0-1.06s0-.73,0-1.09.07-.74.11-1.11.07-.52.11-.78,0-.24,0-.36l.21-1.16.18-.82c0-.13,0-.25.08-.38l.39-1.5c.15-.51.3-1,.46-1.54.37-1.06.75-2.13,1.12-3.2l1.41-3.38c.17-.37.35-.74.53-1.11l0-.11,1-2.1,1.32-.48,1.59-.66.89-1.43.84-1.47.81-1.54c.25-.52.5-1,.76-1.58l1.39-3.33c.42-1.17.83-2.35,1.24-3.53s.67-2.3,1-3.45.49-2,.74-3.07c.08-.46.17-.92.26-1.39l.12-.82c0-.15,0-.31.07-.47l.12-1.2c0-.37,0-.73,0-1.1,0-1.36-.11-2.71-.17-4.07-.06-.65-.13-1.3-.19-2l-.24-1.89c-.1-.62-.21-1.23-.31-1.84s-.24-1.19-.37-1.79-.29-1.15-.43-1.73-.33-1.12-.49-1.67l-.56-1.62c-.21-.52-.41-1-.62-1.57s-.45-1-.68-1.51l-.74-1.45-.81-1.4c-.28-.45-.57-.9-.86-1.34l-.93-1.29-1-1.23-1-1.17-1.08-1.1-1.13-1-1.17-1-1.21-.87-1.25-.8-1.3-.73-1.34-.65-1.37-.58-1.42-.5-1.47-.43-1.5-.36-1.55-.28-1.59-.21-1.63-.14-1.67-.06-1.47,0-1.49.09-1.5.15-1.53.22-1.54.3-1.56.36-1.58.43-1.6.5-3.25,1.2-3.33,1.48-3.4,1.76-3.47,2-3.52,2.33-3.54,2.66-3.57,3-3.58,3.31-3.61,3.65-3.63,4-7.32,8.92-1.52-.41-.73-.24-.71-.25-.68-.28-.66-.3-.41-.2-.23-.11-.39-.22-.23-.12-.59-.36-.57-.37-.55-.4-.33-.27-.19-.15-.32-.28-.18-.16-.48-.45-.46-.48-.44-.5-1.66-2.13-1.59-2.33-1.53-2.53c-.49-.9-1-1.81-1.46-2.72l-1.35-.68-24.54,10.32,1.41,4,1.41,4.51,2.85,10.68q1.23,6,2.47,11.9l1.68,12.13-5.48,1.36-5.11,1.08-4.77.81-4.41.53-4.06.25-1.9,0-1.81,0-1.72-.11-1.63-.19-1.55-.25-1.45-.32-.7-.19-.42-.13-.25-.08-.65-.23-.63-.25-.61-.27-.58-.29-.56-.32-.55-.34-.51-.35-.32-.24-.18-.14-.47-.4-.46-.42-.27-.28-.16-.16c-.13-.16-.27-.31-.41-.46l-.24-.31-.14-.18-.37-.5L957-1543l-.13-.2c-.1-.18-.21-.36-.32-.54l-.3-.57-.17-.37c0-.08-.07-.15-.1-.22l-.16-.39-.09-.22-.15-.4-.09-.23c0-.14-.08-.28-.13-.41a2.25,2.25,0,0,0-.08-.24c0-.15-.08-.29-.11-.43a1.82,1.82,0,0,1-.07-.25c0-.14-.07-.29-.11-.44l-.06-.25-.09-.45c0-.09,0-.18,0-.27-.05-.31-.1-.63-.14-.94s-.06-.37-.08-.55l-.09-1c0-.19,0-.38,0-.58,0-.55,0-1.11,0-1.66,0-.27,0-.54,0-.82v-.47c0-.28,0-.57,0-.85l0-.49c.09-1,.19-1.89.28-2.83a1.43,1.43,0,0,1,0-.22l.26-.08,5-.73,4.72-1,4.25-1.12,3.5-1.12,1.48-.55,1.29-.56,1.1-.56.48-.28.44-.28,1-1.68c.3-.57.6-1.15.91-1.72l.82-1.77c.25-.61.51-1.21.76-1.82l.67-1.87.6-1.91.53-2,.45-2c.23-1.33.47-2.65.71-4s.33-2.52.5-3.78.19-2.4.29-3.59.05-2.27.07-3.4l-.12-3.19c-.09-1-.18-2-.28-3.08s-.29-2-.44-3l-.6-2.86c-.25-.91-.5-1.83-.76-2.75s-.61-1.76-.92-2.64l-1.08-2.53-.6-1.23-.64-1.19-1.38-2.32-1.47-2.2-1.58-2.1-1.69-2-1.78-1.88-1.89-1.78-2-1.67-2.1-1.57-2-1.41-2-1.32c-.7-.4-1.39-.81-2.08-1.22l-2.14-1.12-2.18-1-2.23-.93-2.28-.82-2.34-.73-4.74-1.2-4.8-.87-4.84-.55-4.9-.21c-.33.26-.66.52-1,.79l-.45,3.18c-.11,1.08-.22,2.17-.34,3.25q-.16,3.35-.34,6.69l0,6.62c.1,2.07.21,4.14.31,6.21-.9,1.31-1.81,2.61-2.71,3.91l-2.38,4-1.06,2c-.33.68-.66,1.35-1,2l-.9,2-.81,2.06-.72,2.06-.63,2c-.18.67-.36,1.35-.53,2s-.29,1.34-.44,2-.23,1.33-.34,2-.17,1.32-.25,2c0,.45-.07.89-.1,1.34,0,.21,0,.42,0,.62,0,.65,0,1.3-.05,2,0,.48,0,1,0,1.44s0,.93.07,1.4.09.92.13,1.37.13.9.19,1.34.11.6.17.9c0,.14,0,.27.07.41l.3,1.28.36,1.24.42,1.22c.15.39.31.78.46,1.18l.53,1.15.4.76.18.35c.22.36.43.73.64,1.09l.7,1,.75,1,.81,1,.86,1,.93.91,1,.86,1.05.8,1.11.74,1.18.68,1.27.64-.69,3.26c-.3,1.75-.59,3.51-.88,5.26s-.35,3.36-.53,5c0,.81-.09,1.62-.14,2.43s0,1.59,0,2.38,0,1.48,0,2.22l.12,2.16.21,2.1.3,2c.13.66.26,1.32.4,2l.48,1.91.57,1.86.66,1.79c.26.58.51,1.15.76,1.73l.84,1.67.94,1.61,1,1.54,1.11,1.49c.41.47.81.94,1.21,1.42l1.29,1.36,1.39,1.3,1.48,1.23,1.58,1.15,1.68,1.07,1.78,1,1.88.92,2,.84-1,.28L934.66-1513l-12.47-4.67-12-5,3.24-4.74,3.15-4.24,5-6.21-22.71-14.86c-.48.7-1,1.4-1.46,2.09s-1,1.48-1.43,2.21l-2.75,4.78c-.44.85-.88,1.7-1.31,2.55l-1.24,2.64q-1.12,2.74-2.26,5.51c-.4,1.18-.81,2.36-1.22,3.54s-.68,2.4-1,3.6l-.84,3.68-.66,3.74c-.08.63-.17,1.27-.25,1.9l-.18,1.88c0,.5,0,1-.08,1.48-.43-1.16-.85-2.33-1.28-3.5-.62-1.68-1.23-3.37-1.85-5s-1.34-3.28-2-4.92l-2.17-4.77-2.32-4.62,4.45-2.21,2.14-1.22,1.85-1.19c.26-.65.53-1.31.79-2l.73-2c.22-.7.45-1.39.67-2.09l.6-2.15c.34-1.49.68-3,1-4.47s.51-3.13.76-4.69.34-3,.5-4.54l.24-4c0-.6,0-1.2,0-1.8l0-1.18v-.48c0-.5-.08-1-.11-1.52l-.18-1.39c-.37-1.68-.75-3.36-1.12-5l-.66-2.4-.72-2.31c-.27-.75-.53-1.49-.79-2.24s-.57-1.43-.86-2.15-.61-1.38-.92-2.06l-1-2-1.05-1.9c-.37-.61-.74-1.22-1.12-1.82l-1.18-1.74-1.25-1.65c-.44-.53-.88-1-1.31-1.58l-1.38-1.48-1.45-1.41L871.7-1604l-1.56-1.24-1.6-1.12-1.64-1-1.67-.93-1.71-.83-1.74-.72-1.78-.62-1.81-.52-1.86-.42-1.88-.32-1.93-.21-2-.12h-2l-2,.09-2.06.19-2.11.29-1.83.34-1.85.44-1.85.52-1.85.62-1.87.71-1.87.79-1.88.89-1.89,1-3.8,2.22-3.84,2.58-3.86,3-3.89,3.3-3.89,3.69-3.84,4.11c-1.27,1.51-2.53,3-3.8,4.52l-3.75,4.94-3.71,5.35-3.66,5.77q-3.6,6.38-7.19,12.77l-2-.18-1-.13-.94-.17-.92-.19-.89-.23-.86-.25-.85-.29-.82-.32-.79-.34-.78-.38-.75-.4-.72-.44-.7-.46-.68-.5-.65-.53-2.55-2.29-2-2,2.22-1.15,7.84-4.64,7.48-5,7.14-5.44c.13-.63.26-1.26.4-1.89l.33-1.92c.16-1.31.31-2.62.47-3.92s.15-2.7.22-4,0-2.77,0-4.15l-.24-3.94-.38-3.41c-.05-.34-.11-.69-.16-1,0-.16-.05-.32-.08-.48l-.27-1.37c-.11-.41-.21-.83-.31-1.24s-.23-.74-.35-1.11c-.71-1.71-1.43-3.41-2.15-5.12l-1.14-2.38c-.4-.76-.79-1.52-1.19-2.27s-.82-1.44-1.24-2.16-.85-1.36-1.28-2l-1.33-1.92-1.38-1.81c-.47-.56-1-1.12-1.42-1.69l-1.47-1.57-1.52-1.46-1.56-1.35-1.62-1.23-1.65-1.11-1.71-1-1.75-.88-1.78-.77-1.8-.66-1.8-.55-1.83-.43-1.83-.33-1.85-.21-1.86-.1h-1.88l-1.89.12-1.9.23-1.92.35-1.92.45-2,.57-1.95.67-2,.79-2,.9-.85.46-.84.51-.83.55-.82.6-.82.64-.8.69-.79.74-.79.79-1.55,1.7-1.54,1.86-1.52,2-1.52,2.2-2.25-9.63q-1.43-4.9-2.83-9.81l-6.74-19.67-29,12.53,10,25.59q3.34,9.66,6.71,19.31c.73,2.56,1.47,5.12,2.2,7.68l.84,3.55c.23,1.11.45,2.22.68,3.34l.5,3.14c.1,1,.21,2,.32,2.93s.11,1.83.16,2.74c0,.58,0,1.16,0,1.74v.8l-6.57,1.41-3.1.54-2.88.34c0-1.37,0-2.74,0-4.11l.39-5.08c0-1.72.09-3.45.13-5.18,0-1.15,0-2.3-.07-3.45l-.19-3.42-.21-2.32c0-.35-.06-.7-.1-1-.14-1.12-.28-2.23-.43-3.34l-.54-3.26c-.21-1-.43-2.09-.64-3.14l-.75-3-.59-2c-.08-.31-.17-.61-.26-.91l-32,7.37,3.6,10.78c.65,2.14,1.31,4.27,2,6.4s1.2,4.51,1.79,6.76l-5.17,1.1-1.3.21-1.3.15-1.29.1-1.28,0h-.74l-.73,0-.71,0-.7-.09-.68-.13-.66-.17-.64-.19-.62-.24-.61-.27-.41-.21-.18-.09-.58-.35-.55-.37-.54-.42-.36-.3-.17-.14-.34-.34-.16-.15-.34-.36-.15-.16c0-.06-.11-.12-.16-.19l-.07-.08-.16-.2-.07-.09-.15-.22-.07-.09-.14-.22-.06-.1c-.05-.08-.09-.16-.14-.23l-.06-.11-.13-.24-.06-.11-.12-.25-.06-.12a2,2,0,0,1-.11-.26l-.06-.12-.21-.55a2.77,2.77,0,0,0-.1-.26l-.18-.59-.09-.27c0-.22-.11-.43-.16-.64s0-.2-.07-.29-.1-.46-.14-.68l-.06-.31c0-.24-.08-.48-.11-.72s0-.22,0-.33l-.09-.76,0-.35c-.05-.8-.09-1.6-.14-2.4s0-1.76,0-2.64l.12-2c0-.3,0-.6,0-.89l-16.51-2.6-.66,2.7-.75,2.52c-.2.54-.39,1.09-.59,1.63l-.27.73c-.21.51-.43,1-.65,1.51l-.3.69-.35.71c0,.11-.11.22-.16.32l-.37.69-.17.31c-.13.22-.26.43-.38.65l-.18.3-.59.91-.61.87-.63.83-.45.54-.21.24-.68.75-.49.48-.21.22-.71.66-.49.42-.22.19-.49.39-.23.18-.72.52-.5.33-.23.14-.5.3-.23.14-.74.38-.75.35-.51.2-.24.09-.52.18-.23.07-.77.21-.77.16-.77.12-.78.07-.79,0h-.67l-.66,0-.65-.09-.44-.09-.2,0-.44-.11-.19,0-.63-.19-.42-.16-.2-.08-.42-.18-.19-.09-.41-.21-.19-.09-.4-.24-.19-.11-.4-.26-.18-.12-.4-.28-.18-.13-.39-.31-.17-.14-.39-.34-.17-.15L595-1587l-.17-.17-.54-.56-.36-.41-.17-.19-.34-.44-.16-.2-.33-.47-.15-.21-.31-.49c0-.08-.1-.15-.14-.23l-.3-.52c0-.08-.09-.16-.14-.23-.13-.27-.27-.53-.41-.8s-.18-.38-.26-.58a2.1,2.1,0,0,1-.13-.26c-.08-.2-.16-.4-.25-.6s-.07-.18-.11-.27-.16-.42-.23-.63l-.11-.29c-.07-.22-.15-.44-.22-.66s-.07-.19-.1-.29l-.57-2c-.16-.73-.31-1.46-.47-2.19l-.39-2.34-1.59-.8-28.84,12.17,1.65,4.64q.84,2.65,1.66,5.31,1.68,6.3,3.35,12.62l2.91,14.07q1,7.17,2,14.33l-8.69,2-7.9,1.5-3.65.55-3.45.4-3.27.24-3.08.09-2.81-.07-2.63-.24-1.25-.17-1.2-.22-1.15-.26-1.11-.29-1.06-.34-1-.38-.66-.28-.3-.13-.93-.46-.6-.34-.28-.16-.57-.37-.3-.2c.51-1.45,1-2.9,1.55-4.35q1.64-5.31,3.28-10.62,1.29-5.33,2.6-10.64c.27-1.47.53-2.94.8-4.4.15-1.27.3-2.53.46-3.79l-5.31-.41-5.24-.16-2.63.06c0-.1,0-.19.07-.29l1.25-4.34q1.56-4.67,3.13-9.34l-27.44-9-2.94,7.37c-.86,2.38-1.71,4.76-2.57,7.15s-1.45,4.61-2.18,6.91l-1.8,6.7-.18.8c0,.13,0,.25-.08.37l-3.5,1.36a82.28,82.28,0,0,0-25.2,15.22c-6.69,6-39.3,9.83-38.93,9l1-2.43c.31-.83.62-1.65.92-2.47.21-.61.41-1.22.61-1.83l.23-.68c.24-.84.49-1.69.74-2.53.06-.24.11-.47.17-.71l.07-.25,6.33-8.7-4.31-2.94c0-.13,0-.26.05-.38l0-.15c.13-1.76.27-3.52.4-5.28l.12-5.27c-.05-1.75-.11-3.5-.16-5.25-.24-2.78-.49-5.56-.73-8.35-.18-1.35-.37-2.7-.56-4l-.69-4q-.86-3.79-1.7-7.57c-.34-1.18-.67-2.37-1-3.56-.27-.83-.53-1.66-.8-2.5-.1-.3-.19-.61-.29-.91l-36.67,10.46,4.13,10.42q1.28,3.55,2.57,7.11l2.48,7.82-5.75.94-6.21.78-13.55,1.06-17.59.53-18.42-.16-18.7-.74L295.65-1574l-1.84-1.1c.66-2.27,1.32-4.55,2-6.82s1.56-4.7,2.35-7q2-5.25,3.94-10.49l-36.84-9.83c-.35,1.14-.69,2.29-1,3.43l-.69,2.62c-.08.32-.16.64-.25,1-.52,2.53-1.05,5.06-1.57,7.59l-.63,4-.49,4.06c-.19,2.79-.39,5.57-.58,8.36,0,1.75-.05,3.5-.07,5.25l.21,5.26c.07.73.14,1.47.2,2.2,0,.27.05.54.08.81l-4.69-2.92-.8-.56-.34-.24-.76-.58-.33-.24-1-.86-.69-.63-.3-.27-.57-.53-.38-.38-.16-.16-.34-.39-.15-.17-.32-.4c0-.06-.09-.12-.14-.17s-.19-.28-.29-.41l-.13-.18-.26-.42-.12-.18-.23-.43-.11-.19-.3-.63-.18-.45c0-.06-.05-.13-.08-.19l-.16-.46-.07-.2c0-.16-.08-.31-.13-.47a1.46,1.46,0,0,0-.05-.2c0-.16-.07-.32-.1-.48s0-.14-.05-.21,0-.33-.07-.49a1.55,1.55,0,0,0,0-.21c0-.17,0-.33,0-.5a1.49,1.49,0,0,1,0-.21l0-.52a1.48,1.48,0,0,0,0-.21c0-.25,0-.5,0-.75,0-.09,0-.18,0-.26a.49.49,0,0,1,0-.12c0-.09,0-.18,0-.26l0-.12c0-.13,0-.26.05-.39s.06-.26.08-.39.06-.26.1-.39,0-.19.07-.28l0-.12.09-.29,0-.12.15-.41c.11-.28.23-.55.35-.83s.2-.4.29-.6.09-.17.13-.25l.35-.61.14-.26.4-.62.17-.27.64-.9.71-.92,1.63-1.9,1.93-2,2.21-2L246-1609.52l-2.44,1.55-2.4,1.35-2.35,1.16-2.3,1-1.14.4-1.12.36-1.11.31-1.1.26L231-1603l-1.08.16-1.06.12-1.06.06-1,0-1,0-1-.05-1-.1-.92-.13-.89-.17-.87-.2-.83-.25-.81-.28-.55-.23-.23-.09-.53-.26-.23-.1-.72-.4-.49-.31-.21-.13-.47-.33-.2-.14-.64-.51-.43-.39-.18-.16-.49-.5-.32-.36-.14-.15-.3-.38-.13-.16-.28-.39-.11-.17-.26-.41-.11-.17c-.07-.14-.15-.28-.23-.42l-.09-.18-.21-.44-.09-.18c-.06-.16-.12-.31-.19-.46s0-.12-.07-.19-.11-.31-.17-.47l-.06-.19c-.05-.16-.1-.33-.14-.49l-.06-.2-.12-.5a1.6,1.6,0,0,0-.05-.21,2.38,2.38,0,0,0-.05-.26c0-.16,0-.31-.08-.46l.2,0,2.11-.42,2.17-.51,4.5-1.31,4.72-1.67,3.51-1.48,3.62-1.72,3.72-2,3.81-2.19,8-5.17,8.47-6.25.24-.84c.07-.21.13-.42.19-.63s.13-.58.2-.88l.15-.66c.1-.54.19-1.07.28-1.61l.12-1,.09-.72c0-.59.09-1.17.13-1.76l0-1c0-.26,0-.52,0-.78,0-.63,0-1.26,0-1.9l-.09-2-.18-2c-.06-.41-.11-.82-.16-1.22s-.09-.62-.13-.93-.14-.85-.22-1.28-.11-.64-.17-1-.18-.89-.28-1.34l-.21-1c-.43-1.66-.87-3.32-1.3-5s-1.15-3.58-1.73-5.37l6.85-1.31,6.77-1.72,6.69-2.11,6.6-2.51,6.35-2.74,5.95-2.82,5.52-2.89,5.12-3,4.53-2.87,3.8-2.63,3-2.36,1.25-1.09,1.06-1c0-.27.09-.54.14-.8s.08-.41.11-.61l.21-1.44.09-.83c0-.21.05-.42.07-.63,0-.5.07-1,.11-1.5,0-1,0-2,.07-3.08s-.09-2.12-.13-3.19-.19-2-.28-3-.25-1.78-.38-2.67c0-.22-.08-.45-.13-.67l-.09-.51c-.09-.36-.17-.73-.26-1.09l-.15-.56-.12-.43c-.06-.17-.12-.34-.17-.51s-.09-.25-.13-.38c-.48-1.06-.95-2.11-1.42-3.17-.14-.29-.28-.57-.43-.85l-.32-.64-.45-.82-.34-.61-.47-.78c-.11-.2-.23-.39-.35-.59l-.49-.74-.36-.56-.88-1.24-.92-1.17-.95-1.12-1-1-1-1-1-.92-1.08-.86-1.11-.8-1.14-.73-1.17-.67-1.2-.6-1.2-.53-1.22-.46-1.22-.38-1.23-.32-1.25-.24-1.25-.17-1.27-.1-1.28,0-1.28,0-1.3.12-1.3.19-1.32.25-1.33.33-1.33.41-1.35.47-1.16.47-.66.31-.5.23-1.14.59-.66.37-.48.28-1.14.72-1.13.78-1.12.83-1.11.9-2.2,2-2.18,2.21-2.15,2.46-2.12,2.7-2.07,3-2,3.22-1.89,3.49c-.61,1.25-1.21,2.5-1.81,3.75l-1.73,4-1.64,4.29q-1.51,4.68-3,9.37l-1.34.15-.65,0-.64,0h-.63l-.62,0-.61-.06-.59-.07-.58-.1-.57-.12-.56-.14-.55-.17-.31-.11-.23-.08-.29-.12-.23-.09-.29-.14-.22-.1-.29-.15-.21-.11-2-1.17-2-1.35-2-1.53-2-1.71-1.28-.11L213-1685.57l2.35,2.7c.85,1,1.69,2.09,2.54,3.14q2.79,3.8,5.6,7.58,2.83,4.35,5.68,8.68,2.56,4.56,5.12,9.11l-3.92,2.79-3.72,2.46-3.53,2.13-3.34,1.8-3.14,1.47-1.5.61-1.45.53-1.41.45-1.35.36-1.3.29-1.26.2-.61.07-.6,0-.59,0H206l-.57,0-.55,0-.55-.07-.53-.1-.52-.12-.52-.15-.28-.09-.22-.08-.49-.19-.48-.21c-.15-.09-.31-.16-.47-.24l-.45-.27-.26-.16-.19-.12-.25-.18-.19-.13-.42-.34-.42-.36-.23-.21-.17-.17-.39-.4-.22-.25-.16-.18-.21-.26c-.06-.06-.11-.13-.16-.19l-.36-.48-.2-.28-.15-.22-.19-.3-.15-.22-.36-.64c-.1-.16-.19-.32-.28-.48l-.6-1.21-.31-.75-.24-.56-.39-1c-.07-.21-.14-.41-.2-.62s-.11-.31-.16-.47l-.66-2.33c-.11-.49-.22-1-.32-1.46s-.17-.73-.25-1.1l-.48-2.77-.39-3c-.11-1.08-.21-2.16-.31-3.23q-.19-3.59-.37-7.15l-20.93,1.23.2,11.26c.13,1.75.25,3.5.37,5.26s.37,3.33.56,5,.5,3.16.74,4.74l1,4.45c.38,1.39.76,2.78,1.15,4.17l.37,1.12c.1.28.19.57.28.85.24.63.47,1.27.71,1.9l.72,1.76c.25.56.51,1.12.77,1.68l.36.7c.1.18.19.36.28.54l-3,5.43-8,12.71-8.9,12.22-8-4.78-7-4.58-3.15-2.23-2.89-2.21-2.64-2.19-2.38-2.16-2.07-2.1c-.6-.69-1.2-1.39-1.81-2.08l-.81-1L126-1623l-.23-.31c-.15-.24-.31-.48-.47-.72l-.21-.31-.43-.72-.19-.3-.39-.72-.16-.31-.5-1-.3-.71-.12-.3-.26-.72-.11-.3-.21-.71-.09-.3c-.05-.24-.11-.47-.17-.71s0-.2-.07-.3l-.12-.7c0-.1,0-.2-.05-.3s0-.47-.08-.7l0-.3c0-.33,0-.67,0-1s0-.67,0-1l.06-.7,0-.3c0-.23.07-.47.1-.7s0-.2,0-.3l.21-1,.2-.71c0-.09,0-.19.08-.29l.24-.7.11-.3.4-1,.34-.7c0-.1.09-.2.14-.3l.38-.7.16-.29.6-1,.47-.7.2-.3.73-1,.8-1,.6-.7.26-.29.65-.7.28-.3,1.12-1.12,1.21-1.13,2.66-2.26,3-2.28,3.34-2.29,3.69-2.31,4-2.34,9.12-4.76-14.18-26.63-7.55,3.41-7.11,3.52-6.65,3.62-6.21,3.74-3.12,2.09-2-9.29-31.82,6.7q1,7.5,1.91,15l.3-.26a21.92,21.92,0,0,1,2.63,2,22,22,0,0,1,2.21,2.21,15.23,15.23,0,0,1,3.94,8.18,8.28,8.28,0,0,1-2.93,7.38,11.91,11.91,0,0,1-4,2.31l.06.84c0,.19-.09.38-.13.57l-.33,1.34c-.1.53-.19,1-.29,1.57l-.12.67c-.07.53-.13,1.06-.19,1.59l-.09.68c0,.76-.09,1.52-.14,2.28s0,1.54,0,2.31c0,.54,0,1.09.08,1.63l0,.7c0,.23,0,.46.08.7,0,.51.11,1,.17,1.53l-6.17,1.33L67.76-1625l-6.78.71-2.88.18-2.53,0-2.89-.08-2.68-.25-1.27-.18-1.22-.22-1.17-.25-1.12-.3-1.07-.34-1-.38-1-.42-.63-.31-.29-.14-.88-.5-.82-.54-.53-.39-.25-.18-.72-.62-.47-.45-.21-.2-.44-.48-.19-.21c-.14-.17-.27-.34-.41-.5a2.11,2.11,0,0,0-.19-.23l-.37-.53-.17-.24-.35-.55-.15-.26-.32-.57c0-.09-.09-.18-.14-.27l-.41-.88-.26-.63c0-.09-.07-.19-.11-.29l-.23-.65c0-.1-.06-.2-.1-.3s-.13-.46-.19-.68l-.09-.32c0-.23-.11-.47-.16-.7s0-.22-.07-.33-.09-.49-.14-.73l-.06-.34c0-.37-.1-.74-.14-1.11s0-.52-.08-.78l0-.36-.06-1.19c0-.27,0-.55,0-.83v-.39c0-.35,0-.7,0-1.06,0-.16,0-.32,0-.48,0-.37.05-.74.07-1.1l0-.51c.12-1.12.25-2.25.37-3.37s.4-2.41.61-3.61l.84-3.83c.76-2.76,1.53-5.52,2.29-8.28.15-.43.29-.85.43-1.28.07-.19.13-.39.2-.59l.23-.24.14-.15,1.39-1.62,3.09-4q3-4.33,6.08-8.68c.78-1.22,1.56-2.44,2.33-3.66l.51-.87.31-.53.37-.69c.07-.14.15-.28.22-.43L43-1695.6,38.78-1699l-3.92-3.44-2.43-2.28-2.22-2.26-2-2.23-1.79-2.22-1.57-2.2-1.37-2.18c-.12-.22-.24-.45-.37-.67l-.23-.41-.34-.67-.21-.41-.3-.66c-.07-.14-.13-.28-.19-.41l-.45-1.07-.37-1.06c-.06-.22-.13-.43-.19-.65s-.08-.27-.11-.4c-.08-.35-.16-.7-.23-1l0-.32a1.42,1.42,0,0,0,0-.2c0-.1,0-.21,0-.32l0-.19c0-.17,0-.34-.05-.51s0-.21,0-.32a1.21,1.21,0,0,0,0-.19v-.51c0-.1,0-.21,0-.31v-.19l0-.51,0-.31a1.11,1.11,0,0,0,0-.19c0-.1,0-.2,0-.3l0-.19c0-.1,0-.21.05-.31l0-.19c0-.1.05-.2.07-.3s0-.13,0-.19,0-.2.07-.3a1.33,1.33,0,0,0,0-.19l.09-.3a1.21,1.21,0,0,0,.05-.18c.06-.17.11-.33.17-.49s.07-.2.11-.3a1.34,1.34,0,0,1,.07-.18l.12-.3a1.42,1.42,0,0,1,.08-.18l.45-1,.33-.58.2-.36.38-.58c.07-.12.15-.24.23-.35l.42-.57.26-.36c.25-.3.51-.6.76-.91l.52-.48.32-.29.54-.45.34-.27.91-.65.95-.59,1-.53,1-.46,1.07-.4,1.09-.34.71-.17.43-.11,1.17-.21,1.21-.15L37-1741l1.28,0,1.32,0,1.36.1,1.39.16,2.83.45,2.84.58,2.85.72,2.87.84,2.88,1,2.89,1.11,2.91,1.25,2.92,1.37,5.62,2.91,5.13,3,4.66,3,4.17,3.08,3.59-2.13,3.43-2.29,7-5.29,6-4.87,2.41-2.2.6-.61.36-.37.5-.57.31-.34-1.34-1.36-1.27-1.43-.75-.94-.47-.58c-.38-.53-.77-1.06-1.15-1.6s-.73-1.12-1.1-1.67l-1-1.76-1-1.84-.91-1.92-3.41-8.09-3.15-8.58c-.62-1.68-1.23-3.37-1.85-5.06l-2-4.91-2.16-4.78-2.33-4.63-1.26-2.22c-.45-.7-.91-1.4-1.37-2.1l-1.47-2-1.59-1.87c-.56-.58-1.13-1.16-1.69-1.75L76-1800.87l-1.91-1.52-2-1.4-1.18.5-1.23.58L67-1801.32l-2.85,1.71-3.07,2-5.79,4.18-2.47,2-2.19,1.86,0,.57c0,.11,0,.23,0,.35l7.91,8.11,1.59,1.76,1.54,1.85,1.5,2,1.46,2q2.37,3.7,4.73,7.42l4.32,7.52-4.66-1.34-4.68-1.16L55-1762.4l-4.17-.57-4.06-.35-3.94-.13-3.82.1-3.71.33-3.59.54-3.48.77-1.7.47-1.66.52-3.24,1.18-3.09,1.35-3,1.52L12.75-1755l-2.68,1.84-2.55,2L5.11-1749l-2.27,2.34-1.53,1.85-.47.63v45.56l.38.64,1.31,2,1.41,2,3.09,3.9c1.16,1.28,2.31,2.56,3.47,3.83l2,2q-2.65,7.24-5.32,14.48c-.71,2.31-1.41,4.61-2.12,6.91s-1.18,4.44-1.76,6.66-.93,4.26-1.39,6.39l-1,6.11-.12,1.22v24.34C3.55-1453.12,2.39-23,1.22,54.52H1908.13V-1698.84l-10.8,1.29-6.21.4-6,.14-3.85,0-3.65-.19-3.46-.34-3.26-.49-3.06-.64-2.87-.79-1.36-.46-1.31-.49L1861-1701l-1.21-.57-1.15-.61-1.08-.65-1-.71-.47-.38-.46-.39-.44-.39-.43-.42-.4-.42-.39-.44-.36-.45-.35-.46-.34-.48c-.1-.16-.21-.32-.31-.49l-.3-.5-.27-.51c-.09-.18-.18-.35-.26-.53s-.16-.36-.25-.54l-.22-.55c-.07-.19-.14-.38-.2-.56l-.36-1.17-.28-1.22c-.07-.42-.15-.84-.22-1.27s-.09-.88-.14-1.32l-.06-1.37c0-.44.07-.88.11-1.32S1850.26-1719.55,1850.33-1720ZM269.19-1703.14l1.14-1.34,1.17-1.29,1.19-1.22.7-.66.53-.5,1.25-1.1,1.28-1,2.57-1.89,2.53-1.61.71-.41.54-.3,1.24-.64,1.22-.57,1.22-.5.94-.35.93-.29.91-.25.89-.19.87-.15.85-.09.84,0h.82l.4,0,.22,0,.17,0,.21,0,.17,0,.36.06.35.08.2,0,.15,0,.18.06.14,0,.19.07.13,0,.31.13.17.08.12.07.29.16.27.17.15.1.11.08.14.12.11.08.23.22.13.12.08.15-.1.27-.45.72-.14.16-.1.12-.28.29-.18.17-.13.12-.21.18-.15.13-.82.63-.55.37-.42.28-1.12.69-1.28.72-5.85,2.93-6.74,2.89-6.83,2.58-6.16,2Zm-194,132.49a11.14,11.14,0,0,1-.59,2.52c-.58-.19-1.4-.45-2.46-.76a22.94,22.94,0,0,0-3.34-.73,5.78,5.78,0,0,1,0,2.92,3.35,3.35,0,0,1-1.8,2.18,6,6,0,0,1-2.81.55,7.43,7.43,0,0,1-2.84-.65,3.77,3.77,0,0,1-1.85-1.65,3.19,3.19,0,0,1-.12-2.53A5.77,5.77,0,0,1,60.9-1571a8.59,8.59,0,0,1,2.38-1.54,14.66,14.66,0,0,1,4.34-1,22.41,22.41,0,0,1,4.26,0,22.92,22.92,0,0,1,3.38.55A12.45,12.45,0,0,1,75.15-1570.65Zm60,16.74a6.42,6.42,0,0,1-1.82,1.18,8.74,8.74,0,0,1-2.35.63,16.85,16.85,0,0,1-1.19,1.22,12.37,12.37,0,0,1-1.36,1.1l-.16,0a9.4,9.4,0,0,1-1.51-2.1,7.11,7.11,0,0,1-.78-2.44,6.18,6.18,0,0,1,.21-2.76,6.07,6.07,0,0,1,1.64-2.59,8.89,8.89,0,0,1,1.55-1.21,6,6,0,0,1,1.94-.82,6,6,0,0,1,1.58.79,12.32,12.32,0,0,1,2.1,1.71,4,4,0,0,1,1.33,2.86A3.51,3.51,0,0,1,135.11-1553.91Zm70.06,8.38a7.61,7.61,0,0,1-2.29.77,10.83,10.83,0,0,1-1.21-2,8.77,8.77,0,0,1-.81-2.2,7.26,7.26,0,0,1,1.93-1.31,3.47,3.47,0,0,1,2.17-.55,3.73,3.73,0,0,1,1.38,1.78,4.07,4.07,0,0,1,.57,2.16A3.62,3.62,0,0,1,205.17-1545.53Zm13.84,52c-.6,1-1.11,2-1.53,2.83a3.67,3.67,0,0,1-1.2-.57,3.48,3.48,0,0,1-1-.9c.06-.24.14-.51.24-.8s.21-.6.35-.93a3.47,3.47,0,0,1-1.49-.22,2.83,2.83,0,0,1-1.05-.73,3.48,3.48,0,0,1-.76-1.91,4.22,4.22,0,0,1,.31-2,2.29,2.29,0,0,1,1.28-1.29,1.8,1.8,0,0,1,1.67.2,2.5,2.5,0,0,1,1,1.38,3.48,3.48,0,0,0-1.4,1.24.94.94,0,0,0,0,1.11,1.32,1.32,0,0,0,.49.29,2.62,2.62,0,0,0,.81.14c.31-.58.64-1.14,1-1.69a16.25,16.25,0,0,1,1.12-1.5l.23,0a8,8,0,0,1,1,1.37,7.14,7.14,0,0,1,.69,1.35A26.09,26.09,0,0,0,219-1493.55Zm4.5-62.62a18.8,18.8,0,0,1-1,2.47,16.17,16.17,0,0,1-1.8,2.89,11.46,11.46,0,0,1-2.46,2.36,23.49,23.49,0,0,1-4-1.06,50.8,50.8,0,0,1-5.48-2.3q-2.29-1.11-4.73-2.6a32.51,32.51,0,0,1-3.95-2.73,23.56,23.56,0,0,1-3.09-2.81,11.4,11.4,0,0,1,.63-3.35,16.42,16.42,0,0,1,1.46-3.08,18.83,18.83,0,0,1,1.52-2.19,19.11,19.11,0,0,1,1.64-1.78l4.43,4.27-1.37,1.17c-.59.51-1.17,1.08-1.81,1.73,1.58,1.11,3.29,2.17,5,3.2s3.45,2,5.11,2.76c.69.34,1.36.64,2,.91s1.25.5,1.82.69c.2-.89.35-1.72.46-2.5s.18-1.37.23-1.79l6,1.39A16.58,16.58,0,0,1,223.51-1556.17ZM373.93-1519a4.11,4.11,0,0,1,2.39-1.17,4.38,4.38,0,0,1,2,1.73,4.74,4.74,0,0,1,1.19,2.36,4.2,4.2,0,0,1-1.68,2,9.19,9.19,0,0,1-2.47,1.47,13.22,13.22,0,0,1-1.9-2A11.19,11.19,0,0,1,372-1517,8.86,8.86,0,0,1,373.93-1519Zm6,20.84a11.44,11.44,0,0,1-1.47,2.69,14,14,0,0,1-2.47,2.77,23,23,0,0,1-5.18-.22,50.5,50.5,0,0,1-7.67-1.63,36.71,36.71,0,0,1-7.91-3.3,22.68,22.68,0,0,1-2.6,5.42,11.28,11.28,0,0,1-2.94,3,50.42,50.42,0,0,1-6.12-.4,30.86,30.86,0,0,1-4.91-1q-6.06-1.9-8.13-5.31a9.24,9.24,0,0,1-.68-7.91,22.72,22.72,0,0,1,2.27-4.93,46,46,0,0,1,3.83-5.37l5.25,3.69a35.73,35.73,0,0,0-2.29,3.41,13.65,13.65,0,0,0-1.27,2.81q-1.05,3.4,1.56,5t8.71,1.81a47.07,47.07,0,0,0,.8-6.32,41.94,41.94,0,0,0,0-5.22l6.92-.7.29.27a13.4,13.4,0,0,0,.82,2.9,4.55,4.55,0,0,0,2,2.13,29.7,29.7,0,0,1,9.32-4.76,12.72,12.72,0,0,1,7.08-.17,7.25,7.25,0,0,1,4.67,4.12A10.51,10.51,0,0,1,380-1498.15ZM498.29-1473a5.39,5.39,0,0,1-3.85,2.49,13,13,0,0,1-3.13.18,22.85,22.85,0,0,1-3.77-.51l.45-3.67a18.85,18.85,0,0,0,2.36.24,7.51,7.51,0,0,0,1.78-.11,2.54,2.54,0,0,0,1.83-1.1,3.24,3.24,0,0,0,.22-2.31,11.49,11.49,0,0,0-.49-1.66c-.23-.61-.52-1.28-.85-2a27.09,27.09,0,0,0-3.46,1.31,25.37,25.37,0,0,0-2.68,1.39l-2.23-3.33.06-.22a3.36,3.36,0,0,0,1.66-1.06,1.64,1.64,0,0,0,.34-1.33,2.12,2.12,0,0,0-1-1.36,4.43,4.43,0,0,0-2.32-.59l-.08-2.15a2.83,2.83,0,0,0,2-.76,1.51,1.51,0,0,0,.26-1.34,3.3,3.3,0,0,0-.19-.64c-.08-.21-.17-.42-.26-.62-.55.26-1.07.52-1.56.79l-1.27.72-1.71-3.85a9.71,9.71,0,0,1,1.49-.66,11.52,11.52,0,0,1,1.68-.45,12.07,12.07,0,0,1,2.58-.23,6.71,6.71,0,0,1,2.21.39,8.34,8.34,0,0,1,1.44,3.12,4.55,4.55,0,0,1-.08,2.15,4.29,4.29,0,0,1-1.06,1.79l0,.2a3.92,3.92,0,0,1,1.59,1.15,3.93,3.93,0,0,1,.89,1.83v0a12.81,12.81,0,0,1,3-.06,7.89,7.89,0,0,1,2.37.63,29.19,29.19,0,0,1,1.46,3.24,17,17,0,0,1,.8,2.8Q499.46-1475,498.29-1473Zm57.14,27.19a3.72,3.72,0,0,1-.7,2.28,3.89,3.89,0,0,1-2.38.28,4.47,4.47,0,0,1-2.28-.66,3.92,3.92,0,0,1-.27-2.32,8.28,8.28,0,0,1,.55-2.52,11.27,11.27,0,0,1,2.48,0,9.45,9.45,0,0,1,2.45.46A8,8,0,0,1,555.43-1445.83Zm.09-17.79c-1.82.86-3.55,1.71-5.16,2.57a9.75,9.75,0,0,1,1.12,3.66,8.87,8.87,0,0,1-.41,3.91,5.37,5.37,0,0,1-2.36,2.91,4.85,4.85,0,0,1-4.67.1,9.24,9.24,0,0,1-3.88-3.82,12.82,12.82,0,0,1-1.31-3.18,12.23,12.23,0,0,1-.4-3.58,21.06,21.06,0,0,1,3.35-3.11,49.37,49.37,0,0,1,5.62-3.71c1.58-.92,3.34-1.83,5.27-2.75s4-1.82,6.33-2.71c.48,1.16.91,2.33,1.28,3.5a30.82,30.82,0,0,1,.88,3.59C559.24-1465.36,557.35-1464.48,555.52-1463.62Zm94.68,7.34a4,4,0,0,1,1.35,1.16,7.62,7.62,0,0,1,.76-1.27,1.77,1.77,0,0,1,.84-.7,3.18,3.18,0,0,1,1.64.64,3.27,3.27,0,0,1,1.29,1.19,3,3,0,0,1-.64,1.61,6.81,6.81,0,0,1-1.18,1.48,10.52,10.52,0,0,1-1.51-.78,8.51,8.51,0,0,1-1.46-1,8.24,8.24,0,0,1-.76,1.22,5.16,5.16,0,0,1-.77.84,11.87,11.87,0,0,1-1.61-.85,7.76,7.76,0,0,1-1.48-1.1,6.76,6.76,0,0,1,.77-1.68,2.76,2.76,0,0,1,1.21-1.29A3,3,0,0,1,650.2-1456.28Zm-32.18-.16c-1.06.24-2.09.42-3.08.56-1.75.22-3.24.35-4.44.38s-1.92,0-2.14,0a9.23,9.23,0,0,1-.08-1.24,13.77,13.77,0,0,1,.07-1.42,13.76,13.76,0,0,1,.17-1.4,5.84,5.84,0,0,1,.3-1.11c.86.08,1.75.12,2.69.12s1.87,0,2.81-.11c1.13-.07,2.21-.18,3.26-.32s2-.31,2.86-.5l.76,4.13A26,26,0,0,1,618-1456.44Zm8.15-6.17a3.06,3.06,0,0,1-.51,1.63,2.73,2.73,0,0,1-1.67.17,5.91,5.91,0,0,1-1.79-.43,8.23,8.23,0,0,1,0-1.78,7.47,7.47,0,0,1,.36-1.75,5.64,5.64,0,0,1,1.78-.07,2.64,2.64,0,0,1,1.63.52A2.82,2.82,0,0,1,626.17-1462.61ZM623-1481.17q-10-.16-14.64-5.08a17.28,17.28,0,0,1-4.61-12.5,30.15,30.15,0,0,1,2-10.46,42.41,42.41,0,0,1,5.77-10.46q-.3-3.93-.22-8.38a60.59,60.59,0,0,1,.74-8.57l.64-.51a46.92,46.92,0,0,1,12.58,1.85,34.63,34.63,0,0,1,11.26,5.59,30.28,30.28,0,0,1,9.06,10.13,30.37,30.37,0,0,1,3.55,14.65,46.24,46.24,0,0,1-1,9.62,28.82,28.82,0,0,1-3.73,9.63c-1.44,1-4.16,2-8.18,2.92A60.11,60.11,0,0,1,623-1481.17Zm38.78,36.83a19.08,19.08,0,0,1-3.36,1,44,44,0,0,1-5,.81c-1.43.15-3,.24-4.55.26a28,28,0,0,1-4-.19,19.73,19.73,0,0,1-3.47-.63,9.84,9.84,0,0,1-1-2.68,14.05,14.05,0,0,1-.34-2.87,16.37,16.37,0,0,1,.12-2.24,14.39,14.39,0,0,1,.37-2l5.09,1.07c-.11.34-.27.83-.46,1.46s-.35,1.29-.52,2c1.63.08,3.33.07,5,0s3.34-.15,4.9-.31c.64-.07,1.25-.15,1.84-.24s1.12-.2,1.61-.32c-.26-.73-.52-1.4-.79-2s-.49-1.06-.64-1.39l4.92-1.68a14.92,14.92,0,0,1,.62,2,17,17,0,0,1,.38,2.21,13.2,13.2,0,0,1,0,2.88A9.09,9.09,0,0,1,661.76-1444.34Zm60-60.67a10.65,10.65,0,0,1-.5-5c.07-.52.15-1,.24-1.58s.21-1.06.35-1.59l-1.23.78c-.41.27-.81.55-1.2.85a9.31,9.31,0,0,0-1.23,1.08c-.37.37-.8.84-1.3,1.38h-.16a17.86,17.86,0,0,1-1.41-1.69,9.77,9.77,0,0,1-1.12-1.78,6.3,6.3,0,0,1,2.33-2.31,22.28,22.28,0,0,1,3.18-1.54c1-.38,1.88-.79,2.74-1.23a6.85,6.85,0,0,0,2.13-1.6,6.64,6.64,0,0,1,.72.67c.27.29.56.62.86,1s.65.77.93,1.13a13.1,13.1,0,0,1,.8,1.15,17.75,17.75,0,0,0-1.86,3.37,12.5,12.5,0,0,0-1.06,3.9,3.43,3.43,0,0,0,1,3,2.44,2.44,0,0,0,2.67.39,8.32,8.32,0,0,0,2.86-2.39q.54-.66,1.08-1.41t1-1.56a9.23,9.23,0,0,1,1.06.58c.49.29,1,.6,1.5,1a13.91,13.91,0,0,1,1.21.91,17.38,17.38,0,0,1-1.09,2.05,17.54,17.54,0,0,1-1.29,1.77,10.73,10.73,0,0,1-5.23,3.62,5.79,5.79,0,0,1-5.43-1.22A8.51,8.51,0,0,1,721.78-1505Zm18.55,96a14.53,14.53,0,0,1-1.6,4.71,16.34,16.34,0,0,1-3.65.35,32.61,32.61,0,0,1-5.27-.38c-.72-.11-1.41-.25-2.08-.42a12.69,12.69,0,0,1-1.89-.63,24,24,0,0,1,.93-3.39,28,28,0,0,1,1.38-3.14c1.24.31,2.53.6,3.89.86.53.09,1.05.16,1.57.22s1,.09,1.54.11a24.84,24.84,0,0,0-1.24-4,26.38,26.38,0,0,0-1.82-3.69L738-1422a28.81,28.81,0,0,1,2.11,6.28A19.22,19.22,0,0,1,740.33-1409Zm22.88-190.47-1.35.86c-.51.31-1,.61-1.55.91l-1.75.93-8,3.79-9.25,3.7-9.37,3.29-8.43,2.54,3.07-3.83,1.59-1.8,1.63-1.7,1.66-1.63c.57-.51,1.14-1,1.7-1.54l1.74-1.45,1.78-1.37,3.55-2.48,3.49-2.11c.57-.31,1.14-.62,1.72-.92l1.7-.83,1.68-.74,1.67-.64,1.29-.44,1.27-.37,1.24-.31,1.22-.23,1.19-.17,1.17-.1,1.14,0,1.11,0,.54,0,.53.06.51.08.49.1.48.11.46.14.45.15.42.17.42.19.27.14.12.06.38.23.25.16.11.08.35.26.23.19.1.09.31.3.21.21.09.1,0,.17-.06.14c0,.06,0,.12-.08.17l-.09.18s-.07.11-.11.17l-.12.18-.13.18-.17.21-.22.25-.11.12-.38.38-.44.39-.49.4Zm89,130.54a12.08,12.08,0,0,1-4.06,2.92,6.63,6.63,0,0,1-3.08.49,6.21,6.21,0,0,1-2.84-1l-.28.11a5.75,5.75,0,0,1-1.19,2.58,5.87,5.87,0,0,1-2.36,1.77l0,0a17.68,17.68,0,0,1,.92,4.26,11,11,0,0,1-.23,3.56,45,45,0,0,1-4.21,3,26.9,26.9,0,0,1-3.77,1.92c-3.29,1.3-6,1.58-8.09.83a7.72,7.72,0,0,1-4.61-4.79,19.16,19.16,0,0,1-1.13-4.41,35,35,0,0,1-.32-5.51l5.36-.37a28.29,28.29,0,0,0,.31,3.42,11.12,11.12,0,0,0,.65,2.51,3.69,3.69,0,0,0,2.08,2.31,4.7,4.7,0,0,0,3.35-.34,15,15,0,0,0,2.23-1.16c.81-.49,1.68-1.08,2.62-1.76a40,40,0,0,0-2.82-4.57,35.91,35.91,0,0,0-2.73-3.43l4.13-4.11.34,0a4.84,4.84,0,0,0,2,2.09,2.41,2.41,0,0,0,2,.12,3.07,3.07,0,0,0,1.65-1.84,6.43,6.43,0,0,0,.2-3.48l3-.7c.45,1.43,1,2.3,1.63,2.61a2.21,2.21,0,0,0,2,0,6.35,6.35,0,0,0,.86-.44c.28-.18.55-.36.81-.55-.52-.73-1-1.4-1.56-2l-1.38-1.61,5-3.5A14.67,14.67,0,0,1,850-1478a16.51,16.51,0,0,1,1.12,2.27,17.62,17.62,0,0,1,1,3.62A9.42,9.42,0,0,1,852.19-1468.89Zm-19.93-11.54a3.3,3.3,0,0,1,1.92,0,5.08,5.08,0,0,1,2,.76,8.49,8.49,0,0,1,.37-1.66,2.15,2.15,0,0,1,.67-1.11,3.58,3.58,0,0,1,2.07.07,3.79,3.79,0,0,1,1.9.84,3.82,3.82,0,0,1-.09,2,7.47,7.47,0,0,1-.77,2.07,9.38,9.38,0,0,1-2-.27,11.58,11.58,0,0,1-2-.6,9.53,9.53,0,0,1-.39,1.64,6.49,6.49,0,0,1-.53,1.22,12.72,12.72,0,0,1-2.12-.32,10.18,10.18,0,0,1-2.08-.67,8.28,8.28,0,0,1,.22-2.16A3.23,3.23,0,0,1,832.26-1480.43Zm-.84-1.69a6.88,6.88,0,0,1,.18-2.06,2.91,2.91,0,0,1,.86-1.8,3.61,3.61,0,0,1,2,.07,3.73,3.73,0,0,1,1.8.76,3.51,3.51,0,0,1-.08,2,7.8,7.8,0,0,1-.72,2,11.52,11.52,0,0,1-2-.32A10.46,10.46,0,0,1,831.42-1482.12Zm30.8-88c0,.05-.07.11-.11.17l-.12.17-.13.16-.15.17-.16.17-.18.17-.19.17-.33.26-.13.1-.48.34-.55.33-.43.24-.17.1-1.39.67-1.61.67-1.84.68-2.08.67-9.4,2.53-10.68,2.21-10.73,1.74-9.58,1.12,4.05-3.54,2.06-1.63L820-1564l2.11-1.43,2.13-1.34,2.15-1.23,2.18-1.14,4.31-2,4.17-1.61,2-.66,2-.56,2-.47,1.92-.38,1.48-.22,1.43-.16,1.4-.08,1.35,0,1.32,0,1.27.11,1.24.19,1.19.25.58.15.55.17.54.18.51.2.35.16.14.06.47.23.32.18.13.07.31.19.12.08.29.2.12.08.39.3.36.31.35.33c.11.12.21.24.32.35l.22.26.08.11c.1.12.19.25.28.38a2.75,2.75,0,0,1,.19.28l.07.11Zm88.24-23.65-3,0-2.76-.1-2.55-.22-1.24-.23-.57-.13-.55-.15-.51-.17-.48-.18-.45-.19-.42-.21-.26-.15-.12-.07-.19-.12-.14-.1-.17-.13-.16-.13-.18-.15-.12-.11-.16-.16-.1-.12-.14-.17-.1-.13-.1-.15-.1-.16-.09-.16-.09-.17s0-.11-.07-.17,0-.11-.07-.17l-.05-.17a1.54,1.54,0,0,1,0-.17c0-.06,0-.12-.05-.18l0-.18,0-.18c0-.06,0-.13,0-.19v-.56c0-.07,0-.13,0-.2s0-.13,0-.2l0-.19,0-.21c0-.06,0-.13,0-.2s.09-.3.13-.45.07-.19.11-.29l0-.13.12-.3.06-.13.15-.31a.61.61,0,0,0,.07-.14l.18-.31a1,1,0,0,1,.08-.14l.19-.32.09-.14.32-.48.24-.32.11-.16.71,0,.83.07,2,.24,5.59,1,6.41,1.44,3.07.86,3,1,1.38.5,1.21.52.54.26.5.26.46.27.28.18.13.09.37.27.33.27.12.11.16.16.13.14.1.12.1.14.16.23c.06.14.13.28.2.42l-5.33,1.16-6.22.53Zm20.43,167.22a3.8,3.8,0,0,1-2.6,1.92,8.75,8.75,0,0,1-3.92-.11,18,18,0,0,1-4.37-1.67,18.45,18.45,0,0,1-3.76-2.63,10.76,10.76,0,0,1-2.5-3.18,34.41,34.41,0,0,1,1.14-4.37,24.56,24.56,0,0,1,1.59-3.76,10.38,10.38,0,0,1,4.5-4.79c1.79-.86,3.86-.7,6.2.5a16.5,16.5,0,0,1,3.3,2.34,29.18,29.18,0,0,1,3.35,3.57l-3.43,3.31a29,29,0,0,0-2.15-2.15,10.87,10.87,0,0,0-1.89-1.35,3,3,0,0,0-2.87-.27,5.21,5.21,0,0,0-2.09,2.38,20.93,20.93,0,0,0-.91,2c-.3.77-.6,1.6-.91,2.5l.55.31a4.53,4.53,0,0,0,.54.27,8,8,0,0,1,2.8-3.15,3.72,3.72,0,0,1,3.79,0A8.07,8.07,0,0,1,971-1431,5.14,5.14,0,0,1,970.89-1426.56Zm6.7,1.1a4.23,4.23,0,0,1-1.76.59,7.73,7.73,0,0,1,.72,1.36,1.92,1.92,0,0,1,.18,1.13,3.45,3.45,0,0,1-1.46,1.12,3.45,3.45,0,0,1-1.75.51,3.29,3.29,0,0,1-1.1-1.43,7.15,7.15,0,0,1-.68-1.85,11.55,11.55,0,0,1,1.5-.94,8.76,8.76,0,0,1,1.73-.73,8.52,8.52,0,0,1-.68-1.35,5.35,5.35,0,0,1-.34-1.14,12.94,12.94,0,0,1,1.62-1,8.7,8.7,0,0,1,1.78-.74,7.44,7.44,0,0,1,1.09,1.59,2.92,2.92,0,0,1,.5,1.78A3.27,3.27,0,0,1,977.59-1425.46Zm61.29-56.32c.27-.5.53-1,.77-1.52s.55-1.21.78-1.81.42-1.14.57-1.65l2.4.81a15.47,15.47,0,0,1-.45,1.93c-.19.63-.39,1.23-.61,1.79a24.39,24.39,0,0,1-1.1,2.45c-.33.64-.54,1-.61,1.13a5.79,5.79,0,0,1-.68-.32c-.24-.14-.49-.29-.73-.45s-.48-.34-.69-.5a3.75,3.75,0,0,1-.49-.48Q1038.47-1481,1038.88-1481.78Zm11.72,20.66a14.42,14.42,0,0,1-.53,2.13,10.73,10.73,0,0,1-3.5,5.34,5.79,5.79,0,0,1-5.51.91,8.64,8.64,0,0,1-3.7-2.38,10.73,10.73,0,0,1-2.37-4.5c-.13-.52-.25-1-.36-1.57s-.2-1.06-.27-1.6c-.29.38-.57.77-.85,1.18s-.55.82-.81,1.25a10.55,10.55,0,0,0-.74,1.46l-.69,1.78-.13.07a18.51,18.51,0,0,1-2-1,9.74,9.74,0,0,1-1.71-1.25,6.4,6.4,0,0,1,1.3-3,23.27,23.27,0,0,1,2.38-2.63,30.09,30.09,0,0,0,2.09-2.17,7,7,0,0,0,1.38-2.29,6.75,6.75,0,0,1,.92.35c.36.17.75.36,1.16.59s.9.46,1.3.69a12.4,12.4,0,0,1,1.17.77,18.13,18.13,0,0,0-.47,3.83,12.63,12.63,0,0,0,.49,4,3.4,3.4,0,0,0,2,2.39,2.44,2.44,0,0,0,2.63-.63,8.36,8.36,0,0,0,1.77-3.3c.17-.55.33-1.12.47-1.72s.26-1.21.36-1.84a10.86,10.86,0,0,1,1.21.14c.56.09,1.15.2,1.75.32a12.13,12.13,0,0,1,1.47.4A15.85,15.85,0,0,1,1050.6-1461.12Zm9.37-46.07a8.41,8.41,0,0,1-5.55.47,4.44,4.44,0,0,1-3.07-2.14,5.07,5.07,0,0,1-.23-3.6,11.27,11.27,0,0,1,1-2.45,18.71,18.71,0,0,1,1.62-2.56l2.52,1.56a14.4,14.4,0,0,0-1,1.6,6.88,6.88,0,0,0-.56,1.46,2.6,2.6,0,0,0,.06,1.76,1.85,1.85,0,0,0,1.33,1,4.91,4.91,0,0,0,1.54.07,6.75,6.75,0,0,0,2-.52,10.64,10.64,0,0,1-1.67-1.65,1.1,1.1,0,0,1-.27-1,4.27,4.27,0,0,1,1.4-2,8.61,8.61,0,0,1,2.81-1.62,8.77,8.77,0,0,1,3.61-.52,9.88,9.88,0,0,1-.28,1.71,10,10,0,0,1-.51,1.71,19.43,19.43,0,0,0-2.15.07,5.27,5.27,0,0,0-1.42.29,9.12,9.12,0,0,1,1.48,1.42,1.81,1.81,0,0,1,.5,1.46A5.5,5.5,0,0,1,1060-1507.19Zm8.18,38.25a4.3,4.3,0,0,0,.87.67c.71-.53,1.44-1,2.18-1.48a15,15,0,0,1,2.23-1.12l.25.18a11,11,0,0,1,.36,2.23,10.53,10.53,0,0,1,0,2,32.67,32.67,0,0,0-3.6,2.11c-1.31.87-2.47,1.7-3.47,2.49a4.88,4.88,0,0,1-1.11-1.37,4.74,4.74,0,0,1-.7-1.65c.23-.25.48-.52.77-.81s.62-.6,1-.92a4.77,4.77,0,0,1-1.68-1.16,4,4,0,0,1-.84-1.49,5.05,5.05,0,0,1,.86-4,3.61,3.61,0,0,1,3.19-1.81,2.38,2.38,0,0,1,1.89,1.21,3.37,3.37,0,0,1,.41,2.26,4.64,4.64,0,0,0-2.41.66,1.18,1.18,0,0,0-.64,1.33A2.1,2.1,0,0,0,1068.15-1468.94Zm10.59,13a65.07,65.07,0,0,1-14.08,6,39.42,39.42,0,0,1-1.32-3.93,32.91,32.91,0,0,1-.86-4.06q2.16-.77,5.24-2t6.25-2.85a53.44,53.44,0,0,0,5.64-3.22q-1.81-3.11-4.13-6.61t-4.81-7.26l6.11-3.7c1.56,2.51,3,4.86,4.23,7s2.4,4.2,3.4,6.1a20.09,20.09,0,0,1,1.89,4.16,14.16,14.16,0,0,1,.68,4.52A41.69,41.69,0,0,1,1078.74-1455.95Zm11-127.22q-2.19,3.35-4.39,6.69l-5.7.51-8.58.26-8.56-.12-7.59-.45,3.63-2.19,1.82-1,1.82-.9,1.83-.82,1.84-.74,1.84-.66,1.84-.59,3.61-.95,3.45-.67,1.67-.24,1.62-.16,1.58-.1,1.55,0,1.17,0,1.14.08,1.09.12,1.06.17,1,.22,1,.26.94.32.89.35.42.2.26.13.15.08.39.21.37.23.22.15.13.08.21.16.13.09.31.25.19.17.11.1.27.27.17.18.09.11.24.29.23.31.12.2a1,1,0,0,1,.08.11l.12.21.06.11c0,.07.07.15.11.22l.06.12a1.54,1.54,0,0,1,.08.19,1.17,1.17,0,0,0,.05.11Zm98.48,145.25a3.35,3.35,0,0,1-2.32.47,4.72,4.72,0,0,0-.74-2.46,1.28,1.28,0,0,0-1.38-.67,1.73,1.73,0,0,0-.65.44,4,4,0,0,0-.65.93,23.91,23.91,0,0,1,1.54,2.23,18.68,18.68,0,0,1,1.21,2.28l-.17.27a10.72,10.72,0,0,1-2.3.45,9.24,9.24,0,0,1-2.09.07,37.22,37.22,0,0,0-2.28-3.71c-.94-1.35-1.82-2.53-2.65-3.56a4.85,4.85,0,0,1,1.41-1.18,4.65,4.65,0,0,1,1.72-.74c.27.21.56.47.87.76s.63.62,1,1a4.74,4.74,0,0,1,1.14-1.73,3.92,3.92,0,0,1,1.53-.89,4.83,4.83,0,0,1,2.83.16,5.76,5.76,0,0,1,2.37,1.58,3.16,3.16,0,0,1,.87,2.35A2.46,2.46,0,0,1,1188.25-1437.92Zm55.8-73.74a4.11,4.11,0,0,1,1.94-1.8,4.28,4.28,0,0,1,2.45,1,4.83,4.83,0,0,1,1.82,1.91,4.29,4.29,0,0,1-1,2.38,9,9,0,0,1-1.92,2.12,12.19,12.19,0,0,1-2.4-1.38,10.68,10.68,0,0,1-2.1-1.8A8.9,8.9,0,0,1,1244.05-1511.66Zm12.34,15.09c-.07.64-.18,1.34-.31,2.08s-.27,1.61-.43,2.33a18.86,18.86,0,0,1-.59,2.17,29.08,29.08,0,0,0-6.09,1.2,20.2,20.2,0,0,0-5.92,2.75,5.47,5.47,0,0,0-2.66,4.26,3.93,3.93,0,0,0,2.28,3.71,13.24,13.24,0,0,0,5.92,1.06c.92,0,1.88,0,2.86-.13s2-.2,3-.36c.11.38.23,1,.38,1.92s.27,1.85.38,2.84a19.25,19.25,0,0,1,.12,2.44,25.11,25.11,0,0,1-3.66.77,27.08,27.08,0,0,1-3.53.24,17.2,17.2,0,0,1-9.9-2.7,9.37,9.37,0,0,1-4.13-8,13.91,13.91,0,0,1,1.81-6.85,17,17,0,0,1,5.7-5.86q1.1-.71,2.22-1.35c.76-.43,1.53-.83,2.32-1.21-.73-.25-1.47-.48-2.23-.71s-1.53-.44-2.31-.62a16.42,16.42,0,0,0-2.6-.4c-.85-.06-1.87-.12-3.06-.17l-.18-.18a29.9,29.9,0,0,1,.62-3.51,16.44,16.44,0,0,1,1-3.24,10.21,10.21,0,0,1,5.26.49,35.32,35.32,0,0,1,5.21,2.34q2.22,1.2,4.36,2.12a11.29,11.29,0,0,0,4.19,1A10.73,10.73,0,0,1,1256.39-1496.57Zm49.45-107.83-4.47.39-2.3.1-2.14,0-2-.07-1.83-.16-.89-.16-.42-.1-.39-.11-.2-.06-.16-.06-.35-.13-.32-.14-.3-.15-.28-.16-.14-.09-.22-.16-1-3.47,0-.13c0-.1.07-.2.11-.3s0-.12.07-.17l.06-.14.09-.18c0-.05,0-.09.07-.14l.1-.18.08-.14.21-.34.23-.33.14-.2.11-.15.5,0,.6,0,1.47.18,4,.67,4.6,1,2.21.61,2.14.69,1,.36.87.37.22.1.17.09.36.19.18.1.14.09.3.19.15.11.12.08.23.2.16.15.45.6Zm50.85,105.13a9.27,9.27,0,0,1-1.19-2.1,3.69,3.69,0,0,1-.42-2.25,3.93,3.93,0,0,1,1.8-1.19,5.16,5.16,0,0,1,2.24-.53,10.53,10.53,0,0,1-.75-1.78,2.33,2.33,0,0,1-.1-1.42,4.27,4.27,0,0,1,1.93-1.22,4.31,4.31,0,0,1,2.23-.46,4,4,0,0,1,1.21,1.9,8.69,8.69,0,0,1,.65,2.38,14.09,14.09,0,0,1-2,1,10.48,10.48,0,0,1-2.22.72,10,10,0,0,1,.69,1.75,6.37,6.37,0,0,1,.31,1.44,14.66,14.66,0,0,1-2.13,1A10.34,10.34,0,0,1,1356.69-1499.27Zm27.17,10.77a31,31,0,0,1-2.39,4.49,12.84,12.84,0,0,1-6.1,5.45q-3.48,1.33-7.65-1.28a22,22,0,0,1-3.85-3.27,36.32,36.32,0,0,1-3.76-4.79l4.62-3.74a34.83,34.83,0,0,0,2.44,2.89,12.76,12.76,0,0,0,2.19,1.89,3.8,3.8,0,0,0,3.54.65,6.53,6.53,0,0,0,2.85-2.73,24.06,24.06,0,0,0,1.35-2.43c.46-.92.92-1.92,1.41-3l-.65-.44c-.22-.15-.43-.28-.64-.4a10,10,0,0,1-3.83,3.61,4.61,4.61,0,0,1-4.71-.37,10.17,10.17,0,0,1-4.18-5.2,6.38,6.38,0,0,1,.57-5.54,4.75,4.75,0,0,1,3.43-2.1,10.87,10.87,0,0,1,4.86.56,22.2,22.2,0,0,1,5.25,2.54A23.48,23.48,0,0,1,1383-1498a13.67,13.67,0,0,1,2.75,4.22A43.54,43.54,0,0,1,1383.86-1488.5Zm.05-73.79-4.36,0-4.53-.21-4.53-.49-2.34-.34-2.05-.38-1.76-.42-.78-.22-.7-.23-.63-.24-.57-.24-.51-.25-.2-.11-.21-.13-.2-.13-.19-.13-.17-.14-.17-.15-.13-.14-.29-.72v-.12l0-.29,0-.12c0-.09,0-.18,0-.28l0-.11a2.68,2.68,0,0,0,.07-.27l0-.11.1-.31.07-.21.08-.17.08-.17a.89.89,0,0,1,.08-.17l.09-.17.09-.16.1-.15.11-.16.11-.15.12-.14.23-.27.28-.27.25-.22.09-.07.32-.24.34-.23.37-.21.38-.2.28-.12.11-.06.41-.16.41-.15.42-.13.44-.12.44-.1.45-.08.47-.07.47,0,1-.06,1,0,1.06.08,1.23.2,1.23.27,1.22.33,1.22.39,1.22.46,1.21.52,1.22.58,1.2.65,1.19.7,1.13.75,1.09.8,1,.85,1,.89.94.94.9,1,.85,1Zm74.25,4.85a3.31,3.31,0,0,1-1.24,1.6,5.4,5.4,0,0,1-2.09.8,16.94,16.94,0,0,1-3.2.25l-1.21,0-1.35-.06c.06,1.52.18,3,.37,4.36a31,31,0,0,0,.66,3.53,7.15,7.15,0,0,1-2.12.6,18.54,18.54,0,0,1-2.63.22l-.15-.12a37.23,37.23,0,0,1-.57-3.69,37.19,37.19,0,0,1-.21-4,24.51,24.51,0,0,1,.12-2.76,6.22,6.22,0,0,1,1.06-2.2,4,4,0,0,1,1.76-1.5l.61,0,.59,0a4.89,4.89,0,0,1,0-.54,5.69,5.69,0,0,1,.59-2.42,5.52,5.52,0,0,1,1.8-2.09,5.37,5.37,0,0,1,3-.9,4,4,0,0,1,3.45,1.75,8,8,0,0,1,1.12,4.48A7.42,7.42,0,0,1,1458.16-1557.44Zm16.87-63.33-.12.14-.15.15-.15.13-.14.11-.17.12-.18.12-.2.13c-.16.08-.32.16-.47.25l-.49.22-.54.22-.6.21-1.34.38-1.55.35-1.76.31-2,.27-8.82.78-9.91.3-9.89-.13-8.75-.52,4.18-2.53,2.1-1.13,2.11-1,2.11-1,2.12-.85,2.12-.77,2.13-.67,4.17-1.1,4-.78,1.92-.27,1.88-.2,1.83-.11,1.78,0,1.36,0,1.31.09,1.26.14,1.22.2,1.17.25,1.12.31,1.08.36,1,.41.49.23.47.24.45.25c.15.08.29.17.43.26l.41.27.38.28.37.3.34.3.32.32.3.33.27.34c.09.11.18.23.26.35s.11.16.16.25a1,1,0,0,1,.08.11l.21.38c.06.12.13.25.19.38s.11.27.17.4Zm32.82,42.7-4.15,0-4.29-.2-4.3-.46-2.21-.32-1.94-.36-1.66-.39-.73-.2-.67-.22-.6-.22-.54-.23-.48-.24-.22-.12-.2-.12-.16-.1-.17-.12-.16-.13-.14-.13-.28-.31c0-.17-.09-.33-.14-.5a.49.49,0,0,1,0-.12l0-.27s0-.07,0-.11,0-.17,0-.26a.43.43,0,0,0,0-.11c0-.12.06-.24.1-.36l.09-.29.07-.19c0-.06,0-.11.07-.17s0-.1.07-.16a1.09,1.09,0,0,0,.08-.15l.09-.16.1-.17.08-.13.1-.14.12-.16.1-.12.26-.28.26-.26.28-.23.3-.23.33-.21.24-.14.1-.06.37-.19.37-.17.26-.1.12-.05.39-.14.4-.12.28-.08.13,0,.42-.09.29-.06.14,0,.43-.06.45,0,.92,0h1l1,.08,1.17.19,1.16.25,1.16.31,1.16.37,1.15.42,1.16.49,1.15.55,1.15.6,1.12.66,1.08.7,1,.75,1,.79.94.84.9.89c.29.3.57.61.86.92l.81,1Zm19.36,23.58a7.7,7.7,0,0,1,.39,1.44,1.8,1.8,0,0,1-.08,1.1,3.2,3.2,0,0,1-1.62.74,3.37,3.37,0,0,1-1.76.11,3.18,3.18,0,0,1-.72-1.59,6.89,6.89,0,0,1-.24-1.9,10.16,10.16,0,0,1,1.61-.55,8.72,8.72,0,0,1,1.79-.32,9.08,9.08,0,0,1-.35-1.41,5.06,5.06,0,0,1-.08-1.14,13.18,13.18,0,0,1,1.75-.58,8.35,8.35,0,0,1,1.84-.3,7,7,0,0,1,.68,1.74,2.83,2.83,0,0,1,.08,1.78,3,3,0,0,1-1.51.72A4.08,4.08,0,0,1,1527.21-1554.49Zm17.11,11a20.17,20.17,0,0,0-1.51-2.47,10.44,10.44,0,0,0-1.63-1.81,4,4,0,0,0-2.46-1.16,2.87,2.87,0,0,0-2.29,1.15,7.25,7.25,0,0,0-1.18,2.09,10.31,10.31,0,0,0-.68,3.1,17.37,17.37,0,0,1,3.45-1.15,1.73,1.73,0,0,1,1.56.33,6.75,6.75,0,0,1,1.84,3.38,13.32,13.32,0,0,1,.27,5,13.93,13.93,0,0,1-1.83,5.34,15,15,0,0,1-2.17-1.58,15.78,15.78,0,0,1-2-1.91,32.57,32.57,0,0,0,1.42-3,9.06,9.06,0,0,0,.6-2.18,13.18,13.18,0,0,1-3,1,2.77,2.77,0,0,1-2.37-.34,8.5,8.5,0,0,1-2.68-6.8,13,13,0,0,1,3.26-8q2.47-2.77,5.12-2.74a7.84,7.84,0,0,1,5.13,2.23,17.67,17.67,0,0,1,2.71,3,29.27,29.27,0,0,1,2.38,4Zm.1-79.6a6.39,6.39,0,0,1,0-1.41,13.26,13.26,0,0,1,2.2-.56,11,11,0,0,1,2.3-.2,8.17,8.17,0,0,1,.69,2.2,3.51,3.51,0,0,1-.06,2.19,3.51,3.51,0,0,1-1.89.77,5.29,5.29,0,0,1-2.23,0,8.5,8.5,0,0,1,.35,1.78,2.24,2.24,0,0,1-.2,1.36,3.72,3.72,0,0,1-2,.79,4.06,4.06,0,0,1-2.21,0,3.9,3.9,0,0,1-.76-2,7.81,7.81,0,0,1-.11-2.33,9.92,9.92,0,0,1,2-.55,13.42,13.42,0,0,1,2.23-.25A8.52,8.52,0,0,1,1544.42-1623Zm7.21,7.68a4,4,0,0,1-1.94.76,3.93,3.93,0,0,1-2,0,3.75,3.75,0,0,1-.73-1.93,8.14,8.14,0,0,1-.13-2.25,12.5,12.5,0,0,1,2.13-.54,11.41,11.41,0,0,1,2.18-.2,7.45,7.45,0,0,1,.65,2.06A3.09,3.09,0,0,1,1551.63-1615.36Zm-3.17-12c-.18-.41-.45-1-.79-1.73s-.75-1.49-1.23-2.33c-1.57,1.28-3.14,2.7-4.68,4.17s-3,2.92-4.28,4.37c-.54.6-1,1.18-1.5,1.75s-.87,1.12-1.23,1.64c.85.46,1.65.86,2.4,1.19l1.74.75-3.14,5.66a17.65,17.65,0,0,1-2.2-1.29,20.3,20.3,0,0,1-2.21-1.72,16.93,16.93,0,0,1-2.4-2.66,12,12,0,0,1-1.67-3.18,24.62,24.62,0,0,1,2.24-3.77,52.07,52.07,0,0,1,3.91-4.87c1.2-1.34,2.53-2.68,4-4a35.92,35.92,0,0,1,3.91-3.2,24.6,24.6,0,0,1,3.73-2.31,11.94,11.94,0,0,1,3.21,1.61,17.5,17.5,0,0,1,2.7,2.37,20.65,20.65,0,0,1,1.76,2.17,19.34,19.34,0,0,1,1.33,2.18Zm18-.8-.4-.75c-.12-.29-.25-.57-.38-.86s-.25-.63-.37-1l-.36-1.06c-.22-.8-.45-1.6-.67-2.41l-.63-2.81c-.08-.49-.17-1-.25-1.46s-.11-.91-.17-1.36,0-.85-.08-1.27v-.6a1.48,1.48,0,0,1,0-.21c0-.12,0-.24,0-.36s0-.36,0-.55l.06-.52,0-.18.06-.32c0-.16.07-.32.11-.48l0-.16.09-.29.05-.15.1-.27c.06-.14.12-.27.17-.41a1.14,1.14,0,0,0,.1-.19,2.39,2.39,0,0,1,.13-.21,1.59,1.59,0,0,0,.13-.13l.12-.1.31-.25.34-.24.37-.24.41-.23.16-.08.28-.14.47-.21.5-.21,1.11-.39,1.23-.37,1.37-.33,1.49-.31,1.5-.26,1.39-.19,1.28-.11,1.16,0h.53l.51,0,.48,0,.46.06.42.07.39.1.4.12.14.05.17.07.15.16.1.11c.08.11.17.21.25.31l.09.13.15.21c.07.13.15.25.23.37l.08.15.14.26c.07.14.14.29.22.43s.13.32.2.47,0,.13.08.19l.12.32c.13.36.25.73.38,1.1s.22.82.34,1.23.2.91.31,1.36.18,1,.28,1.49c.14,1,.28,2,.43,3s.15,1.72.23,2.59l0,1.16v1.08c0,.33,0,.66,0,1s-.07.6-.1.9l-1.85.64-2.14.6-2.44.55-2.72.52-2.74.42-2.47.29-2.2.15-1,0Zm6.72,67a8.66,8.66,0,0,1-1.68,1,9.32,9.32,0,0,1,.93,1.28,5.17,5.17,0,0,1,.54,1.12,12,12,0,0,1-1.52,1.29,8.87,8.87,0,0,1-1.73,1.06,7.88,7.88,0,0,1-1.4-1.48,3.16,3.16,0,0,1-.81-1.76,3.4,3.4,0,0,1,1.23-1.34,4.57,4.57,0,0,1,1.73-.89,8.44,8.44,0,0,1-1-1.3,2,2,0,0,1-.38-1.15,3.65,3.65,0,0,1,1.34-1.41,3.64,3.64,0,0,1,1.74-.83,3.36,3.36,0,0,1,1.38,1.31,7.9,7.9,0,0,1,1,1.82A12.31,12.31,0,0,1,1573.18-1561.22Zm17.44,2.29a16.08,16.08,0,0,1-.76,3.51,5.32,5.32,0,0,1-2.57,3.27,4.64,4.64,0,0,1-3.59.08,8.16,8.16,0,0,1-2.48-1.43,11.49,11.49,0,0,1-2.15-2.38c-.68-.18-1.4-.41-2.15-.68a15,15,0,0,1-2.11-.94l-.07-.2a13,13,0,0,1,1.57-3,9.21,9.21,0,0,1,2.41-2.37,8.13,8.13,0,0,1,3.36-1.42,8,8,0,0,1,4,.38,12.25,12.25,0,0,1,2.36,1.1,7.78,7.78,0,0,1,2.13,1.8A7.4,7.4,0,0,1,1590.62-1558.93Zm21.63-67-.06,1-.12.94-.83.32-.9.31-2,.6-2.31.57-2.61.53-2.66.45-2.48.33-2.31.21-2.12.08.45,1.85.36,1.88c.1.63.19,1.27.28,1.91s.13,1.29.2,1.93.07,1.23.1,1.85l0,1.62c0,.46,0,.93,0,1.4l0,.22,0,.39,0,.21c0,.12,0,.24,0,.36l-1.88.64-2.2.62-2.52.59-2.84.55-2.87.46-2.6.3-2.34.14h-1.07l-1,0-.41-.82-.39-.92-.39-1c-.12-.38-.25-.75-.37-1.13l-.72-2.57c-.22-1-.45-2-.67-3-.09-.51-.19-1-.28-1.54s-.13-1-.19-1.44-.07-.89-.1-1.33l0-.63c0-.2,0-.4,0-.6s0-.39,0-.58a1.36,1.36,0,0,0,0-.2l0-.35c0-.17,0-.35.08-.52l.09-.5.12-.47a1.09,1.09,0,0,0,0-.17l.09-.28.18-.46.09-.2.08-.16.15-.15.11-.11.14-.13.15-.13.32-.25.36-.24.39-.23.42-.22.46-.22.49-.21,1.08-.4,1.21-.36,1.35-.33,1.48-.31,2.91-.44,1.33-.13,1.24-.06h1.14l1.07.07.49.06.48.07.45.09.44.1c-.18-.62-.35-1.25-.53-1.88l-.42-1.91c-.1-.63-.21-1.27-.32-1.91l-.22-1.94-.06-.94c0-.3,0-.59,0-.88l0-.82c0-.13,0-.26,0-.39s0-.25,0-.38l.06-.35,0-.13,0-.22,0-.12.06-.2,0-.12.06-.2c0-.1.07-.2.11-.29l0-.11c0-.07.07-.15.1-.23l.11-.21.14-.26.16-.16.12-.11.19-.16.13-.11.13-.1.22-.16.15-.09.24-.16.43-.24.46-.24.49-.22.53-.22,1.17-.4,1.3-.37,1.45-.33,1.59-.3,1.61-.25,1.48-.16,1.36-.09h1.25l.58,0,.55,0,.51.06.49.08.46.1.43.12.4.14.23.09.17.09.11.12.13.15.27.33.25.36.24.39.24.43c.07.15.15.3.22.46l.22.49.08.2c0,.11.08.22.13.33l.39,1.16c.12.42.24.86.35,1.28s.22,1,.32,1.43.19,1,.29,1.55c.14,1,.29,2,.43,3.06s.15,1.8.22,2.7l0,1.21C1612.26-1626.68,1612.26-1626.31,1612.25-1625.93Zm63.2-44-.13.13-.16.14-.13.11-.16.12-.18.11-.19.12-.45.24-.47.22-.52.2-.56.2-1.29.37-1.48.33-1.68.3-1.88.26-8.42.75-9.47.28-9.45-.13-8.36-.49,4-2.42,2-1.08,2-1,2-.91,2-.82,2-.73,2-.64,4-1,3.8-.75,1.84-.26,1.79-.18,1.75-.11,1.7,0,1.3,0,1.25.09,1.21.13,1.16.19,1.12.24,1.07.29,1,.35,1,.39.48.22.45.23.42.23.41.25.39.26.25.18.12.09.35.28.32.3.31.3.29.31.26.33.25.33.22.35.2.36c0,.08.09.16.13.24l.06.13.12.43Zm41.68,50.81a14.8,14.8,0,0,1-2.13.18c-.63,0-1.24,0-1.81.1a4.18,4.18,0,0,0-1.55.44,3.75,3.75,0,0,1-.26-.53c-.1-.23-.19-.47-.28-.74s-.2-.57-.28-.84a7.37,7.37,0,0,1-.2-.81,10.83,10.83,0,0,0,1.78-1.5,7.67,7.67,0,0,0,1.44-2,2,2,0,0,0,.1-1.87,1.46,1.46,0,0,0-1.42-.8,4.87,4.87,0,0,0-2.13.73,10.31,10.31,0,0,0-.92.56c-.3.2-.61.42-.91.66a5,5,0,0,1-.48-.56c-.21-.27-.42-.56-.64-.86a8.43,8.43,0,0,1-.48-.78,10.12,10.12,0,0,1,1.06-.92,9.82,9.82,0,0,1,1.11-.71,6.45,6.45,0,0,1,3.74-.92,3.5,3.5,0,0,1,2.79,1.87,5.06,5.06,0,0,1,.65,2.57,6.33,6.33,0,0,1-.8,3c-.15.28-.32.56-.48.84s-.35.55-.54.82l.86-.18c.29-.06.58-.13.86-.21a7.8,7.8,0,0,0,.93-.34l1-.5.09,0a11.18,11.18,0,0,1,.44,1.26,6.23,6.23,0,0,1,.24,1.25A3.77,3.77,0,0,1,1717.13-1619.11Zm175.43,13.94c.59-.44,1.15-.9,1.71-1.39s1.3-1.15,1.88-1.73,1.1-1.13,1.55-1.65l2.42,2.22a23,23,0,0,1-1.56,2c-.55.65-1.11,1.24-1.66,1.79a34.55,34.55,0,0,1-2.59,2.33c-.74.58-1.18.92-1.33,1a5.39,5.39,0,0,1-.63-.74,10.42,10.42,0,0,1-.63-.91c-.21-.33-.39-.65-.55-1a4.52,4.52,0,0,1-.33-.82C1891.41-1604.33,1892-1604.73,1892.56-1605.17Z"/><path class="cls-3" d="M1.22,52.81V-642.14C16.39-652.43,28.45-668.82,40.45-687c18.93-28.69,50.9-31.15,71.94-5.44l18.16,22.19h0l93.56,145.43,57.56,84.38c13.82,20.25,34.86,27.48,53.88,18.51l17.17-61.23c15.33-54.65,68.58-62.88,92.19-14.23l43,88.61c14.71,5.71,30.49,2,43.06-10L635.82-519.33c10.66-10.22,23.36-14.21,35.58-12.1,20,3.46,40.07-6,53.51-26.93L734-572.51c32.68-50.85,91.54-42.89,116.53,15.77l.42,1c12.77,30,38,46.41,62.4,38.46,31.6-10.28,66.19,5.44,86.84,44.44h0c26.32,49.73,82.62,32.81,91.77-27.59v-.12c6.55-43.21,39.5-67.9,69.11-51.78l29.44,16c14.17,7.71,30.07,6.32,43.42-3.81l55.47-42c25.42-19.27,57.28-5.61,70.45,30.21l25.34,68.91c28.81,78.4,106.15,89.84,146.22,21.63l51.65-87.92c22.83-38.86,66.65-33.79,84.53,9.78l12.86,86.44c7.22,48.51,55.87,53,67.61,6.19L1768-536c13.28-59.32,70.54-69.77,94.42-17.24l12.75,28.08c9.24,20.33,31.88,11.32,32-12.72h0V52.81Z"/><path class="cls-4" d="M1893.63-427.51l-139.94,124.4c-23.13,20.56-57.1,9.07-66.69-22.56l-38.49-126.9c-12.69-41.83-63.63-44.37-79.47-4L1545-395.17c-14.37,36.66-59.18,38.95-76.36,3.9h0c-18.23-37.17-66.49-31.74-78,8.79l-29.45,103.56c-11.61,40.82-60.36,45.94-78.28,8.22l-54.73-115.15c-13.1-27.57-45.23-34.1-65.85-13.38L1105-341.69c-18.85,18.94-47.86,15.36-62.73-7.75l-59.24-92.08C965.84-468.3,930.72-468,913.8-441l-74,118.3c-18.06,28.85-56.16,26.81-71.78-3.83L705.53-449.06c-16.47-32.31-57.31-32.38-73.87-.13L547-284.36c-16.1,31.38-55.52,32.37-72.82,1.83l-58.89-104c-15.65-27.64-50.28-30-68.75-4.77l-57.05,78c-18.7,25.59-53.87,22.74-69.22-5.62L157.63-434.62c-14-25.87-45.1-31-64.93-10.69L72.55-424.69C45-396.49,1.22-418.83,1.22-461.07V158.87l-.5,1341.8H1910.13V-466.07C1910.13-451,1904-436.77,1893.63-427.51Z"/><path class="cls-5" d="M1.22,73C1.09,75.63,1,78.23.84,80.86V329.71c.23,3.74.38,5.75.38,5.75L.72,1677.25H1910.13V68S861.55-103,1.22,73Z"/><path class="cls-6" d="M1910.8,1324c-427.2,161.39-869.47-202.67-1248.15-6.86C324,1492.24,276.19,1223.74.72,1337.75v455.78H1910.8Z"/></svg>