<svg id="background" xmlns="http://www.w3.org/2000/svg" xmlns:xlink="http://www.w3.org/1999/xlink" viewBox="0 0 1910.3 1351.62"><defs><style>.cls-1{fill:url(#linear-gradient);}.cls-2{fill:url(#linear-gradient-2);}.cls-3{fill:url(#linear-gradient-3);}.cls-4{fill:url(#linear-gradient-4);}.cls-5{fill:url(#linear-gradient-5);}.cls-6{fill:url(#linear-gradient-6);}.cls-7{fill:#9080a9;}</style><linearGradient id="linear-gradient" x1="937.11" y1="115.93" x2="1013.15" y2="-1272.78" gradientUnits="userSpaceOnUse"><stop offset="0.22" stop-color="#fad8e6"/><stop offset="0.33" stop-color="#e0c3d6"/><stop offset="1" stop-color="#707095"/></linearGradient><linearGradient id="linear-gradient-2" x1="955.43" y1="-416.82" x2="962.57" y2="-1311.04" gradientUnits="userSpaceOnUse"><stop offset="0" stop-color="#fad8e6"/><stop offset="1" stop-color="#9d8fad"/></linearGradient><linearGradient id="linear-gradient-3" x1="945.3" y1="2625.28" x2="968.09" y2="-2706.79" gradientUnits="userSpaceOnUse"><stop offset="0" stop-color="#fad8e6"/><stop offset="1" stop-color="#fdeef4"/></linearGradient><linearGradient id="linear-gradient-4" x1="943.22" y1="1660.26" x2="970.47" y2="-752.85" xlink:href="#linear-gradient-3"/><linearGradient id="linear-gradient-5" x1="1052.56" y1="-50.58" x2="838.15" y2="1961.66" xlink:href="#linear-gradient-2"/><linearGradient id="linear-gradient-6" x1="955.51" y1="525.46" x2="955.51" y2="2065.64" gradientUnits="userSpaceOnUse"><stop offset="0" stop-color="#fbdae8"/><stop offset="1" stop-color="#9080a9"/></linearGradient></defs><path class="cls-1" d="M1910.3-1204.53c-207,133.33-818.95,146.48-969.76,86.16C560.39-1270.42,174.64-1297.85.72-1202.71V762.38H1910.3Z"/><path class="cls-2" d="M1910.3-1152.63c-334.19,206.05-711.1,209-1128.48,72.57C412.17-1200.91,83.3-1111.24.72-1043.57V190.7H1910.3Z"/><path class="cls-3" d="M1910.3-1124.79C1468.59-855.06,1145.21-855.68,742-984.7c-302-96.63-465.92-53.69-741.32,60.32V1398.18H1910.3Z"/><path class="cls-4" d="M1910.3,71.83C1483.21,233.22,1060.23,271,662.47,65,324.06-110.33,74.64-24.31.72,85.57v972.12H1910.3Z"/><path class="cls-5" d="M1910.3,270.45C1483.21,451.56,1201,471,821.61,362.63,445.1,255.14,131.27,208.35.72,280.38v1159.7H1910.3Z"/><path class="cls-6" d="M1910.3,349.89c-427.09,181.1-793.66,219-1247.83,120C279.9,386.45,74.64,423.19.72,546.5V1797.55H1910.3Z"/><path class="cls-7" d="M1334.57,1343.2l1.51,1.44,1.66,1.48,3.78,3,4.37,3.18,4.49,3,4.14,2.52,3.79,2,1.77.84,1.68.71,1.42-1.08,1.46-1.28,1.52-1.46c.52-.55,1-1.1,1.57-1.66l3.28-3.88,3.48-4.65,1.68-2.45,1.43-2.32c.41-.72.81-1.45,1.21-2.17s.64-1.36,1-2c.13-.32.26-.65.4-1l.33-.93c.1-.3.19-.6.28-.9s.15-.58.23-.87.1-.55.16-.83.07-.53.1-.8c0-.06,0-.13,0-.2v-.18c0-.13,0-.25,0-.38V1332c0-.06,0-.12,0-.18v-.18l-.13-.34s0-.11-.08-.17a1.22,1.22,0,0,0-.07-.17l-.33-.69-.4-.71-.46-.72-.53-.74-.6-.76-.65-.76-.73-.78-1.64-1.61-1.89-1.67-2.16-1.72-2.41-1.78-2.48-1.69-2.35-1.46-2.22-1.22-2.1-1-1-.4-1-.35-.94-.28-.9-.23-.87-.17-.84-.1-.41,0h-.79l-.38,0-.38.12-.2.07-.19.07-.78.33-.78.4-.78.46-.79.52-.79.59-.79.65-.8.72-.8.78-.81.84-1.62,1.88-1.64,2.14c-.55.8-1.1,1.6-1.66,2.39l-3,4.81-2.37,4.32c-.32.67-.63,1.33-1,2l-.79,1.86-.63,1.75-.25.82c-.07.27-.14.53-.22.8l1.22,1.38Z"/><path class="cls-7" d="M898.35,1354.43l2.27,2,2.65,2.07,3.05,2.17,5.94,3.82,2.57,1.47,2.31,1.18.58-.45.62-.51,1.33-1.24,1.45-1.53,1.59-1.82,1.59-2,1.49-2,1.38-2.06,1.27-2.1,2,1.91,2.28,2,2.59,2,2.88,2,5.6,3.49,2.44,1.33,2.19,1.06,1-.78,1-.91,1-1,1.08-1.15,2.27-2.7,2.43-3.2,1.17-1.68,1-1.59c.29-.5.58-1,.86-1.5l.71-1.41.12-.29c.06-.12.12-.25.17-.38l.26-.65.09-.27.12-.35c0-.09,0-.18.08-.26l.1-.35.06-.25.08-.33c0-.08,0-.16,0-.24l.06-.31,0-.23,0-.31v-.38c-.1-.26-.19-.53-.29-.8l-.14-.26-.28-.49-.15-.21c-.06-.09-.12-.19-.19-.28l-.16-.22-.21-.28-.18-.22-.24-.3-.47-.52-.51-.54-1.16-1.1-1.34-1.15-1.52-1.19-1.7-1.24-1.74-1.18-1.64-1-1.54-.87-1.45-.71-.69-.3-.66-.26-.64-.21-.61-.19-.59-.14-.56-.1-.55-.06-.26,0h-.25l-.44.13-.29.1-.36.15-.37.17-.37.2-.16.09-.22.13-.37.25-.17.12-.21.15-.17.13-.21.17-.39.33-.77.72c-.27.27-.53.55-.79.82l-.8.92-1.56,2c-.49.69-1,1.38-1.48,2.08l-1.4,2.17-1.31,2.26-.13-.21c0-.09-.1-.18-.16-.27s-.21-.33-.32-.5-.23-.33-.35-.5l-.17-.22-.22-.28c-.06-.08-.13-.15-.19-.22l-.24-.3-.2-.22c-.09-.1-.18-.19-.26-.29l-1-1-1.18-1.08-1.33-1.1-1.47-1.12-1.62-1.14-1.64-1.08-1.55-.94-1.45-.79-1.36-.64-.64-.27-.62-.23-.26-.09-.34-.11-.57-.16-.55-.12-.53-.08-.5,0-.24,0-.36,0-.94.39-.23.12-.31.16-.23.15-.31.18-.23.16-.31.21-.24.18-.31.24-.23.2-.32.26-.24.22-.31.29-.24.23-.32.32-.24.25c-.1.12-.21.23-.32.34-.37.44-.75.88-1.12,1.33l-1.14,1.5-1.16,1.68-2.11,3.37-1.69,3-.3.59-.39.79c-.2.43-.39.86-.59,1.3l-.21.51-.27.69-.16.48c-.07.22-.14.43-.22.64l.9.93Z"/><path class="cls-7" d="M1910.3,1502.63c-.36-2-.72-4-1.07-6-.21-.95-.41-1.89-.62-2.84-.18-.73-.37-1.45-.56-2.18l-19.79,2.36-9.59.63-9.32.21-5.94-.06-5.64-.29-5.34-.53-5-.76-4.73-1-4.43-1.23-2.1-.69-2-.76-1.94-.81-1.75-.81-3.78-17.76-10.06,2.11c-.08-.28-.17-.57-.26-.86-.14-.63-.29-1.25-.44-1.88s-.21-1.31-.32-2l-.22-2c0-.7-.07-1.41-.1-2.11s.11-1.36.17-2,.19-1.33.29-2,.27-1.31.41-2l.54-1.92c.22-.63.44-1.26.67-1.89l.78-1.85c.31-.6.61-1.21.91-1.81l1-1.77,1.16-1.74,1.28-1.69,1.41-1.66,1.53-1.62,1.65-1.59,1.78-1.54,1.9-1.51,2-1.47,4.27-2.82,4.44-2.67,4.62-2.51,4.79-2.35,5-2.19,5.15-2,5.33-1.88,5.5-1.72,10.91-3,10.35-2.3,9.78-1.65,7.39-.79v-55.25l-2.56-.52-3.47-.89-3.48-1.06-3.51-1.24-3.52-1.43-14.26-6.52q-7.26-3.73-14.51-7.48l-8.54-4.42-8.58-4.05-8.62-3.66-8.66-3.29-4.33-1.4-4.35-1.11-4.34-.83-4.34-.55-4.35-.25-4.35,0-4.35.32-4.35.6c-.32.7-.63,1.39-.95,2.08s-.61,1.5-.92,2.25l-1.77,5-1.68,5.69q-.81,3.18-1.6,6.37l-2.58,12.49q-.43,2.78-.89,5.55c-.21,1.7-.41,3.39-.62,5.09l1.16,1.16,20.21,1.13,4.21.39,4.27.57,4.33.75,4.38.94,15.21,4,14.76,4.69-7.75,3.87-7.56,4.13-14.66,8.88-6.17,4.29-5.76,4.44-5.34,4.6-4.91,4.75-4.49,4.9-4.07,5.06c-1.22,1.74-2.43,3.48-3.65,5.21l-1.67,2.67-1.56,2.7-2.82,5.47-2.45,5.51q-1,2.79-2.06,5.57-.86,2.82-1.69,5.62c-.43,1.89-.87,3.79-1.3,5.68l-.93,5.72-.54,5.77c0,1.94-.11,3.89-.16,5.83.07,1.43.15,2.86.22,4.29.06.52.11,1,.16,1.56l-2.58.54q2.69,21.22,5.38,42.46l3.84,48.85-14.35,3.08-13.39,2.12-11.72,1.22-5,.3-4.38.1-5-.15-4.65-.42-2.19-.31-2.11-.38-2-.45-1.94-.51-1.85-.59-1.77-.65-1.68-.72-1.6-.8-1.51-.85-1.42-.93c-.45-.33-.9-.66-1.34-1l-1.26-1.06-1.17-1.13-1.1-1.2-1-1.26c-.31-.44-.63-.88-.94-1.33l-.87-1.39c-.27-.48-.53-1-.79-1.45l-.72-1.53c-.21-.53-.42-1.06-.64-1.59s-.37-1.1-.56-1.65l-.48-1.72c-.14-.59-.28-1.19-.41-1.78l-.33-1.85c-.09-.64-.17-1.28-.26-1.92l-.18-2c0-.68-.07-1.36-.1-2l0-2.11c0-.89.05-1.78.07-2.67s.11-1.85.16-2.78q.33-2.91.64-5.84l1-6.23c.48-2.21,1-4.42,1.45-6.63q2-7.15,4-14.32l5.28-15.7-25.32-8.25.5-1q1.63-4.09,3.28-8.2,1.41-4.28,2.83-8.56l2.37-8.93q2.1-10.17,4.18-20.36,3.57-18.49,7.13-37,3.73-20.16,7.45-40.31l5.13-30.26-43.29-7.83q-3.67,24.84-7.36,49.69-4.53,26.12-9.08,52.23l-9.09,43.65-7-.35-6.7-.64-6.43-1-6.14-1.25-3.35-.92-3.13-1-2.9-1.1-2.67-1.2-2.45-1.29-1.14-.68-1.09-.71-1-.73-1-.75-.91-.78-.86-.8-.8-.82-.75-.85-.69-.87-.64-.9-.57-.92-.53-.94-.46-1c-.14-.33-.28-.66-.41-1l-.36-1c-.09-.34-.19-.69-.29-1s-.1-.41-.14-.62-.07-.29-.1-.44c-.06-.37-.13-.73-.19-1.09s-.08-.74-.13-1.11,0-.75-.07-1.13,0-.77,0-1.15,0-.79,0-1.18l.21-2.42c.12-.84.23-1.68.35-2.51s.34-1.73.5-2.59.44-1.79.65-2.68.53-1.84.8-2.76l.93-2.84c.78-2,1.55-4,2.32-5.93l2.9-6.28,3.48-6.6c1.35-2.32,2.71-4.63,4.06-6.94l4.65-7.28-33.8-20.75q-6,9.12-11.93,18.23l-5.09,8.81-4.52,8.61q-1.95,4.19-3.92,8.38-1.65,4.07-3.31,8.13c-.9,2.63-1.8,5.25-2.71,7.88l-.11.39c-.1-.39-.2-.79-.31-1.19-.32-1.06-.65-2.12-1-3.19l-1.11-3-1.23-2.91c-.45-.93-.9-1.86-1.36-2.78l-1.47-2.65-1.6-2.51-1.73-2.37-1.84-2.24-2-2.1-2.07-2-2.14-1.82L1526,1397l-2.29-1.52-2.37-1.38-2.44-1.23-2.52-1.08-2.59-.93-2.66-.79-2.74-.64-2.82-.49-2.89-.35-3-.2-3-.06-3.12.09-3.19.24-1.4.2-1.42.28-1.42.34-1.44.41-1.45.48-1.45.55-1.47.61-1.48.69-3,1.56-3.07,1.8-3.13,2-3.2,2.27q.87-7.21,1.75-14.42.52-7.47,1.06-15,.32-15.26.64-30.51l-46.36,2.59q.4,20.16.79,40.32-.24,15-.5,30-.42,5.85-.85,11.7c-.21,1.77-.41,3.54-.62,5.31s-.51,3.3-.76,4.95l-.9,4.58c-.34,1.41-.69,2.81-1,4.22l-1.17,3.85c-.43,1.17-.87,2.33-1.3,3.49l-9.77-1.37-4.54-.82-4.14-1-3,9.78-4,.41-10.76,1.63-10.37,2.07-10,2.45-7.12-4.85-1.63-1.24-1.55-1.25-1.47-1.28-1.37-1.3-2.4-2.42-1.09-1.21c-.33-.4-.67-.8-1-1.21l-.93-1.2-.85-1.19-.77-1.2-.69-1.19-.6-1.18c-.08-.19-.17-.38-.25-.58l-.23-.57-.2-.57-.17-.56c0-.1,0-.19-.07-.29a2.68,2.68,0,0,1-.07-.27l-.06-.28-.06-.27c0-.18-.06-.36-.08-.54l-.06-.54c0-.09,0-.18,0-.27s0-.17,0-.26v-.53c0-.08,0-.17,0-.26a2.26,2.26,0,0,0,0-.26l.06-.51c0-.09,0-.17,0-.26s0-.17,0-.25l.06-.26c0-.08,0-.16.05-.24s.11-.34.17-.51a2.6,2.6,0,0,1,.1-.25l.09-.24.12-.26.11-.23c.08-.16.17-.32.26-.47s.19-.31.29-.46l.17-.24.15-.21.36-.44.2-.22.19-.21.42-.41.23-.21.22-.19.48-.39.52-.38.54-.36.58-.36.62-.34.64-.33,1.37-.63,1.47-.59,1.56-.56,1.66-.53,3.62-.95,4-.82,3.52-.6,3.74-.5,8.14-.72,18.46-.51c0-.32.09-.64.14-1l.12-1.12c.06-.9.12-1.81.19-2.72q.08-3.71.17-7.41l-.36-17.53-.48-7.55-.3-2.83c-.12-.74-.24-1.47-.35-2.21l-3.19-.62-3.34-.51-7.15-.69-3.76-.16H1370l-3.82.17-3.86.34-3.74.54-3.64.67-3.54.8-3.45.93-3.34,1.07-3.24,1.19-3.15,1.33-3,1.46-2.94,1.57-2.81,1.64-2.7,1.73-2.58,1.81-2.45,1.88-2.34,2-2.22,2-2.09,2.13-2.23,2.46c-.69.85-1.37,1.7-2.06,2.54l-1.89,2.62-1.73,2.68-1.56,2.76c-.47.94-.94,1.89-1.4,2.83l-1.23,2.91c-.36,1-.71,2-1.07,3s-.59,2-.89,3-.47,2.06-.71,3.08-.35,2.09-.52,3.13-.23,2.11-.34,3.16-.11,2.14-.16,3.21,0,2.16,0,3.25l.06.9,0,.85c-.1-1-.21-2.08-.31-3.12-.22-1.5-.43-3-.64-4.48l-.84-4.5-1-4.5c-.41-1.5-.81-3-1.22-4.51l-1.41-4.43-1.61-4.25c-.6-1.36-1.2-2.71-1.81-4.07s-1.33-2.59-2-3.89-1.47-2.47-2.21-3.71l-2.4-3.53-2.59-3.35c-.94-1-1.87-2.11-2.8-3.17l-1.47-1.49-1.53-1.4-1.57-1.31-1.63-1.22-1.68-1.12-1.73-1-1.77-.94-1.83-.84-1.89-.76-1.93-.66-2-.58-2-.47-2.09-.39-2.14-.29-2.18-.21-2.24-.11-1.89.1-1.88.19-1.87.27-1.87.36-1.85.45-1.85.53-1.84.63-1.83.7-1.83.8-1.81.88-1.81,1-1.8,1.06-1.79,1.14-1.79,1.23-3.54,2.72-3.45,3-3.3,3.17-3.14,3.35-3,3.53-2.83,3.71-2.68,3.9-2.53,4.07-2.37,4.26-2.15,4.35-1.88,4.37c-.54,1.47-1.07,2.93-1.6,4.39s-.89,2.93-1.33,4.4l-1.05,4.41c-.2,1.17-.41,2.34-.61,3.51l-2.18-.27-3.11-.21-3.18-.06-3.26.1-3.33.25-1.48.21-1.48.29-1.49.35-1.5.43-1.52.51-1.52.57-1.54.65-1.54.71-3.14,1.64-3.21,1.88-3.27,2.12-3.35,2.38q.92-7.55,1.84-15.09.54-7.83,1.1-15.65.33-16,.68-31.94l-48.52,2.72q.4,21.09.83,42.19-.27,15.7-.53,31.41-.45,6.13-.89,12.26-.33,2.77-.65,5.55c-.27,1.73-.53,3.45-.8,5.18l-.3,1.53-.87-3.48-1.54-5.29c-.58-1.67-1.15-3.35-1.73-5s-1.27-3.18-1.91-4.77-1.39-3-2.09-4.53l-2.27-4.27-2.46-4-2.63-3.76-2.83-3.51-1.48-1.64-1.52-1.53-1.57-1.44-1.62-1.33-1.66-1.23-1.71-1.12-1.76-1-1.8-.92-1.85-.82-1.89-.72-1.94-.61-2-.51-2-.41-2.07-.31-2.13-.21-2.17-.1-2.92.16-2.87.3-2.81.46-2.74.6-2.69.76-2.64.9-2.57,1-2.51,1.21-2.45,1.35-2.4,1.5-2.33,1.65-2.28,1.8-2.22,2-2.16,2.1-2.1,2.25-2,2.4-2,2.52-1.83,2.6-1.71,2.7-1.59,2.78-1.47,2.87-1.35,3c-.41,1-.81,2-1.22,3l-1.11,3.14-1,3.22c-.29,1.1-.57,2.21-.86,3.31l-.75,3.4c-.21,1.16-.41,2.32-.62,3.48l-.51,3.58c-.13,1.22-.25,2.44-.38,3.66-.14,2.53-.27,5.06-.41,7.59.06,1,.11,1.91.17,2.87l.3,2.76.42,2.65c.18.86.37,1.71.55,2.56s.45,1.63.68,2.45l.81,2.34.93,2.24,1.07,2.13c.4.68.79,1.36,1.19,2,.22.33.43.66.65,1l.36.52c.11.14.21.29.31.43l.71.93c.25.29.49.59.74.89l.77.88c.15.15.3.3.44.46l.37.38.84.82.86.8,1.84,1.51,2,1.4,2.09,1.3,2.18,1.21,2.24,1.13,2.28,1.06,2.33,1,2.39.9,2.44.82,5,1.4,5.23,1.09,5.45.77,5.64.47,5.86.14c0,1,.09,2,.14,3s0,2,0,3.08l-.12,6.29-26.37,3.7-11.68,1.1-10.61.4-4.84,0-4.55-.3-4.28-.54-2-.36-2-.42-1.89-.49-1.82-.55-1.75-.61-1.69-.67-1.61-.73-1.54-.8-1.47-.85-1.4-.92-.67-.49-.35-.27-.3-.23-.34-.29-.29-.24-.61-.56-.58-.57-.31-.33-.26-.27-.55-.62-.52-.64-.28-.36c-.07-.11-.15-.21-.22-.31l-.27-.37a3.46,3.46,0,0,0-.22-.31l-.46-.71-.44-.74c-.27-.51-.54-1-.82-1.53l-.73-1.62-.65-1.71-.57-1.8-.48-1.89-.21-1.08-.18-.9c-.11-.69-.21-1.38-.32-2.07s-.15-1.44-.23-2.16-.09-1.5-.14-2.25l-.06-2.33,0-2.56.15-2.65c.2-1.86.39-3.71.59-5.57l1-5.93,1.35-6.28q1.88-6.87,3.74-13.74l5.07-15.35L966.43,1486l-.72-5.3-.9-5.11q-.7-3.18-1.43-6.36l1.66-.44,3.89-1.24,1.63-.62,1.43-.62,1.22-.62.23-.13.31-.18.48-.31,1.09-1.86,1-1.91c.31-.65.61-1.31.92-2l.84-2,.75-2.07.66-2.12c.19-.73.39-1.45.58-2.18s.33-1.49.5-2.23c.26-1.47.53-2.94.79-4.41s.37-2.8.55-4.2.22-2.65.32-4l.09-3.76c-.05-1.18-.09-2.35-.14-3.53l-.3-3.41c-.17-1.09-.33-2.19-.49-3.28s-.45-2.11-.67-3.17l-.84-3-1-2.92-1.2-2.8c-.23-.45-.45-.91-.67-1.36l-.71-1.32-1.52-2.56-1.64-2.44-1.75-2.33-1.87-2.2-2-2.09-2.09-2-2.21-1.85-2.32-1.73-2.19-1.57-2.25-1.46-2.31-1.34-2.36-1.25-2.42-1.13-2.48-1-2.53-.92-2.59-.8-5.25-1.33-5.32-1-5.37-.6-5.43-.24-1.09.87c-.17,1.17-.33,2.35-.5,3.52s-.24,2.4-.37,3.6c-.13,2.46-.25,4.93-.38,7.4l0,7.32c.11,2.29.23,4.59.35,6.88l-3,4.32-2.64,4.4-1.18,2.23-1.08,2.24c-.33.75-.66,1.51-1,2.26l-.9,2.28c-.26.76-.53,1.52-.8,2.28l-.69,2.26c-.2.75-.4,1.5-.59,2.25s-.32,1.48-.49,2.23-.25,1.47-.37,2.21-.19,1.46-.28,2.19-.11,1.45-.16,2.17l0,.93,0,1.23c0,.23,0,.46,0,.69s0,.6,0,.9l0,.67c0,.32,0,.63,0,.94-.14-.15-.27-.31-.4-.46l-.21-.26c-.14-.16-.27-.32-.41-.47l-.23-.27-.44-.48-.25-.27-1.57-1.55L900,1440.7l-2.06-1.65-2.31-1.7-2.36-1.61-2.23-1.4-2.1-1.17-2-1-.93-.39-.9-.34-.87-.28-.83-.23-.8-.17-.77-.12-.37,0-.36,0h-.7l-.5.14-.49.17-.51.21-.5.24-.33.17-.18.1-.51.3-.33.22-.19.13-.52.37-.34.26-.19.15-.53.44-1.07,1-1.08,1.12-1.11,1.25-2.14,2.7-2,2.8-1.85,2.91-1.71,3-.41-.67-.45-.68c-.11-.14-.22-.29-.32-.44a2.35,2.35,0,0,1-.19-.25l-.35-.44-.2-.25-1.24-1.41-1.44-1.44-1.62-1.47-1.82-1.5-4.2-3.09-2.23-1.47-2.1-1.27-2-1.06-1.85-.86-.87-.35-.84-.3-.81-.24-.78-.2-.75-.15-.72-.09-.34,0h-1l-.37.13-.36.14-.73.32-.73.38-.74.44-.48.33-.26.18-.75.56-.75.63-.76.68-.76.75-.76.81c-.52.59-1,1.19-1.55,1.79l-1.56,2-1.57,2.28-2.89,4.57-2.32,4.1c-.31.63-.62,1.26-.94,1.88s-.53,1.18-.8,1.77-.44,1.09-.65,1.64l-.52,1.53,1.22,1.3,1.36,1.32c1,.92,2.06,1.84,3.1,2.75l3.63,2.88,4.16,3,4.25,2.86,3.88,2.42,3.53,2,3.15,1.54.81-.61.84-.69,1.82-1.69,2-2.06c.73-.81,1.45-1.62,2.17-2.44l2.19-2.66,2-2.74,1.89-2.8,1.74-2.88,2.77,2.55,3.14,2.63,3.52,2.69,3.9,2.76,3.92,2.6,3.6,2.18,3.28,1.78,1.53.74,1.44.64,1.31-1,1.37-1.2,1.42-1.38,1.46-1.56,3.09-3.65,3.29-4.37,1.59-2.3,1.38-2.18,1.17-2c.32-.65.64-1.29,1-1.94.14-.3.27-.61.4-.92s.15-.38.22-.57a3.05,3.05,0,0,0,.13-.32c.06-.18.12-.36.19-.54s.09-.27.14-.4l.28.6c.09.26.17.52.26.77.17.44.35.87.52,1.31.09.18.17.36.25.55s.22.48.34.72c.21.42.43.83.64,1.24l.71,1.2.33.51.44.66.83,1.13.9,1.1,1,1.06,1,1,1.1,1,1.17.89,1.23.82,1.34.78-6.25,1.82q2.67,6.72,5.32,13.44,1.66,4.59,3.32,9.17c.48,1.5,1,3,1.42,4.48-.07.21-.15.41-.22.61s-.12.34-.19.51c-.54,1.71-1.07,3.41-1.61,5.11l-3.61.59-8,1-17.48,1.37-22.68.69-23.76-.21-24.12-.95-23.46-1.83,2.89-10q1.51-4.55,3-9.09l5.09-13.53L761,1459c-.44,1.47-.88,3-1.33,4.43l-1.2,4.61c-.68,3.26-1.36,6.53-2,9.79l-.81,5.13-.63,5.24-.75,10.78,0,3.81-19.25-.4q-2,19-3.92,38-3.27,21.63-6.55,43.25l-13.09-.23-12.07-.86-10.44-1.31-4.38-.75-3.83-.8-4.31-1.14-3.95-1.3-1.85-.72-1.76-.75-1.67-.8-1.58-.84-1.49-.89-1.4-.92-1.32-1-1.23-1-1.14-1.05-1-1.1-.51-.6-.45-.54-.88-1.17-.42-.65-.37-.57-.38-.67-.33-.6c-.21-.43-.43-.86-.64-1.3s-.36-.9-.55-1.34-.31-.93-.47-1.39l-.21-.75-.18-.68c-.06-.26-.11-.51-.17-.77l-.15-.7c-.08-.5-.15-1-.23-1.51s-.1-1-.16-1.55l-.07-1.59c0-.54,0-1.09,0-1.63,0-.3,0-.59,0-.89s0-.53,0-.79c.06-.57.11-1.14.17-1.72l.24-1.75.33-1.8c.13-.62.27-1.23.4-1.85l.6-2.31c.23-.79.47-1.58.7-2.38l1.74-5,2.17-5.2,2.61-5.47,6.35-11.65,7.77-12.58-15-9.08,2.12-.32,9.54-1.83,8.12-1.9,6.7-2,2.81-1,2.47-1,1.36-2.21,1.31-2.28,1.24-2.36,1.17-2.45,2.16-5.13c.43-1.24.86-2.49,1.3-3.73l1.26,1.45,3.85,4.11,3.62,3.53,3.38,3,1.6,1.26,1.54,1.12,1.69-.76,1.8-1,1.88-1.12,2-1.31,4.25-3.17,4.64-3.9,2.28-2.09,2-2,1.74-1.93,1.47-1.84.33-.46.3-.42.56-.87c.09-.15.18-.3.26-.45l.24-.4.23-.43c.06-.13.13-.26.2-.39s.13-.29.19-.43l.17-.38c0-.14.1-.28.16-.41s.09-.25.13-.37l.07-.21.06-.18c0-.06,0-.13,0-.2l.05-.18c0-.06,0-.13,0-.19s0-.12,0-.18a1.06,1.06,0,0,1,0-.19l0-.18,0-.2a1,1,0,0,0,0-.17l-.06-.38-.1-.42c0-.12,0-.24-.08-.37s-.08-.28-.13-.43-.07-.25-.11-.38l-.3-.85c-.06-.15-.13-.3-.19-.46s-.12-.27-.17-.41c-.15-.3-.29-.6-.43-.9l-.26-.5-.23-.44c-.09-.17-.19-.34-.29-.51s-.17-.3-.26-.45l-1.28-2c-.52-.71-1-1.43-1.54-2.14l-1.78-2.26-2-2.38c-.7-.77-1.41-1.53-2.12-2.3l-2-2-2-1.76-1-.78-.94-.72-.92-.64-.9-.58-.88-.51-.87-.44-.84-.38-.83-.31-.41-.13-.21-.06-.19,0-.21,0-.18,0-.4-.07-.42,0-.42,0-.87.16-.89.21-.9.28-.92.35-.95.41-1,.47-1,.54-1,.6-1,.67-2.09,1.52-2.17,1.78-.84.76-.24-1.83c-.16-.94-.32-1.89-.47-2.84l-.57-2.75c-.23-.89-.45-1.78-.67-2.67l-.76-2.59c-.29-.83-.57-1.66-.86-2.5s-.64-1.61-1-2.41l-1-2.33c-.39-.75-.77-1.5-1.15-2.25s-.83-1.44-1.24-2.16-.9-1.38-1.34-2.07l-1.44-2-1.53-1.9-1.61-1.81c-.56-.56-1.12-1.12-1.67-1.69l-1.74-1.57-1.81-1.47-1.87-1.34-1.93-1.24-2-1.12-2.07-1-2.12-.89-2.2-.78-2.26-.66-2.32-.55-2.39-.44-2.45-.32-2.51-.21-2.58-.1-2.27,0-2.3.13-2.33.24-2.35.35-2.38.45-2.42.55-2.43.67-2.47.77-5,1.86-5.14,2.28q-2.61,1.37-5.24,2.71l-5.36,3.14-5.44,3.6-5.46,4.1-5.5,4.62-5.54,5.11c-1.85,1.88-3.71,3.75-5.57,5.63l-5.6,6.13-11.3,13.77-2.36-.63-1.12-.37-1.09-.39-1.06-.43-1-.46-1-.49-1-.52-.92-.55-.88-.58-.84-.61-.81-.65-.41-.35-.37-.32-.39-.37-.35-.34-.71-.73c-.22-.26-.44-.52-.67-.77l-2.56-3.29-2.46-3.6-2.36-3.9-2.25-4.21-2.09-1-37.88,15.92c.72,2,1.45,4.07,2.17,6.11.73,2.32,1.45,4.64,2.18,7q2.21,8.23,4.4,16.48l3.81,18.38q1.3,9.36,2.59,18.72l-8.45,2.1-7.9,1.67-7.35,1.24-6.81.82-6.27.4-2.93,0-2.79-.07-2.66-.17-2.52-.29-2.38-.39-2.25-.49-1.07-.29-1-.33-1-.35-1-.39-.94-.42-.9-.46-.87-.48-.83-.52-.8-.55-.4-.31-.37-.27-.73-.62-.37-.34-.33-.31-.66-.68-.33-.38-.3-.33-.6-.75-.29-.41-.27-.37-.53-.81-.49-.84-.24-.47c-.08-.13-.15-.27-.22-.41l-.43-.91-.39-.94-.36-1c-.1-.34-.21-.68-.32-1l-.15-.55c0-.16-.09-.33-.14-.49s-.09-.38-.13-.56-.09-.34-.13-.51-.07-.39-.11-.58-.07-.35-.11-.53l-.18-1.21c-.05-.36-.1-.73-.16-1.09-.07-.81-.13-1.63-.2-2.44s-.05-1.71-.07-2.56c0-.67,0-1.33,0-2l.06-1.09c0-.32,0-.65.05-1,.14-1.45.29-2.91.44-4.37s.49-3.12.73-4.67.69-3.33,1-5l1.32-5.3c.17-.57.33-1.14.49-1.7l1.66-.35,6.55-1.73,5.41-1.72,2.28-.87,2-.86,1.7-.86.75-.43.67-.44,1.51-2.58c.47-.89.94-1.77,1.4-2.66s.86-1.82,1.28-2.73l1.16-2.81,1.05-2.89c.31-1,.62-2,.92-3l.81-3,.69-3.1q.55-3.08,1.1-6.14l.78-5.85c.15-1.84.29-3.69.44-5.54l.12-5.24-.18-4.92c-.15-1.59-.29-3.17-.44-4.76s-.45-3-.67-4.58l-.93-4.42-1.18-4.24c-.47-1.36-.94-2.72-1.42-4.08s-1.11-2.61-1.67-3.91l-.93-1.89-1-1.85c-.7-1.19-1.41-2.38-2.12-3.57l-2.28-3.41-2.44-3.24-2.6-3.07-2.75-2.91-2.92-2.75-3.07-2.58-3.23-2.41-3.06-2.19-3.13-2-3.21-1.88-3.29-1.73-3.37-1.58-3.45-1.43-3.52-1.28-3.6-1.13-7.33-1.85-7.4-1.34-7.48-.84-7.56-.33-1.52,1.21-.69,4.92c-.17,1.67-.34,3.34-.52,5q-.25,5.16-.53,10.33c0,3.4,0,6.81,0,10.21.16,3.2.33,6.4.49,9.6l-4.19,6-3.67,6.14-1.64,3.1c-.51,1-1,2.09-1.52,3.13l-1.38,3.16-1.25,3.18-1.12,3.18-1,3.15c-.27,1-.54,2.09-.82,3.13s-.45,2.07-.67,3.11-.35,2-.53,3.08-.25,2-.38,3.05-.15,2-.23,3l-.09,3c0,.39,0,.78,0,1.17s0,.7,0,1.05l.12,2.16c.07.71.13,1.42.2,2.12s.2,1.38.29,2.07.25,1.35.38,2l.24,1c.08.31.15.62.22.93s.2.68.29,1,.18.6.26.91c.22.62.43,1.24.64,1.87s.49,1.21.73,1.82c.14.31.28.63.43.94s.25.56.38.84l.9,1.72,1,1.67c.35.55.71,1.09,1.07,1.63s.77,1,1.16,1.58.83,1,1.25,1.52l1.33,1.48,1.43,1.41,1.53,1.32,1.62,1.23,1.72,1.15c.61.35,1.22.7,1.82,1.06l1.92,1,2,.88,2.11.8,2.21.71,2.31.62,2.41.53,1.77.31-1.8,6.62q-.94,4.25-1.88,8.47-.68,4.07-1.36,8.12l-.81,7.78-.21,3.76c0,1.22-.06,2.45-.08,3.67s0,2.29.05,3.43.12,2.23.19,3.34.21,2.16.32,3.24.32,2.1.47,3.14.41,2,.61,3.06.49,2,.74,3,.59,1.91.89,2.86l1,2.77c.39.89.78,1.78,1.16,2.67l1.31,2.58,1.44,2.48,1.58,2.38,1.72,2.3,1.86,2.19,2,2.1,2.13,2,2.29,1.9,2.44,1.77,2.59,1.66,2.75,1.54,2.9,1.42,3.06,1.3,3.21,1.17,3.37,1.06,3.52.93,3.68.82,3.83.69,4,.58,8.44.79,7.66.26.09,3.08q-.06,4.5-.1,9l-6.32-1-6.75-1.33L455,1561l-18.53-5.49L417.33,1549l-19.25-7.21L379.59,1534q2.51-3.66,5-7.31l4.87-6.55q3.87-4.8,7.73-9.59l-20.37-13.33c0-.14.05-.27.07-.4s.07-.34.1-.5c.12-.85.25-1.69.37-2.54s.16-1.56.25-2.35.06-1.43.1-2.16c-.12-2.65-.23-5.31-.35-8l-.36-3.82-.48-3.72-.6-3.6-.72-3.5c-.29-1.13-.57-2.26-.85-3.39s-.65-2.19-1-3.29-.72-2.11-1.09-3.17l-1.21-3.07-1.33-3-1.46-2.86-1.58-2.74-1.7-2.63-1.82-2.53-1.94-2.41c-.68-.77-1.37-1.53-2.05-2.29l-2.13-2.15-2.21-2-2.29-1.86-2.37-1.71-2.46-1.57-2.54-1.42-2.62-1.28-2.7-1.13-2.78-1-2.87-.85-3-.7-3-.55-3.11-.41-3.2-.27-3.28-.12-2.88,0-2.91.16-3,.31-3,.44-3,.57-3.07.71-3.09.84-3.14,1-6.37,2.36-6.52,2.9-6.66,3.44-6.81,4-6.9,4.57-6.94,5.22-7,5.85-7,6.5-7.07,7.14-7.11,7.79-14.36,17.49-3-.81-1.42-.46-1.39-.5-1.34-.55-1.29-.58-1.25-.62-1.21-.66-1.16-.7-1.12-.74-1.07-.77-1-.82-1-.86-.51-.49-.43-.41-.49-.51-.4-.42-.86-1-3.25-4.17c-1.05-1.52-2.09-3-3.13-4.57l-3-5-2.86-5.35-2.65-1.32-48.1,20.22c.92,2.58,1.83,5.16,2.75,7.75.93,2.94,1.85,5.89,2.77,8.83q2.81,10.47,5.59,20.94,2.41,11.67,4.84,23.33,1.65,11.89,3.29,23.78l-10.73,2.66-10,2.12-9.34,1.58-8.65,1-8,.5-3.72,0-3.54-.08-3.38-.23-3.2-.36-3-.49-2.86-.63-1.36-.37-1.32-.41-1.28-.45-.67-.27-.56-.23-.65-.29-.54-.24-.63-.32-.51-.26L74.1,1566,73,1565.3l-1-.7-.54-.41-.44-.33-.5-.43-.42-.35-.89-.83-.46-.47-.39-.39-.43-.5-.36-.41-.42-.52c-.11-.14-.23-.28-.34-.43l-.71-1c-.13-.18-.25-.37-.37-.56l-.31-.47c-.11-.19-.22-.39-.34-.58l-.28-.49c-.11-.2-.22-.4-.32-.61l-.27-.5-.54-1.15-.27-.66-.22-.54c-.09-.23-.17-.45-.25-.68l-.21-.56c-.07-.23-.15-.46-.22-.7l-.19-.57c-.12-.44-.24-.88-.37-1.32s-.21-.91-.32-1.36l-.15-.77c0-.21-.09-.43-.13-.64l-.24-1.6c-.06-.44-.13-.88-.19-1.32-.09-1-.18-2.07-.26-3.1,0-.59,0-1.19,0-1.78s0-1,0-1.48l0-1.38c0-.38,0-.77,0-1.15s0-1,.07-1.44,0-.79.07-1.19c.18-1.85.37-3.69.56-5.54l.93-5.94q.65-3.17,1.31-6.33c.55-2.25,1.11-4.49,1.67-6.74s1.37-4.77,2.06-7.16l5.22-15.59-45.76-15q-4.51,12.12-9,24.24-1.8,5.77-3.62,11.54l-3,11.17q-1.2,5.37-2.39,10.75-.87,5.16-1.72,10.31C5.4,1679.93,3.85,2139.94,2.29,2282.2h1908Zm-1466.94-99-4.94.22-4.61,0-4.27-.15-3.93-.34-1.92-.35-.88-.21-.84-.23-.79-.25-.74-.28-.37-.16-.32-.14-.35-.17-.3-.15-.6-.35-.28-.19-2.07-2-.43-.75-.47-1.32-.13-.85.24-2.55a3.37,3.37,0,0,1,.1-.34l.09-.3.12-.35c0-.1.08-.21.11-.31l.16-.35c0-.11.09-.21.13-.32l.18-.36c.06-.11.11-.21.16-.32s.27-.47.4-.7.15-.25.23-.38l.21-.34.49-.72c.09-.14.19-.27.28-.4s.17-.23.26-.35l1.09,0,1.28.1,3.15.38,8.63,1.46,9.9,2.22,4.74,1.33,4.6,1.48,2.13.78,1.87.79.83.41.77.4.38.22.33.19.63.42.58.41.26.23.36.3-6.85,3.72ZM283.47,1622.5a18.64,18.64,0,0,1-6.26,4.5,10,10,0,0,1-4.75.75,9.58,9.58,0,0,1-4.4-1.56l-.42.17a9.11,9.11,0,0,1-5.49,6.72l0,0a28,28,0,0,1,1.42,6.59,17,17,0,0,1-.37,5.49,65.86,65.86,0,0,1-6.5,4.58,40.57,40.57,0,0,1-5.81,3q-7.62,3-12.49,1.29t-7.11-7.39a29.16,29.16,0,0,1-1.75-6.81,53.82,53.82,0,0,1-.5-8.52l8.28-.57a44,44,0,0,0,.47,5.29,17.73,17.73,0,0,0,1,3.87,5.69,5.69,0,0,0,3.21,3.56,7.31,7.31,0,0,0,5.17-.52,23.93,23.93,0,0,0,3.45-1.79q1.86-1.14,4-2.72a61.83,61.83,0,0,0-4.36-7.05,55.77,55.77,0,0,0-4.2-5.3l6.38-6.35.51,0a7.51,7.51,0,0,0,3,3.22,3.72,3.72,0,0,0,3.08.18,4.77,4.77,0,0,0,2.54-2.83,9.94,9.94,0,0,0,.31-5.37l4.68-1.08q1,3.3,2.52,4a3.45,3.45,0,0,0,3.07,0,9.24,9.24,0,0,0,1.32-.69c.43-.28.85-.56,1.26-.85-.8-1.12-1.61-2.15-2.42-3.11l-2.12-2.49,7.74-5.41a22.84,22.84,0,0,1,2.08,3,28.1,28.1,0,0,1,3.33,9.09A14.83,14.83,0,0,1,283.47,1622.5Zm-30.76-17.83a5.15,5.15,0,0,1,3,0,7.59,7.59,0,0,1,3,1.18,12.62,12.62,0,0,1,.55-2.58,3.36,3.36,0,0,1,1.05-1.7,5.49,5.49,0,0,1,3.18.1,5.89,5.89,0,0,1,2.94,1.3,5.67,5.67,0,0,1-.14,3.15,11.15,11.15,0,0,1-1.19,3.19,15,15,0,0,1-3-.41,19.14,19.14,0,0,1-3.13-.93,13.5,13.5,0,0,1-.61,2.53,8.69,8.69,0,0,1-.82,1.88,18.15,18.15,0,0,1-3.27-.5,14.69,14.69,0,0,1-3.2-1,12.42,12.42,0,0,1,.33-3.32A5.09,5.09,0,0,1,252.71,1604.67Zm-1.3-2.61a10.66,10.66,0,0,1,.28-3.18,4.51,4.51,0,0,1,1.32-2.77,5.66,5.66,0,0,1,3,.1,5.83,5.83,0,0,1,2.78,1.18,5.44,5.44,0,0,1-.12,3,11.09,11.09,0,0,1-1.11,3.09,17.25,17.25,0,0,1-3.17-.49A15.52,15.52,0,0,1,251.41,1602.06Zm45-39.75-7.23-1.78-14.52-2.92-6.44-.88-6.26-.53-6.08-.19-5.9.15-5.73.5-5.55.84-5.36,1.18-2.62.72-2.57.81-5,1.83-4.78,2.08-4.57,2.34-4.35,2.59-4.15,2.85-3.93,3.11-3.81,3.45c.16-.88.33-1.75.5-2.63.3-1.81.61-3.62.91-5.42l1.41-11.75.84-12.93,15.75,3,15.9,2,16.07,1.11,16.22.2,15.9-.53,14.45-1c.48.75,1,1.5,1.43,2.25l6.66,11.61Zm35.87-72.62-2.28.66-2.63.59-3,.52-3.34.47-15,1.32-16.82.51-16.79-.23-14.86-.88,7.1-4.29,3.57-1.92,3.58-1.76,3.58-1.61,3.6-1.45,3.6-1.3,3.62-1.15,7.08-1.86,6.76-1.33,3.27-.46,3.18-.32,3.1-.19,3,0,2.31,0,2.22.15,2.15.24,2.07.34,2,.42,1.91.52,1.83.61,1.75.7.83.39.8.4.76.43c.25.14.49.29.73.44l.69.46.65.48.34.27.28.23.58.52.3.29.25.25.27.3c.08.09.16.17.23.26l.26.31.21.26.44.6c.13.2.26.41.4.61a4,4,0,0,0,.2.35l.16.29c.11.22.22.43.32.65l.16.37c0,.14,0,.28,0,.42l-.48.52-.24.22-.27.22-.29.21-.31.21-.26.16-.15.09-.75.4-.83.38-.92.36Zm6.72,69.55q-2.44-6.63-4.87-13.24c-.06-.17-.12-.35-.19-.52s-.11-.31-.17-.47l2.15-.41,3.88-.91c-.09.94-.17,1.87-.26,2.81s-.11,1.94-.16,2.91l-.06,2.9.06,2.9.17,2.89.3,3.08C339.59,1560.53,339.3,1559.88,339,1559.24Zm84.14,79.9c-.05.15-.1.3-.16.46a2.29,2.29,0,0,1-.1.23l-.33.71-.19.33-.17.31c-.07.11-.15.22-.22.34l-.2.31-.25.35-.22.32c-.1.11-.19.23-.28.35l-.26.33c-.2.22-.39.46-.59.69l-1.36,1.41-1.58,1.47-1.82,1.52-2,1.56-4.14,2.89-3.77,2.31-1.74.94-1.65.8-1.56.65-1.46.5-1.19-1-1.23-1.17-2.58-2.7-2.73-3.2-2.89-3.7-2.74-3.81-2.28-3.54-1-1.67-.86-1.6-.39-.81c-.12-.24-.23-.49-.35-.73l-.33-.77-.3-.7.39-.6c.08-.1.15-.21.23-.32l.21-.29,1-1.27,1.16-1.32,1.32-1.38,3.13-2.92,3.79-3.15,2-1.52,1.93-1.32,1.85-1.11.9-.48.87-.42.86-.38.83-.32.81-.27.79-.21.77-.17.75-.11.73-.07h.71l.25.07.39.14.25.09.41.17.66.32.35.19.32.18.36.23.32.2.7.49.36.29.34.26c.24.2.48.4.71.61l1.46,1.38,1.5,1.61,1.55,1.84,1.58,2.07,1.51,2.13,1.3,2c.38.63.75,1.26,1.12,1.89l.91,1.77c.13.28.26.56.38.84l.18.42c.05.13.1.26.16.39s.19.52.28.79.08.26.13.39.07.24.11.36l.09.38.09.34c0,.12,0,.24.08.36l.06.34c0,.11,0,.23.05.34C423.2,1638.2,423.18,1638.67,423.16,1639.14ZM551.44,1616c-.29,1-.61,1.89-.94,2.76a41,41,0,0,1-1.69,3.78c-.52,1-.84,1.58-1,1.75a8.79,8.79,0,0,1-1-.5c-.38-.21-.75-.44-1.13-.69s-.74-.52-1.06-.78a5.39,5.39,0,0,1-.76-.73c.45-.67.88-1.38,1.3-2.14s.81-1.54,1.18-2.33c.45-.95.86-1.88,1.21-2.8s.64-1.76.88-2.55l3.71,1.24A26,26,0,0,1,551.44,1616Zm39.4,13.87a3.65,3.65,0,0,1,2.91,1.86,5.2,5.2,0,0,1,.64,3.49,7.26,7.26,0,0,0-3.72,1,1.84,1.84,0,0,0-1,2.06,3.23,3.23,0,0,0,.67,1,6,6,0,0,0,1.35,1c1.1-.83,2.21-1.59,3.36-2.29a23.57,23.57,0,0,1,3.44-1.73l.38.27a17.36,17.36,0,0,1,.57,3.45,15.9,15.9,0,0,1,0,3.08,53.46,53.46,0,0,0-5.55,3.26c-2,1.34-3.81,2.63-5.35,3.85a9.69,9.69,0,0,1-2.8-4.67c.35-.38.75-.8,1.2-1.25s.95-.93,1.5-1.42a7.28,7.28,0,0,1-2.59-1.78,5.8,5.8,0,0,1-1.29-2.31,7.71,7.71,0,0,1,1.32-6.12A5.56,5.56,0,0,1,590.84,1629.85Zm-13.12-49.64a12.89,12.89,0,0,1-8.58.72q-3.57-.95-4.74-3.3a7.82,7.82,0,0,1-.34-5.56,17,17,0,0,1,1.48-3.78,29.45,29.45,0,0,1,2.49-3.94l3.9,2.41a19.25,19.25,0,0,0-1.51,2.46,10.21,10.21,0,0,0-.87,2.26,4,4,0,0,0,.08,2.71,2.87,2.87,0,0,0,2,1.51,7.19,7.19,0,0,0,2.4.11,10.36,10.36,0,0,0,3.06-.8,18,18,0,0,1-2.58-2.54,1.71,1.71,0,0,1-.41-1.54,6.61,6.61,0,0,1,2.16-3.16,13.49,13.49,0,0,1,4.33-2.51,13.85,13.85,0,0,1,5.57-.79,14.22,14.22,0,0,1-.42,2.64,16.55,16.55,0,0,1-.79,2.64,32.49,32.49,0,0,0-3.32.1,9.09,9.09,0,0,0-2.2.45,14.21,14.21,0,0,1,2.3,2.2,2.77,2.77,0,0,1,.76,2.26A8.48,8.48,0,0,1,577.72,1580.21Zm29,79.1a101,101,0,0,1-21.73,9.22,57,57,0,0,1-2.05-6.07,51.62,51.62,0,0,1-1.33-6.26q3.34-1.18,8.09-3.15t9.65-4.41a79.05,79.05,0,0,0,8.7-5q-2.79-4.79-6.37-10.21t-7.42-11.2l9.43-5.71c2.42,3.88,4.59,7.5,6.54,10.85s3.69,6.49,5.25,9.41a30.84,30.84,0,0,1,2.9,6.43,21.77,21.77,0,0,1,1,7Q615.77,1654,606.69,1659.31Zm28.14-213.7-13.22-.18-11.7-.69,5.59-3.39,2.81-1.5,2.82-1.39,2.82-1.27,2.84-1.14,2.83-1,2.85-.9,5.58-1.47,5.32-1,2.57-.36,2.51-.26,2.44-.15,2.38,0,1.82,0,1.75.11,1.69.19,1.63.27,1.56.33,1.51.41,1.44.48,1.37.55.35.16.31.15.63.32.32.17.28.16.57.35.29.19.26.17.27.2.24.18.26.21.23.18.24.22.21.19.43.43.21.23.19.2.2.24.17.22.18.25.17.22.16.25.15.23.15.27.13.23.14.27.12.25c.05.2.1.41.16.62l-.52.53c-.22.17-.44.34-.67.5l-1,.56-.34.16-.31.14-.73.29-.79.28-1.8.51-2.07.47-2.35.41-2.63.37-11.79,1Zm142,206.31a5.33,5.33,0,0,1-3.58.73,7.42,7.42,0,0,0-1.13-3.81,2,2,0,0,0-2.13-1,2.93,2.93,0,0,0-1,.69,5.76,5.76,0,0,0-1,1.43q1.28,1.68,2.37,3.45a30.94,30.94,0,0,1,1.88,3.52l-.26.41a17.83,17.83,0,0,1-3.57.7,15,15,0,0,1-3.22.11,56.18,56.18,0,0,0-3.53-5.72c-1.44-2.09-2.8-3.92-4.08-5.51a8,8,0,0,1,2.18-1.82,7.43,7.43,0,0,1,2.65-1.15c.42.34.87.74,1.34,1.18s1,1,1.49,1.52a7.4,7.4,0,0,1,1.76-2.68,6.07,6.07,0,0,1,2.35-1.37,7.41,7.41,0,0,1,4.38.26,8.61,8.61,0,0,1,3.66,2.43,4.86,4.86,0,0,1,1.34,3.62A3.81,3.81,0,0,1,776.85,1651.92Zm85.57-87.17a6.32,6.32,0,0,1,3-2.78c1,0,2.21.49,3.79,1.61a7.43,7.43,0,0,1,2.81,2.94c0,.89-.48,2.11-1.59,3.68a13.69,13.69,0,0,1-3,3.27,19.85,19.85,0,0,1-3.7-2.12,16.59,16.59,0,0,1-3.23-2.79A13.59,13.59,0,0,1,862.42,1564.75ZM881.47,1588c-.12,1-.28,2.07-.49,3.21s-.41,2.49-.65,3.61a33.76,33.76,0,0,1-.91,3.34,46.26,46.26,0,0,0-9.41,1.85,31,31,0,0,0-9.14,4.26c-2.61,1.81-4,4-4.11,6.57a6,6,0,0,0,3.52,5.72,20.6,20.6,0,0,0,9.14,1.64c1.43,0,2.9-.07,4.42-.2s3.06-.31,4.62-.55a27.48,27.48,0,0,1,.6,3c.23,1.39.42,2.85.58,4.38a27.06,27.06,0,0,1,.18,3.77,39.08,39.08,0,0,1-5.64,1.19,41.33,41.33,0,0,1-5.44.37q-9.16,0-15.3-4.17t-6.36-12.32a21.34,21.34,0,0,1,2.79-10.58,26.2,26.2,0,0,1,8.8-9c1.12-.72,2.26-1.41,3.42-2.08s2.36-1.29,3.59-1.88c-1.13-.37-2.28-.74-3.46-1.09s-2.36-.67-3.55-1a25.67,25.67,0,0,0-4-.62c-1.31-.09-2.88-.18-4.73-.26l-.27-.28a44.72,44.72,0,0,1,1-5.41,24.17,24.17,0,0,1,1.62-5,15.72,15.72,0,0,1,8.12.75,56.67,56.67,0,0,1,8,3.61q3.42,1.86,6.72,3.28a17.53,17.53,0,0,0,6.47,1.49A16.16,16.16,0,0,1,881.47,1588Zm73.42-155-6.9.59-3.55.16-3.31,0-3.06-.1-2.83-.24-1.37-.25-.64-.16-.6-.16-.57-.18-.23-.09-.3-.11-.5-.22-.2-.1-.26-.13-.43-.25-.17-.11-.31-.22-.67-.58-1.14-1.94c-.05-.33-.1-.67-.16-1l.15-1.49c0-.11.07-.23.1-.34l.08-.26c.05-.16.11-.32.17-.47l.09-.21.12-.27.1-.21.14-.28.12-.22.16-.28.32-.52.15-.22.2-.3.39-.53.78,0,.92.07,2.26.28,6.2,1,7.11,1.59,3.4.95,3.31,1.06,1.53.56,1.34.57.6.29.24.12.31.17.22.12.29.17.19.13.27.17.17.12.24.18.15.13.28.24c.23.25.45.51.68.77Zm112.41,74.39-6.72,0-7-.32-7-.76-3.61-.53-3.16-.59-2.72-.64-1.2-.34-1.08-.35-1-.37-.89-.38-.78-.38-.35-.2-.18-.11-.15-.09-.24-.16-.35-.25-.25-.21-.89-1.42c0-.1,0-.2,0-.29l0-.35c0-.09,0-.19,0-.28l.06-.33c0-.1,0-.19,0-.28l.15-.59.24-.7,1.77-2.8.43-.41.25-.21.21-.18.49-.37.29-.19.24-.16.57-.33.59-.31.61-.27.34-.14.28-.12.64-.23.65-.2.67-.18.68-.15.7-.13.72-.1.73-.08,1.51-.08,1.57,0,1.63.13,1.9.31,1.89.42,1.89.5,1.89.61,1.88.71,1.87.8,1.87.9,1.87,1,1.82,1.08,1.75,1.16,1.68,1.23,1.61,1.31,1.53,1.38,1.45,1.46,1.39,1.53,1.31,1.6Zm82,117.48a5,5,0,0,1-1.91,2.46,8.33,8.33,0,0,1-3.23,1.25,27.2,27.2,0,0,1-4.93.38c-.59,0-1.21,0-1.87,0s-1.36-.06-2.08-.1a64.39,64.39,0,0,0,.57,6.74,49.18,49.18,0,0,0,1,5.45,11.19,11.19,0,0,1-3.26.92,26.25,26.25,0,0,1-4.07.33l-.23-.18a55.4,55.4,0,0,1-.88-5.69,59.05,59.05,0,0,1-.32-6.1,41.57,41.57,0,0,1,.18-4.26,9.86,9.86,0,0,1,1.64-3.4,6.12,6.12,0,0,1,2.72-2.31l.94.05.91,0a5.77,5.77,0,0,1,0-.83,8.59,8.59,0,0,1,.91-3.73,8,8,0,0,1,7.48-4.62,6.1,6.1,0,0,1,5.32,2.7,12.32,12.32,0,0,1,1.74,6.92A11.43,11.43,0,0,1,1149.25,1624.92Zm50.11-116.2-.24.2-.26.19-.29.19-.3.19-.46.25-.28.15-.76.35-.84.33-.91.32-2.08.59-2.39.54-2.71.48-3,.42-13.61,1.21-15.3.46-15.26-.21-13.5-.8,6.45-3.91,3.24-1.74,3.25-1.6,3.26-1.47,3.27-1.32,3.28-1.18,3.29-1,6.43-1.7,6.15-1.2,3-.42,2.89-.3,2.82-.17,2.75,0,2.1,0,2,.14,2,.22,1.88.3,1.81.39,1.74.47,1.66.56,1.59.64.76.35.72.36.7.39.38.23.28.17.36.24.27.18.59.44.33.26.23.19.53.47.29.29.2.2.47.51.42.52.24.32.16.23.21.32.15.24c.07.11.13.22.19.33s.1.16.14.24.12.23.17.35l.13.25.15.35c0,.13,0,.25,0,.37Zm34.58-1.65c0-.75-.06-1.51-.1-2.26l1.45.35Zm28.53-57.29-7.14.06-7.41-.34-7.41-.8-3.8-.55-3.33-.62-2.88-.67-1.26-.35-1.14-.38-1-.38-.93-.39-.82-.41-.21-.11-.17-.09-.19-.12-.15-.09-.33-.21-.23-.17-.33-.26-.24-.23-.69-1.27,0-.3,0-.37c0-.1,0-.19,0-.29l.06-.35.06-.28c0-.12.06-.23.08-.35a2.68,2.68,0,0,0,.07-.27c.09-.24.17-.49.26-.74l1.68-2.72.18-.2.45-.43.49-.41.29-.22.23-.17.32-.21.24-.16.6-.34.62-.32.64-.29.66-.27.67-.24.69-.21.71-.19.72-.16.74-.13.75-.11.77-.08,1.59-.08,1.66,0,1.72.13,2,.33,2,.43,2,.53,2,.64,2,.74,2,.84,2,.94,2,1,1.94,1.13,1.86,1.22,1.78,1.28,1.71,1.37,1.63,1.44,1.55,1.53,1.47,1.59,1.39,1.68Zm51.13,35.41-1.43,1-2.92,2.16-4,3.13-3.8,3.26-3.59,3.41-3.38,3.54-3.18,3.68c-.3.37-.59.75-.88,1.13.6-1.89,1.21-3.77,1.81-5.66q1-3.43,1.93-6.87l1.65-6.92c.46-2.33.93-4.65,1.39-7s.75-4.69,1.13-7,.57-4.72.85-7.09.4-4.76.59-7.14c0-1.48.09-3,.13-4.44s0-3-.07-4.45c-.06-1.15-.13-2.29-.19-3.43.09.83.19,1.66.29,2.48.27,1.44.53,2.87.8,4.3l1.12,4.33c.47,1.46.94,2.92,1.42,4.38s1.15,3,1.73,4.42l2,4.44,2.36,4.46,2.69,4.48c1,1.49,2,3,3,4.48Zm45.51,76.23a3.48,3.48,0,0,1-.31,2.1,5.74,5.74,0,0,1-3.15,1.22,6.33,6.33,0,0,1-3.41-.08,6,6,0,0,1-1.17-3.13,12.08,12.08,0,0,1-.18-3.61,16.88,16.88,0,0,1,3.12-.84,20.89,20.89,0,0,1,3.44-.38,15.3,15.3,0,0,1-.46-2.72,10.11,10.11,0,0,1,0-2.18,20,20,0,0,1,3.39-.86,16.66,16.66,0,0,1,3.56-.32,13.31,13.31,0,0,1,1.06,3.4,3,3,0,0,1-3,4.57,8.18,8.18,0,0,1-3.43.08A13.64,13.64,0,0,1,1359.11,1561.42Zm9,4.41a6,6,0,0,1-3,1.17,6,6,0,0,1-3.18,0,5.79,5.79,0,0,1-1.12-3,12,12,0,0,1-.2-3.47,17.9,17.9,0,0,1,3.29-.83,17,17,0,0,1,3.36-.31,11.29,11.29,0,0,1,1,3.18A4.84,4.84,0,0,1,1368.13,1565.83Zm-4.9-18.54c-.28-.63-.69-1.52-1.22-2.67s-1.16-2.3-1.89-3.6c-2.43,2-4.85,4.17-7.24,6.44s-4.59,4.51-6.6,6.74c-.84.93-1.61,1.83-2.32,2.71s-1.34,1.73-1.9,2.54c1.31.7,2.55,1.31,3.71,1.83s2.06.9,2.69,1.16l-4.85,8.74a29.87,29.87,0,0,1-3.4-2,33.13,33.13,0,0,1-3.4-2.67,26.44,26.44,0,0,1-3.72-4.1,18.28,18.28,0,0,1-2.57-4.91,37.78,37.78,0,0,1,3.46-5.81,78.59,78.59,0,0,1,6-7.53c1.85-2.06,3.9-4.14,6.18-6.24a53.68,53.68,0,0,1,6-4.93,38,38,0,0,1,5.76-3.57,18.65,18.65,0,0,1,4.94,2.49,26.11,26.11,0,0,1,4.17,3.65,33.38,33.38,0,0,1,2.73,3.35,30.42,30.42,0,0,1,2.05,3.37Zm144.24-95.59-2.59.46-2.9.4-13,1.15-14.62.44-14.58-.2-12.9-.76,6.17-3.73,3.09-1.67,3.11-1.53,3.11-1.4,3.13-1.27,3.13-1.12,3.14-1,6.15-1.62,5.88-1.15,2.83-.4,2.77-.28,2.69-.17,2.63,0,2,0,1.94.13,1.86.21,1.8.29,1.72.37,1.66.45,1.59.54,1.52.61.72.33.7.35.66.37.63.38.6.41.57.41.54.44.5.45.47.47.45.48c.13.17.27.33.41.5l.37.52.35.54.17.3a2,2,0,0,1,.14.25l.29.57c.06.22.12.44.19.66l-.36.4-.34.31-.24.18-.25.19-.28.18-.29.18-.65.34-.72.33-.8.32-.88.3-2,.57Zm10.45,76a13.17,13.17,0,0,1,.6,2.23,2.68,2.68,0,0,1-.12,1.7,5,5,0,0,1-2.49,1.14,5.21,5.21,0,0,1-2.73.16,4.81,4.81,0,0,1-1.11-2.46,10.13,10.13,0,0,1-.37-2.92,15.91,15.91,0,0,1,2.49-.86,13.58,13.58,0,0,1,2.76-.48,12.64,12.64,0,0,1-.54-2.18,7.54,7.54,0,0,1-.12-1.77,19,19,0,0,1,2.7-.88,12.9,12.9,0,0,1,2.83-.48,11,11,0,0,1,1.06,2.69,4.39,4.39,0,0,1,.12,2.75,4.67,4.67,0,0,1-2.33,1.11A6.13,6.13,0,0,1,1517.92,1527.65Zm26.42,17.06a31.38,31.38,0,0,0-2.34-3.82,16.55,16.55,0,0,0-2.51-2.79,6.32,6.32,0,0,0-3.81-1.79,4.41,4.41,0,0,0-3.52,1.77,11.09,11.09,0,0,0-1.83,3.23,15.75,15.75,0,0,0-1,4.79,28.33,28.33,0,0,1,5.33-1.78,2.66,2.66,0,0,1,2.41.52,10.43,10.43,0,0,1,2.84,5.21,20.68,20.68,0,0,1,.41,7.74,21,21,0,0,1-2.83,8.25,23.77,23.77,0,0,1-3.34-2.43,25.12,25.12,0,0,1-3.09-3,46.17,46.17,0,0,0,2.19-4.65,13.53,13.53,0,0,0,.93-3.35,22.22,22.22,0,0,1-4.65,1.62,4.26,4.26,0,0,1-3.65-.53,13.12,13.12,0,0,1-4.14-10.5,20.06,20.06,0,0,1,5-12.35q3.83-4.28,7.9-4.22a12.12,12.12,0,0,1,7.92,3.43,26.92,26.92,0,0,1,4.18,4.7,46.13,46.13,0,0,1,3.69,6.23Zm315.52,22.73c-.86,1-1.71,1.91-2.57,2.76q-2.3,2.23-4,3.6c-1.14.9-1.82,1.42-2,1.56a11.93,11.93,0,0,1-1-1.14c-.33-.45-.65-.92-1-1.42a15.38,15.38,0,0,1-.85-1.48,7.59,7.59,0,0,1-.52-1.27c.89-.55,1.78-1.16,2.67-1.84s1.78-1.39,2.64-2.14c1-.89,2-1.78,2.89-2.68s1.7-1.75,2.4-2.55l3.73,3.42A34.81,34.81,0,0,1,1859.86,1567.44Z"/><path class="cls-7" d="M1527.84,1340.07l.17.14a19.41,19.41,0,0,0,3-.24,8.21,8.21,0,0,0,2.4-.68,35.74,35.74,0,0,1-.74-4,48,48,0,0,1-.42-5c.53,0,1,.06,1.53.07l1.37,0a19.57,19.57,0,0,0,3.64-.28,6.21,6.21,0,0,0,2.37-.91,3.68,3.68,0,0,0,1.41-1.82,8.25,8.25,0,0,0,.44-3,9.12,9.12,0,0,0-1.28-5.09,4.49,4.49,0,0,0-3.91-2,6.06,6.06,0,0,0-3.47,1,6.17,6.17,0,0,0-2,2.38,6.35,6.35,0,0,0-.67,2.75,3.12,3.12,0,0,0,0,.61l-.67,0-.69,0a4.48,4.48,0,0,0-2,1.71,7.11,7.11,0,0,0-1.21,2.49c-.1,1-.14,2-.14,3.14,0,1.5.09,3,.24,4.49S1527.57,1338.78,1527.84,1340.07Zm8.07-16.92a4,4,0,0,1,1.49-.38,3.77,3.77,0,0,1,2,.27,1.49,1.49,0,0,1,.86.86,2.19,2.19,0,0,1-1.11.41,12.65,12.65,0,0,1-2.1.18c-.39,0-.77,0-1.16,0s-.75-.07-1.06-.12A2.06,2.06,0,0,1,1535.91,1323.15Z"/><path class="cls-7" d="M305.12,1337.89q2.56,4.58,5.24,8.44a90.46,90.46,0,0,0,6.71,8.64,42.31,42.31,0,0,0,5.5,5.34,20.46,20.46,0,0,0,6.07-1.54,29.37,29.37,0,0,0,5.51-3,36.81,36.81,0,0,0,3.83-3,32.92,32.92,0,0,0,3.09-3.22l-8.35-7.65c-.46.63-1.13,1.52-2,2.66s-1.87,2.35-3,3.6c-.74-.82-1.5-1.74-2.29-2.76s-1.57-2.1-2.37-3.26q-2.9-4.2-5.69-9c-1.87-3.23-3.66-6.47-5.19-9.67,1.62-.46,3.05-.86,4.45-1.14l3.27-.63-3.24-10.85a32.93,32.93,0,0,0-4.24,1.37,36.93,36.93,0,0,0-4.41,2.12,30.11,30.11,0,0,0-5.12,3.63,20.78,20.78,0,0,0-4,4.8,42.24,42.24,0,0,0,2.41,7.28A61.69,61.69,0,0,0,305.12,1337.89Z"/><path class="cls-7" d="M327,1330a17.59,17.59,0,0,0,3.14.19,18.39,18.39,0,0,0-.51,3.89,23.12,23.12,0,0,0,.09,3.69,14.81,14.81,0,0,0,4.06.73,6.82,6.82,0,0,0,3.75-.46,7.17,7.17,0,0,0,.92-3.71,7.07,7.07,0,0,0-.47-3.81,3.89,3.89,0,0,0-2.22-.86,17.14,17.14,0,0,0-3.22-.14,8.84,8.84,0,0,0,.82-3.78,6.61,6.61,0,0,0-.51-3.57,6.05,6.05,0,0,0-3.72-1,14.75,14.75,0,0,0-4,.29,17.36,17.36,0,0,0-.55,4,26.42,26.42,0,0,0,0,4A10.74,10.74,0,0,0,327,1330Z"/><path class="cls-7" d="M1176.65,1361.39h.45a30.12,30.12,0,0,0,1.75-3.3c.53-1.18,1-2.39,1.43-3.64a5.43,5.43,0,0,1,1.63,0,2.63,2.63,0,0,1,1.06.42,1.87,1.87,0,0,1,.31,2.2,7,7,0,0,1-2.36,2.86,5,5,0,0,0,2.44,2.4,3.59,3.59,0,0,0,3.35-.13,4.6,4.6,0,0,0,2.11-2.94,8.3,8.3,0,0,0,0-4.11,6.89,6.89,0,0,0-2.09-3.52,5.51,5.51,0,0,0-2.28-1.1,6.91,6.91,0,0,0-3,0c.17-.69.3-1.34.4-1.94s.17-1.16.21-1.66a6.78,6.78,0,0,0-2.28-1.45,7.33,7.33,0,0,0-2.54-.75c-.56,1.83-1.27,3.84-2.14,6a53,53,0,0,1-2.59,5.73,14.42,14.42,0,0,0,1.77,2.43A16.32,16.32,0,0,0,1176.65,1361.39Z"/><path class="cls-7" d="M1622,1356q3-2.32,6.36-4.56c1.88-1.27,3.78-2.47,5.71-3.58s3.83-2.12,5.7-3a13.85,13.85,0,0,0-.71-2.64c-.36-1-.8-2-1.31-3.11s-1-2.07-1.56-3a20.9,20.9,0,0,0-1.65-2.48q-.74.32-4.42,2.58a105.65,105.65,0,0,0-8.75,6.11q-2.84,2.19-5.72,4.83a62.93,62.93,0,0,0-5.51,5.67l6.52,7.65Q1619.05,1358.33,1622,1356Z"/><path class="cls-7" d="M1756.5,1337.9c0-1.47.16-3.08.35-4.83s.44-3.54.78-5.39c.28-1.56.6-3.09,1-4.59s.79-2.95,1.26-4.31a9.89,9.89,0,0,0-1.66-.91,20.43,20.43,0,0,0-2.19-.85c-.77-.27-1.53-.5-2.27-.68a15.51,15.51,0,0,0-2-.38c-.13.35-.41,1.51-.85,3.46a72.62,72.62,0,0,0-1.17,7.34c-.18,1.66-.3,3.39-.35,5.2a46.39,46.39,0,0,0,.18,5.51Z"/><path class="cls-7" d="M1755.41,1340.65a9.54,9.54,0,0,0-1.4,2.73,4.52,4.52,0,0,0-.41,2.76,5.17,5.17,0,0,0,2.42,1.47,4.67,4.67,0,0,0,2.84.41,4.42,4.42,0,0,0,1.51-2.42,9.56,9.56,0,0,0,.6-2.91,12,12,0,0,0-2.68-1.29A13.36,13.36,0,0,0,1755.41,1340.65Z"/><path class="cls-7" d="M1132.92,1348.3a3.74,3.74,0,0,0-.21-1.34,3.5,3.5,0,0,0-.57-1.21c-.87.4-1.88.8-3,1.2a27.55,27.55,0,0,1-3,.89,8.37,8.37,0,0,0-.35,1.47,7.92,7.92,0,0,0-.13,1.71l.14.17a10.67,10.67,0,0,0,1.85-.42c.62-.19,1.25-.42,1.87-.68a2.77,2.77,0,0,1,.51.65,1.53,1.53,0,0,1,.21.55c0,.39-.24.68-.72.86a3.57,3.57,0,0,1-1.89,0,2.54,2.54,0,0,0-.11,1.74,1.79,1.79,0,0,0,1.16,1.23,2.75,2.75,0,0,0,2.68-.74,3.82,3.82,0,0,0,1.35-2.76,2.89,2.89,0,0,0-.34-1.25,3.51,3.51,0,0,0-1-1.16c.32-.17.62-.33.88-.49Z"/><path class="cls-7" d="M1117.77,1348.93q.59,2.35,1.38,5.1T1121,1360l5.17-1.61c-.77-2.13-1.5-4.2-2.21-6.2s-1.3-3.88-1.82-5.61a38.85,38.85,0,0,1,4.74-1.34c1.74-.38,3.45-.7,5.11-1s3.07-.43,4.22-.54a25.19,25.19,0,0,0,.11-3.13,30,30,0,0,0-.25-3.14,49.59,49.59,0,0,0-11.44,1.81,31.39,31.39,0,0,0-7.12,2.82,10.55,10.55,0,0,0-.33,3.45A15.45,15.45,0,0,0,1117.77,1348.93Z"/><path class="cls-7" d="M75.61,1371.48q1.31,5.24,3,11.27t4,13.13l11.41-3.54q-2.53-7.08-4.87-13.72t-4-12.4a84.93,84.93,0,0,1,10.46-2.94q5.79-1.27,11.3-2.11t9.32-1.19a55.36,55.36,0,0,0,.25-6.93,64.32,64.32,0,0,0-.56-6.92,108.87,108.87,0,0,0-25.27,4q-10.93,3.24-15.74,6.22a23.53,23.53,0,0,0-.73,7.62A34.2,34.2,0,0,0,75.61,1371.48Z"/></svg>