<svg xmlns="http://www.w3.org/2000/svg" viewBox="0 0 542.52 547.48"><defs><style>.cls-1{font-size:219.8px;font-family:Lalezar-Regular, Lalezar;}.cls-1,.cls-2{fill:#414042;stroke:#414042;stroke-miterlimit:10;stroke-width:29px;}.cls-3{fill:#659357;}.cls-4{fill:#fcb64b;}.cls-5{fill:#f89b48;}.cls-6{fill:#906fb1;}.cls-7{fill:#7755a3;}.cls-8{fill:#fff;}.cls-9{fill:#8dc63f;}</style></defs><g id="Layer_2" data-name="Layer 2"><g id="Layer_1-2" data-name="Layer 1"><text class="cls-1" transform="translate(333.92 403.74)">ع</text><path class="cls-2" d="M526.5,276.17a27.81,27.81,0,0,0-27.81-27.82H408V174.18h0A41.21,41.21,0,0,0,366.82,133H322.2a1,1,0,0,1-1-1V113.31a5.15,5.15,0,0,0-8.51-3.9l-20,17.25V42.31A27.81,27.81,0,0,0,264.83,14.5H42.32a28.84,28.84,0,0,0-3.1.17h0A27.8,27.8,0,0,0,14.5,42.31V264.83a27.81,27.81,0,0,0,27.82,27.82H133v74.17A41.21,41.21,0,0,0,174.18,408h42.24a3.09,3.09,0,0,1,3.09,3.09v16.57a5.15,5.15,0,0,0,8.51,3.9l20.33-17.52v84.61a27.81,27.81,0,0,0,27.82,27.82H498.69a27.81,27.81,0,0,0,27.64-24.72h0a28.84,28.84,0,0,0,.17-3.1ZM248.35,360.78,228,343.26a5.15,5.15,0,0,0-8.51,3.9v16.57a3.09,3.09,0,0,1-3.09,3.09H174.18V292.65h74.17ZM366.82,248.35H292.65V180.49l20,17.25a5.15,5.15,0,0,0,8.51-3.9V175.21a1,1,0,0,1,1-1h44.62Z"/><path class="cls-3" d="M174.18,360.82l-19.33,10.74L133,360.82V268.71h41.21Z"/><path class="cls-3" d="M408,256.58H366.82v-88.4l19.46-15.75L408,168.18Z"/><path class="cls-4" d="M250.9,273.38c0-14.32,9.84-25,22.18-30.86a28.51,28.51,0,0,1,3.09-.17H498.69a27.81,27.81,0,0,1,27.81,27.82V492.68a28.84,28.84,0,0,1-.17,3.1c-7.47,12.37-20.88,21.21-35.2,21.21l-209.81-1.94a27.83,27.83,0,0,1-27.82-27.82Z"/><path class="cls-5" d="M526.34,495.78a27.83,27.83,0,0,1-27.65,24.72H276.17a27.81,27.81,0,0,1-27.82-27.82V270.17a27.81,27.81,0,0,1,24.73-27.64v105a3.11,3.11,0,0,0,1.07,2.34l14,12.09a25.78,25.78,0,0,1,0,39l-14,12.09a3.11,3.11,0,0,0-1.07,2.34v70.11a10.31,10.31,0,0,0,10.3,10.31Z"/><path class="cls-6" d="M17.05,39.53c0-14.32,9.84-25,22.17-30.86a28.84,28.84,0,0,1,3.1-.17H264.83a27.81,27.81,0,0,1,27.82,27.81V93.46l-12.29,52.36,12.29,55.88v57.13a28.51,28.51,0,0,1-.17,3.09c-7.47,12.38-20.88,21.21-35.2,21.21L47.47,281.2a27.82,27.82,0,0,1-27.82-27.82Z"/><path class="cls-7" d="M292.48,261.92a27.83,27.83,0,0,1-27.65,24.73H42.32A27.81,27.81,0,0,1,14.5,258.83V36.31A27.82,27.82,0,0,1,39.22,8.67v243a10.31,10.31,0,0,0,10.31,10.3Z"/><path class="cls-8" d="M170.59,52.55a16.89,16.89,0,0,0-15.68-10.5h0a16.91,16.91,0,0,0-15.68,10.53L76.82,216.43a13.19,13.19,0,1,0,24.66,9.39l11.8-31a1.93,1.93,0,0,1,1.8-1.24h79.21a1.92,1.92,0,0,1,1.8,1.24l11.55,30.6a13.44,13.44,0,0,0,16.53,8.25,13.19,13.19,0,0,0,8.29-17.22S170.64,52.67,170.59,52.55Zm-45.79,112,28.27-74.23a1.92,1.92,0,0,1,3.59,0l28,74.23a1.93,1.93,0,0,1-1.8,2.6H126.59a1.92,1.92,0,0,1-1.79-2.61Z"/><path class="cls-9" d="M133,360.82A41.21,41.21,0,0,0,174.18,402h42.24a3.09,3.09,0,0,1,3.09,3.09v16.57a5.15,5.15,0,0,0,8.51,3.9l46.71-40.26a5.15,5.15,0,0,0,0-7.81L228,337.26a5.15,5.15,0,0,0-8.51,3.9v16.57a3.09,3.09,0,0,1-3.09,3.09Z"/><path class="cls-7" d="M292.65,93.46V201.7l-40.16-34.61a25.78,25.78,0,0,1,0-39Z"/><path class="cls-9" d="M408,168.18A41.21,41.21,0,0,0,366.82,127H322.2a1,1,0,0,1-1-1V107.31a5.15,5.15,0,0,0-8.51-3.9L266,143.67a5.15,5.15,0,0,0,0,7.81l46.71,40.26a5.15,5.15,0,0,0,8.51-3.9V169.21a1,1,0,0,1,1-1Z"/><path class="cls-8" d="M440.64,447.31a126.46,126.46,0,0,1,1.43,18.79,109.59,109.59,0,0,1-30.78,4.62,104,104,0,0,1-27.14-3.41,73.2,73.2,0,0,1-22.09-9.78,49.35,49.35,0,0,1-15.94-17.37,48.57,48.57,0,0,1-5.6-23.51,58.94,58.94,0,0,1,7.36-29.24,73.89,73.89,0,0,1,20.55-23.08c2.64-1.9,4.1-2.93,4.4-3.08Q361,344.12,361,328.29a41.19,41.19,0,0,1,11.87-29.24,53.41,53.41,0,0,1,15.49-11.32,61.76,61.76,0,0,1,20.12-5.82c3.22-.29,5.63-.44,7.25-.44A69.48,69.48,0,0,1,430.2,283q1.1,5.49,1.1,21.32a93.31,93.31,0,0,1-.44,10.55q-16.49,0-25.5,1.76Q390,319.49,390,326.53q0,5.27,7.26,12.09a62.31,62.31,0,0,0,9.89,7.47,188.9,188.9,0,0,1,31.65-5.5l.88.88q0,8.58-1,21.32t-2.31,17.15a203.57,203.57,0,0,0-20.77,2.64,95.73,95.73,0,0,0-19.89,5.49q-10.56,4.19-16.93,10.11t-6.37,13.63q0,9.88,11,14.95t31.21,5.05a185.68,185.68,0,0,0,23.08-1.76Q439,434.67,440.64,447.31Z"/></g></g></svg>