<svg xmlns="http://www.w3.org/2000/svg" xmlns:xlink="http://www.w3.org/1999/xlink" viewBox="0 0 667.98 800.64" preserveAspectRatio="none"><defs><style>.cls-1{fill:#373737;opacity:0.05;}.cls-2{fill:url(#New_Gradient_Swatch_4);}</style><linearGradient id="New_Gradient_Swatch_4" x1="234.48" y1="-259.25" x2="411.77" y2="970.25" gradientUnits="userSpaceOnUse"><stop offset="0" stop-color="#c3daf0"/><stop offset="1" stop-color="#f7f7fb"/></linearGradient></defs><g id="Layer_2" data-name="Layer 2"><g id="register_page"><g id="assets"><path class="cls-1" d="M34,575.08,14,236.39A178,178,0,0,1,166.51,60.28L480.06,15A163.18,163.18,0,0,1,642.27,174.34l25.67,410c2.33,131.27-113.75,233.23-243.63,214L197.57,764.69A191.67,191.67,0,0,1,34,575.08Z"/><path class="cls-2" d="M20,560.08,0,221.39A178,178,0,0,1,152.51,45.28L466.06,0A163.18,163.18,0,0,1,628.27,159.34l25.67,410c2.33,131.27-113.75,233.23-243.63,214L183.57,749.69A191.67,191.67,0,0,1,20,560.08Z"/></g></g></g></svg>
