<svg xmlns="http://www.w3.org/2000/svg" xmlns:xlink="http://www.w3.org/1999/xlink" viewBox="0 0 379.78 236.99"><defs><style>.cls-1{fill:#ffd5a0;}.cls-1,.cls-2{stroke:#fff;stroke-miterlimit:10;stroke-width:1.5px;}.cls-2{fill:#fed5a0;}.cls-3{fill:#dec8ab;}.cls-4{fill:url(#linear-gradient);}.cls-5{fill:#414141;}.cls-6{fill:#fdb822;}.cls-7{fill:#fdb823;}.cls-8{fill:url(#linear-gradient-2);}.cls-9{fill:url(#linear-gradient-3);}.cls-10{fill:#725e3a;}.cls-11{fill:url(#linear-gradient-4);}.cls-12{fill:#424241;}.cls-13{fill:#286db6;}.cls-14{fill:#2a6cb5;}.cls-15{fill:#ffd59f;}.cls-16{fill:#fcd39f;}.cls-17{fill:#fcd4a0;}.cls-18{fill:#296db6;}.cls-19{fill:#fbd3a0;}.cls-20{fill:#296db5;}.cls-21{fill:#ffd49c;}.cls-22{fill:#f5cfa2;}.cls-23{fill:#fed194;}.cls-24{fill:#fed192;}.cls-25{fill:#f9d1a0;}.cls-26{fill:#fecf8d;}.cls-27{fill:#fed091;}.cls-28{fill:#fecf8f;}.cls-29{fill:#fece8b;}.cls-30{fill:#fecf8c;}.cls-31{fill:#ebc9a5;}.cls-32{fill:#fecf8e;}.cls-33{fill:#e3c3aa;}.cls-34{fill:#fed193;}.cls-35{fill:#fec97a;}.cls-36{fill:#feca7e;}.cls-37{fill:#6579ba;}.cls-38{fill:#e2c0a2;}.cls-39{fill:#fecc85;}.cls-40{fill:#fed08f;}.cls-41{fill:#dbbead;}.cls-42{fill:#ffd49d;}.cls-43{fill:#fdd49f;}.cls-44{fill:#fed49f;}.cls-45{fill:#f7f7f7;}.cls-46{fill:#c4c3c3;}.cls-47{fill:#d09a2c;}.cls-48{fill:#f7f8f8;}.cls-49{fill:#eecaa4;}.cls-50{fill:#f2cca5;}.cls-51{fill:#dcbfac;}.cls-52{fill:#f2cda3;}.cls-53{fill:#c6b2b3;}.cls-54{fill:#d6bbae;}.cls-55{fill:#fbd2a1;}.cls-56{fill:#e8c6a5;}</style><linearGradient id="linear-gradient" x1="193.06" y1="69.32" x2="206.77" y2="444.57" gradientUnits="userSpaceOnUse"><stop offset="0" stop-color="#fbc61f"/><stop offset="1" stop-color="#fdeef4"/></linearGradient><linearGradient id="linear-gradient-2" x1="313.92" y1="64.9" x2="327.63" y2="440.16" gradientUnits="userSpaceOnUse"><stop offset="0" stop-color="#fcde81"/><stop offset="1" stop-color="#fdeef4"/></linearGradient><linearGradient id="linear-gradient-3" x1="306.01" y1="65.19" x2="319.72" y2="440.44" xlink:href="#linear-gradient-2"/><linearGradient id="linear-gradient-4" x1="68.89" y1="73.86" x2="82.6" y2="449.11" xlink:href="#linear-gradient-2"/></defs><g id="Layer_2" data-name="Layer 2"><g id="page2"><path class="cls-1" d="M112.19,183.18c-.09-.27-.34-.65-.24-.81.36-.58.18-1.18.24-1.78s.19-1.26.26-1.89-.12-1.29.25-1.92c.16-.26,0-.7,0-1.05s.19-.55.25-.83a7.62,7.62,0,0,1,.3-1.75,22,22,0,0,0,.67-2.66,13,13,0,0,0,.61-2.69c.16-1.52.76-2.94.88-4.48a24.23,24.23,0,0,1,.52-2.59c.15-.82.33-1.66.55-2.45.4-1.41.38-2.91,1-4.25a15.52,15.52,0,0,1,.58-3.39,20.18,20.18,0,0,1,.7-2.91,18.7,18.7,0,0,0,.33-1.87c.23-1.06.42-2.13.72-3.18a14.46,14.46,0,0,0,.34-1.74c.23-1.49.62-2.95,1-4.41.14-.57.16-1.16.34-1.73s0-1.3.33-1.73-.1-1.26.47-1.69a12,12,0,0,1,.61-3.24c.17-1,.51-1.95.66-2.91s.48-2.15.67-3.23a38.44,38.44,0,0,1,.83-3.8c.26-1,.46-2,.69-2.92.18-.77.44-1.53.55-2.31a20.77,20.77,0,0,1,.5-2.21c.22-.89.35-1.81.59-2.7.35-1.24.3-2.59,1-3.72a19.11,19.11,0,0,1,.54-2.71c.1-.81.42-1.55.53-2.33s.38-1.47.49-2.2a29.58,29.58,0,0,0,.64-3,13.85,13.85,0,0,1,.58-2.43c.26-1,.42-2,.71-3,.4-1.35.65-2.75,1-4.13.23-.88.4-1.8.61-2.69a27.34,27.34,0,0,1,.57-2.72,19.81,19.81,0,0,0,.7-2.64c.24-1.32.55-2.63.9-3.93.61-2.33,1.05-4.7,1.75-7a39.3,39.3,0,0,0,1.2-4.6,14.82,14.82,0,0,1,.85-2.45,38.66,38.66,0,0,1,2.63-5.74A17.92,17.92,0,0,1,145.72,48a3.21,3.21,0,0,0,.74-.9c.17-.32.74-.26.67-.76.49,0,.62-.45.93-.67s.61-.46.94-.65a16.56,16.56,0,0,1,4.16-1.92,19.07,19.07,0,0,0,3.42-.79c1.39.14,2.81-.28,4.19.22a2.92,2.92,0,0,0,.79.05c1.7.09,3.42.07,5.1.31.82.12,1.62.18,2.44.24a5.69,5.69,0,0,1,1.15.33V41.64c-.68-.52-1.41-1.1-2.15-1.66a3.9,3.9,0,0,1-1.26-3c-.14-1.25-.23-2.51-.27-3.77s0-2.59,0-3.89a27.75,27.75,0,0,0,0-3.87c-.49-3.63.07-7.27-.29-10.87-.25-2.47-.09-4.93-.21-7.39a5.12,5.12,0,0,1,1.78-4.37,6.87,6.87,0,0,1,2.8-1.66,8.66,8.66,0,0,1,2.25-.36c.72,0,1.5-.32,2.17.24a4.59,4.59,0,0,1,3,1.09A7.85,7.85,0,0,1,179.92,4a4.39,4.39,0,0,1,.57,2.17,38.59,38.59,0,0,1,.28,4.17,20.39,20.39,0,0,0,0,4.28c.43,2.73-.07,5.49.27,8.19s0,5.48.27,8.19c.16,1.44.12,2.88.24,4.31a19.54,19.54,0,0,1-.3,3,1.33,1.33,0,0,1-.35.78,19.39,19.39,0,0,1-1.85,1.66,1.47,1.47,0,0,0-.75,1.41c.09.76-.13,1.56.37,2.3l3.71.32c.5.05,1,.35,1.49.28a1.64,1.64,0,0,1,1.37.25s.17,0,.26,0a5.33,5.33,0,0,1,1.92.23c.55.24,1.28-.13,1.88.29.12.08.35,0,.53,0a4.77,4.77,0,0,1,1.78.25c.49.2,1.12-.18,1.63.27.09.09.34,0,.52,0a5.19,5.19,0,0,1,1.78.23c.53.21,1.21-.13,1.75.3.06,0,.18,0,.27,0a5.75,5.75,0,0,1,1.91.23c.56.24,1.29-.12,1.89.3.12.08.35,0,.53,0a4.68,4.68,0,0,1,1.77.24c.5.2,1.13-.18,1.63.28.07.07.26,0,.39,0a5.67,5.67,0,0,1,1.91.24c.54.2,1.21-.13,1.76.29.05.05.17,0,.26,0a5.81,5.81,0,0,1,1.92.23c.55.24,1.23.06,1.89.26a16.86,16.86,0,0,0,3,.32c.46.05.91.17,1.37.26s1-.22,1.38.22a.3.3,0,0,0,.25,0c1.06-.19,2,.26,3.1.32a9,9,0,0,1,2.15.28c.74.22,1.51,0,2.16.25s1.23.07,1.77.26a10.05,10.05,0,0,0,1.77.25c1.4.25,2.81.35,4.2.57a11.48,11.48,0,0,1,1.89.26c.6.23,1.22.07,1.76.26s1.32.08,1.9.27,1.32.07,1.9.27c1,.35,2.13.1,3.18.64l1.15-3.28a6.89,6.89,0,0,1-1.89-2.62,2,2,0,0,1-.19-1.11c.42-1.79.85-3.57,1.36-5.33.26-.91.55-1.83.84-2.73s.69-1.77,1-2.67.52-1.84.82-2.74c1-3,2-6,3-9.06.52-1.57,1-3.15,1.54-4.72.38-1.13.81-2.25,1.21-3.38s1.45-1.92,2.27-2.81c.76-.08,1.32-.72,2.14-.67s1.6,0,2.41,0a7.81,7.81,0,0,1,2.18.53,9,9,0,0,1,4.21,3.08,10.85,10.85,0,0,1,1.11,1.94.15.15,0,0,1,0,.13c-.44.71-.11,1.54-.34,2.27-.53,1.74-1.19,3.44-1.67,5.2-.63,2.28-1.53,4.46-2.17,6.73s-1.54,4.46-2.17,6.73-1.47,4.4-2.1,6.63a36.53,36.53,0,0,1-1.18,3.53,5.34,5.34,0,0,1-4.15,3.65.79.79,0,0,0-.69.64c-.06.23-.15.47-.27.82.08.08.21.33.37.37.62.15,1.26.2,1.88.33a21,21,0,0,1,2.09.44c.65.2,1.34.12,2,.33s1.68.24,2.49.45a6.94,6.94,0,0,1,2.28.65c1.2-.07,2.15.63,3.16,1.09a16.79,16.79,0,0,1,2.94,1.62A25.81,25.81,0,0,1,273,61.6a9.39,9.39,0,0,1,2,2.4,22.66,22.66,0,0,1,1.56,3,26.82,26.82,0,0,1,1.14,3.67,24.72,24.72,0,0,1,.82,4.35c.48.68.25,1.44.25,2.17,0,1.18.4,2.31.3,3.5a33.66,33.66,0,0,0,0,3.48c0,1.32-.39,2.58-.3,3.91a16.3,16.3,0,0,1,0,4c-.36,2,0,4.06-.26,6s0,3.7-.28,5.51,0,3.53-.26,5.24,0,3.62-.27,5.38,0,3.62-.27,5.38,0,3.26-.26,4.84,0,3.26-.27,4.84,0,3.09-.27,4.58,0,3.17-.26,4.71,0,3.17-.28,4.7c-.23,1.32,0,2.64-.26,3.91-.28,1.45,0,2.9-.27,4.31s0,2.73-.27,4,0,2.9-.27,4.3,0,2.73-.26,4,0,2.74-.27,4,0,2.64-.26,3.91,0,2.82-.28,4.17,0,2.54-.25,3.78,0,2.72-.29,4,0,2.55-.25,3.78c-.3,1.48,0,3-.29,4.43s0,2.64-.25,3.91c-.2,1.09,0,2.19-.27,3.24-.3,1.44-.59,2.89-.77,4.36-.55.44-.06,1.16-.45,1.69s0,1.07-.27,1.63-.15,1.18-.36,1.72c-.58,1.42-.8,2.94-1.44,4.35s-1.08,2.68-1.76,4a38.18,38.18,0,0,1-3.18,5,26.77,26.77,0,0,1-2,2.25c-.28.31-.46.73-.77,1a52.69,52.69,0,0,1-6.56,5.17,25.75,25.75,0,0,1-5.83,2.4,9.32,9.32,0,0,1-1.06,0c-1.08.13-2.2-.3-3.24.26-.57-.51-1.26-.2-1.9-.25s-1.25,0-1.87,0c-.41,0-.82-.2-1.23-.24s-.9,0-1.34,0a1.33,1.33,0,0,1-.49-.28c-.69.75-1.32,1.46-2,2.15a4.5,4.5,0,0,1-2.32,1.51.89.89,0,0,1-.35.11,25,25,0,0,1-3.77.29,16.88,16.88,0,0,1-2.14,0c-1.39-.32-2.8-.08-4.17-.29-1-.14-1.92-.06-2.83-.26a20.75,20.75,0,0,0-2.18-.24,19.27,19.27,0,0,0-2.3-.28,13.55,13.55,0,0,1-2.29-.3c-.69-.15-1.4,0-2-.24a7.12,7.12,0,0,0-2-.24c-.51,0-.94-.37-1.5-.29a3.06,3.06,0,0,1-1.38-.19c-.66-.22-1.42-.1-2.15-.29a25.08,25.08,0,0,1-2.81-.35c-1-.37-2,.11-2.88-.48-.88.19-1.7-.27-2.56-.29-.5,0-1-.18-1.5-.24a8,8,0,0,1-1.51-.23c-.62-.21-1.34-.09-2-.28-.9-.24-1.9-.11-2.82-.33-1.39-.34-2.85-.27-4.23-.74-.62-.21-1.34-.08-2-.27a20.42,20.42,0,0,0-2.83-.31c-.46,0-.9-.18-1.36-.26s-.88.16-1.24-.26c-.08-.08-.35,0-.52,0a4.34,4.34,0,0,1-1.64-.26c-.53-.13-1.07,0-1.64-.22a10.11,10.11,0,0,0-2.29-.29c-1.5-.11-2.93-.7-4.46-.58-.49-.39-1.14-.1-1.61-.3a5.28,5.28,0,0,0-1.65-.24c-.41,0-.81-.17-1.23-.26s-.9-.19-1.36-.27-.88.17-1.24-.25c-.06-.06-.26,0-.39,0-.8.19-1.52-.24-2.29-.31a12.38,12.38,0,0,1-2.21-.45c-.58-.18-1.25-.16-1.89-.3-1.16-.25-2.37-.27-3.51-.58-1.49-.4-3-.76-4.49-1.12a23.93,23.93,0,0,1-3.28-1.12,7,7,0,0,1-4-4.15c-.12-.31-.23-.62-.39-1.05a18,18,0,0,1-3.62-.62,23.78,23.78,0,0,1-3.72-1,18.67,18.67,0,0,1-3.58-1.38,10,10,0,0,1-3.11-2.21,3.61,3.61,0,0,0-.86-.84c-.29-.17-.44-.45-.66-.63a9,9,0,0,1-1.26-1.36,36.65,36.65,0,0,1-5.13-8.31c-.36-.83-.64-1.7-1-2.54a9.35,9.35,0,0,1-.75-2.49c-.13-1.32-.83-2.55-.6-3.92A.72.72,0,0,0,112,192c-.32-.43,0-.72.16-1.06Zm126.19,47.6c.16.13.29.32.43.32.58,0,1.16,0,1.74,0s1.09.24,1.63.24c1.92,0,3.84.06,5.76,0a9.91,9.91,0,0,0,2.22-.43,15.93,15.93,0,0,0,4.32-1.87,31.28,31.28,0,0,0,4.62-3.35,9.29,9.29,0,0,0,1.55-1.46,12.78,12.78,0,0,1,1.58-1.63,2.37,2.37,0,0,0,.47-.48c.75-1.36,1.86-2.5,2.54-3.9a27.71,27.71,0,0,0,1.92-3.76c.08-.27.17-.55.28-.82a50.1,50.1,0,0,0,1.94-5.89c.43-1.49.52-3.08.86-4.6a11.89,11.89,0,0,1,.29-1.89,20,20,0,0,0,.71-4.11c.24-1.31.06-2.68.28-4s-.06-2.86.26-4.31c.27-1.21,0-2.5.27-3.77s0-2.68.27-4,0-2.86.26-4.31,0-2.68.27-4,0-2.69.28-4c.23-1.18.05-2.42.25-3.64.23-1.5,0-3.05.29-4.57.22-1.19,0-2.42.24-3.65.26-1.53,0-3.13.3-4.7.21-1.28-.16-2.61.27-3.91a7.09,7.09,0,0,0,0-1.6,11.31,11.31,0,0,0,.11-1.42,10.08,10.08,0,0,1,.17-1.33,28.6,28.6,0,0,1,.19-3.91c.27-1.63,0-3.31.3-5,.23-1.37,0-2.77.23-4.18.28-1.72,0-3.49.3-5.24.24-1.55-.09-3.14.26-4.72a12.59,12.59,0,0,0,0-3.07c0-1,.32-2,.31-3a17,17,0,0,1,.19-4.32,15.57,15.57,0,0,0,0-3.06c0-.92.19-1.83.26-2.75.11-1.57,0-3.13.21-4.72.3-2.12,0-4.29.29-6.45s0-4.1.25-6.18a38.44,38.44,0,0,0,0-5.88c0-2-.17-4-.26-5.92,0-.09,0-.19,0-.26-.6-1.49-.57-3.12-1-4.66a31.88,31.88,0,0,0-1.35-4A17,17,0,0,0,272.92,63a11,11,0,0,0-3.74-3.28c-.85-.43-1.76-.71-2.61-1.14a13.94,13.94,0,0,0-1.39-.52,27.52,27.52,0,0,0-2.92-.7c-.83-.23-1.72-.37-2.58-.58a8.24,8.24,0,0,1-1.5-.25c-.48-.2-1.07,0-1.63-.27s-1.07-.05-1.63-.26-1.12,0-1.62-.31c-1.56.11-3-.61-4.6-.54a.78.78,0,0,1-.37-.06,8.52,8.52,0,0,0-2.49-.44,9.45,9.45,0,0,0-2.7-.3c-.53-.43-1.21-.1-1.75-.3a5.66,5.66,0,0,0-1.91-.23,1.77,1.77,0,0,1-.4,0A11.41,11.41,0,0,0,236,53.3c-.13,0-.33.06-.39,0-.44-.49-1-.2-1.5-.25s-1-.38-1.64-.3c-.9.13-1.77-.43-2.69-.24-.35-.37-.81-.23-1.23-.28s-.91-.19-1.37-.25a6,6,0,0,1-1.91-.24c-.56-.24-1.24,0-1.9-.27s-1.32,0-2-.25a12,12,0,0,0-2.16-.28c-1.29-.25-2.61-.34-3.92-.54s-2.53-.33-3.8-.55c-1.1-.19-2.24-.2-3.36-.29-.09,0-.21,0-.27,0-.54-.43-1.22-.1-1.75-.3a5.47,5.47,0,0,0-1.91-.23c-.14,0-.33,0-.4,0-.4-.4-.91-.2-1.37-.27s-.9-.2-1.36-.25a11.29,11.29,0,0,1-2.82-.33c-1-.41-2.11-.06-3.16-.43a27.32,27.32,0,0,0-3.08-.36c-.73-.16-1.49-.06-2.15-.28a6.82,6.82,0,0,0-1.38-.22c-.46-.07-.91-.21-1.36-.26-1.17-.11-2.34-.18-3.51-.27,0,0-.1,0-.13,0-.54-.43-1.22-.09-1.76-.29a5.4,5.4,0,0,0-1.9-.24c-.14,0-.32.06-.4,0-.45-.41-1-.19-1.5-.26s-1-.21-1.5-.26c-1.16-.11-2.33-.18-3.5-.27-.05,0-.1,0-.13,0-.88-.6-2,0-2.86-.54-1.5.12-2.95-.47-4.45-.27-.17,0-.42.08-.52,0-.55-.48-1.19-.16-1.78-.25a12.26,12.26,0,0,0-1.89-.26,27.27,27.27,0,0,0-5.92.26c-.32.08-.64.21-1,.26s-.75-.08-1.05.05c-1.43.66-2.83,1.36-4.23,2.07s-2.37,2.08-3.46,3.21c-.41.42-.62,1-1,1.45s-.67,1.27-1.09,1.83a11.88,11.88,0,0,0-.94,1.89,51.5,51.5,0,0,0-2.26,5.62,23.94,23.94,0,0,0-1,3.33c-.25,1.19-.65,2.34-.9,3.53-.17.8-.42,1.6-.6,2.42-.28,1.26-.69,2.49-1,3.75-.2,1-.36,1.93-.61,2.84s-.43,1.77-.72,2.64-.29,1.84-.59,2.71-.43,2-.73,3a11.09,11.09,0,0,0-.55,2.31c-.1,1.5-.9,2.84-.86,4.35-.67,1.72-.8,3.58-1.34,5.33-.29,1-.47,2-.71,2.92-.32,1.25-.52,2.54-.86,3.79-.16.57,0,1.3-.32,1.73s.07,1.26-.46,1.7a22.84,22.84,0,0,1-.57,2.58,33.53,33.53,0,0,1-.75,3.3,12.32,12.32,0,0,0-.56,2.57c0,1.13-.64,2.1-.69,3.21a3.81,3.81,0,0,1-.19,1.26c-.64,1.73-.81,3.58-1.28,5.36-.16.57,0,1.29-.33,1.73s.09,1.25-.46,1.69c-.28,1.4-.54,2.81-.84,4.21a11.52,11.52,0,0,1-.34,1.73,15.38,15.38,0,0,0-.67,2.92,12.45,12.45,0,0,0-.61,3.24,31.28,31.28,0,0,0-1.07,4.79,12.81,12.81,0,0,1-.29,1.61,24.43,24.43,0,0,0-1,4.27c-.21,1.08-.5,2.14-.66,3.24a16.1,16.1,0,0,1-.7,2.9c-.23.63-.06,1.41-.33,2s-.1,1.33-.48,1.95a2.87,2.87,0,0,0-.28,1.35,24.3,24.3,0,0,1-.65,3.36c-.14,1-.47,1.95-.65,2.92s-.43,2.17-.69,3.22c-.33,1.28-.51,2.61-.92,3.89a14.48,14.48,0,0,0-.29,2.15,7.49,7.49,0,0,1-.29,2.3c.11,1.93-.42,3.83-.29,5.78.09,1.24,0,2.5,0,3.75a25.16,25.16,0,0,0,.34,3.36,22.05,22.05,0,0,0,.72,3.43,28.37,28.37,0,0,0,1.49,4.33c.75,1.57,1.54,3.12,2.42,4.63a35.88,35.88,0,0,0,3.74,5,18.59,18.59,0,0,0,5.36,3.51c.55.2,1.19.17,1.7.42a17.31,17.31,0,0,0,2.27.68c1,.35,2,.4,3,.77a10.27,10.27,0,0,0,2.09.28,15.42,15.42,0,0,1-.39-5c0-1.47,0-2.94,0-4.41,0-1.32.48-2.59.28-3.91.57-1,0-2.2.5-3.27.24-.56,0-1.25.26-1.9s0-1.25.27-1.9a12.37,12.37,0,0,0,.26-1.63,11.2,11.2,0,0,0,.28-1.75c.1-.93.42-1.82.53-2.73a34.37,34.37,0,0,1,1.11-4.5,30,30,0,0,1,1.89-5.24,20.74,20.74,0,0,1,4.87-6.82c.42-.37.9-.67,1.3-1a16.32,16.32,0,0,1,2.5-1.72c1.23-.83,2.68-1.09,4-1.77.24-.13.62,0,.88-.12a9.2,9.2,0,0,1,2.2-.54,18,18,0,0,1,2.43-.25c.5,0,1.08.26,1.51-.24.24.45.47,0,.71,0a4.68,4.68,0,0,1,1.06,0c1.6.48,3.24.16,4.85.26.18,0,.41-.08.53,0a2.26,2.26,0,0,0,1.77.23c.64-.07,1.16.27,1.76.3,1.26.07,2.52.17,3.78.26,0,0,.1,0,.13,0,1,.61,2.1.12,3.15.49a30,30,0,0,0,3.07.35c.73.17,1.48.09,2.16.28a9,9,0,0,0,1.24.23c.46.06.91.2,1.37.25,1,.11,2.07.19,3.1.28.09,0,.23,0,.26,0,.29.42.73.18,1.1.26s.73.21,1.1.25a28.61,28.61,0,0,1,3.09.31c.73.17,1.5.07,2.16.29a6.82,6.82,0,0,0,1.38.22c.5.07,1,.2,1.49.26a13.94,13.94,0,0,1,2.69.32c.66.22,1.3.07,1.91.24a17.67,17.67,0,0,0,3.4.51c.13,0,.32-.05.39,0,.44.48,1.06.07,1.49.29a4.43,4.43,0,0,0,1.51.25,32,32,0,0,1,3.5.61,6.11,6.11,0,0,0,.85.18,9.51,9.51,0,0,1,2.29.3,20.21,20.21,0,0,0,3.31.73c1.35.28,2.71.58,4,1a29.22,29.22,0,0,1,4,1.41c1,.49,2.08,1,3.12,1.53a28.06,28.06,0,0,1,2.92,2,22.52,22.52,0,0,1,4.46,5,33.54,33.54,0,0,1,1.66,3.06,8.61,8.61,0,0,1,.54,1.65,9.68,9.68,0,0,0,.4,1.84c.28.57-.13,1.25.41,1.71-.19,1.23.32,2.42.26,3.64-.1,2.06.24,4.12-.22,6.19-.21.93.11,2-.15,2.9s0,1.95-.37,2.91a19.22,19.22,0,0,0-.28,2.16,21.41,21.41,0,0,1-.29,2.16c-.18.51.06,1.08-.25,1.65s.11,1.11-.3,1.6a4.54,4.54,0,0,1-.31,2.16c-.16.73-.34,1.49-.45,2.21a45.89,45.89,0,0,1-1.12,4.63A23.7,23.7,0,0,1,238.38,230.78ZM242.09,201c0-1-.07-2.06,0-3.08a21,21,0,0,0-.3-3,7.78,7.78,0,0,0-.31-2.27c-.42-1.17-.52-2.45-1.28-3.49-.34-1.72-1.51-3-2.52-4.3a16.39,16.39,0,0,0-2.86-2.71,19.45,19.45,0,0,0-5.77-3.22,49.94,49.94,0,0,0-7.09-2c-1.51-.27-3-.62-4.54-1s-3.25-.55-4.88-.83c-1.17-.21-2.36-.31-3.53-.55a16.12,16.12,0,0,1-1.63-.25,10.36,10.36,0,0,0-1.76-.25c-1.32-.17-2.62-.36-3.93-.57a10.05,10.05,0,0,1-1.77-.25c-.54-.2-1.16,0-1.77-.26s-1.34-.1-2-.27-1.34-.16-2-.29c-.93-.17-1.89-.2-2.83-.29-.09,0-.21,0-.25,0-.36-.41-.83-.15-1.25-.23s-.9-.2-1.36-.26a6.91,6.91,0,0,1-1.78-.23,20.2,20.2,0,0,0-2-.26c-.65-.16-1.35-.18-2-.29-1.06-.18-2.15-.21-3.23-.29-.09,0-.21,0-.27,0-.58-.44-1.34,0-1.88-.3s-1.28-.14-1.92-.23c-.13,0-.29.05-.39,0-1-.58-2.11-.09-3.15-.48a10,10,0,0,0-2.42-.26c-1.34-.13-2.69-.2-4-.29-1.73-.12-3.48,0-5.22,0-.91,0-1.77.44-2.7.27-1.48.56-3,.77-4.55,1.28a18.53,18.53,0,0,0-5.33,3,16.37,16.37,0,0,0-4.26,5.44c-.65,1.21-1.05,2.51-1.61,3.75s-.64,2.67-1.32,3.87c-.34,2.34-1.21,4.57-1.34,7-.41.57-.12,1.28-.31,1.87a12,12,0,0,0-.46,2.88,11.57,11.57,0,0,0-.3,3.1,2.48,2.48,0,0,0-.25,1.77,10.24,10.24,0,0,1-.27,1.76c-.11,1.12-.09,2.24-.23,3.38a38.15,38.15,0,0,0,.23,7.24c0,.15.22.3.21.44-.07.92.48,1.69.63,2.57a4.71,4.71,0,0,0,1.12,2.05,3.35,3.35,0,0,0,1.49.88c1.1.36,2.17.8,3.29,1.14,2.12.64,4.32.93,6.44,1.56,1.26-.1,2.41.56,3.66.53.54.4,1.23.1,1.75.31a15.26,15.26,0,0,0,2.48.47c.83.19,1.75.06,2.55.33,1.25.42,2.57.39,3.84.74a16.44,16.44,0,0,0,2.82.29c.13,0,.33,0,.39,0,.36.42.83.17,1.24.24a7.37,7.37,0,0,0,1.36.25c.87,0,1.69.48,2.57.29.55.37,1.21.13,1.76.3a6.19,6.19,0,0,0,1.9.23c.09,0,.23,0,.26,0,.35.43.83.18,1.24.25s.9.21,1.36.26a19,19,0,0,1,2.83.32c.6.16,1.2.1,1.76.25a6.22,6.22,0,0,0,1.91.24c.09,0,.22,0,.26,0,.34.44.82.19,1.23.26s.91.21,1.37.26a20.11,20.11,0,0,1,2.82.31c.69.19,1.42.06,2,.28s1.05.07,1.51.25a2.64,2.64,0,0,0,1.5.22c.56-.11,1,.27,1.5.3a13.16,13.16,0,0,1,2.82.29c.7.19,1.4.08,2,.28a6.75,6.75,0,0,0,1.24.23c.46.05.91.19,1.37.25a5.28,5.28,0,0,1,1.91.24c.4.19,1.09-.15,1.43.08.53.36,1,.12,1.52.22a11,11,0,0,0,1.37.26c1.07.12,2.15.19,3.23.28.09,0,.22,0,.26,0a1.49,1.49,0,0,0,1.37.25c.55-.08,1,.26,1.5.28a11.76,11.76,0,0,1,2.57.23c.86.23,1.83-.11,2.7.31,1.8-.19,3.58.33,5.37.26a23.67,23.67,0,0,0,3.77-.3,4,4,0,0,0,2.84-1.52,18.67,18.67,0,0,0,2.05-4c.38-1.09.76-2.19,1.07-3.31s.52-2.28.77-3.42c.18-.82.32-1.66.46-2.49s.25-1.77.39-2.66c0-.32.22-.63.25-1s-.1-.84,0-1.19c.55-1.46.39-3,.76-4.51.18-.73.11-1.52.25-2.3a30.65,30.65,0,0,0,.3-4.3C242.12,203,242.09,202,242.09,201Zm4.54-151.94a2.74,2.74,0,0,1,1.82-1.6,5.44,5.44,0,0,1,4.78,1.32c.48.47,1,.95,1.42,1.42l.1,1.3c.15-.15.2-.25.28-.27a3.8,3.8,0,0,0,1.16-.41,3.72,3.72,0,0,0,.59-1.08c.11-.22.25-.43.37-.64a4.84,4.84,0,0,0,.72-1.31c.32-1.63,1.24-3.1,1.36-4.79a23.79,23.79,0,0,0,1.22-3.37c.41-1.13.73-2.29,1.06-3.44.63-2.23,1.48-4.39,2.1-6.63s1.57-4.43,2.15-6.72c.32-1.24.82-2.43,1.2-3.65a2.24,2.24,0,0,0,0-.89c0-.2-.19-.39-.19-.59a2.35,2.35,0,0,0-1.25-2.12,12.13,12.13,0,0,0-4.39-1.69c-2.4-.26-1.81-.34-4,.28a2.41,2.41,0,0,0-1.65,1.75c-.22.63-.33,1.29-.56,1.91-1.38,3.63-2.49,7.35-3.73,11-.53,1.56-1.14,3.1-1.59,4.68s-1.06,3.14-1.49,4.74c-.61,2.23-1.54,4.37-2.1,6.63a20.84,20.84,0,0,0-.18,2.19C245.73,47.88,246.29,48.4,246.63,49.05ZM178.45,40c.43-.56,1.1-.74,1.25-1.45a11.4,11.4,0,0,1,.51-2.65c.1-.22,0-.54,0-.79a12.28,12.28,0,0,0-.29-2.84c-.1-2.55.18-5.1-.21-7.66a22.74,22.74,0,0,1,0-4.81c.09-1.64-.35-3.22-.3-4.85,0-1,0-2,0-2.94-.07-2-.16-4-.26-6.05a3.35,3.35,0,0,0-1.63-2.72,4.6,4.6,0,0,0-2.22-.75,13.85,13.85,0,0,0-5,.25,4.82,4.82,0,0,0-2.05,1.14,3.47,3.47,0,0,0-.93,2.54c.09,2.11,0,4.21.24,6.32.21,1.76,0,3.57,0,5.35a36.06,36.06,0,0,0,.22,5.39,26,26,0,0,1,0,4.14c0,1.34,0,2.68,0,4s.21,2.69.24,4a4.06,4.06,0,0,0,.32,1.88c.28.5.15,1,.27,1.48.82.82.82.82,1.49.84.25-1.44,2-2.59,4.09-2.61S178,38.34,178.45,40Zm73.48,14.44,1.4-4.09a4,4,0,0,0-3.15-1.58c-.23,0-.61-.29-.67-.21-.32.33-.7-.09-1,.19s-.15.36-.21.54c-.24.66-.51,1.31-.73,2s-.44,1.49-.69,2.34ZM176.74,39.18a2.45,2.45,0,0,0-1.73-.62c-.44,0-.89,0-1.33,0s-.82.18-1.23.26c-.67.11-.73.23-.81.89-.16,1.32.44,2.56.26,3.87a14.33,14.33,0,0,1,2.22.28c.65.25,1.43,0,2.15.29.44.19.77-.27.64-.75a3.26,3.26,0,0,1-.16-.86C176.73,41.45,176.74,40.34,176.74,39.18Z"/><path class="cls-2" d="M292.83,150.78a15.48,15.48,0,0,1,4.53.71c.93.22,1.88.43,2.82.63,1.67.35,3.3.88,5,1.27s3.05.88,4.62,1.17a22.23,22.23,0,0,1,2.87.8c1.14.37,2.31.67,3.45,1s2.22.45,3.27.85c.78.29,1.59.44,2.36.75a22.4,22.4,0,0,0,2.32.56c.51.14,1,.36,1.52.53a10.89,10.89,0,0,0,2.48.76c.91.07,1.65.75,2.58.58a26,26,0,0,0,3.65,1.2c1.08.43,2.25.62,3.36.95,2.11.61,4.23,1.2,6.32,1.88a55.65,55.65,0,0,1,5.93,1.83c1.45.11,2.65.94,4,1.39a40.93,40.93,0,0,1,4.23,1.75c1.9.89,3.84,1.71,5.71,2.71a32.59,32.59,0,0,1,3.89,2.23,18.3,18.3,0,0,1,3.24,2.52,33,33,0,0,1,3.31,3.58c.53.81,1.09,1.6,1.6,2.42.36.56.61,1.19,1,1.72a11.65,11.65,0,0,1,.79,1.82,15,15,0,0,1,.76,1.69c.22.62.33,1.28.54,1.92a5.52,5.52,0,0,1,0,2c0,.59.23,1.24-.26,1.76a19.76,19.76,0,0,1-1.89,5.51c-.47,1-1.15,1.93-1.72,2.91-.42.71-.8,1.45-1.21,2.17-1.07,1.83-2,3.72-3.2,5.51-.67,1-1.17,2.18-1.74,3.29a9.77,9.77,0,0,1-2.67,3.43,5.14,5.14,0,0,1-2.87,1.16,11.86,11.86,0,0,1-4.78-1.1,46,46,0,0,1-5.26-2.49,41.64,41.64,0,0,1-4.52-2.64c-1.88-1.27-3.87-2.36-5.71-3.7-1.53-1.11-3.14-2.11-4.7-3.19-2.06-1.42-4.09-2.89-6.07-4.42-2.17-1.69-4.47-3.22-6.68-4.86-1.62-1.19-3.14-2.51-4.78-3.66-2-1.39-3.84-2.94-5.84-4.29-1.28-.86-2.41-1.93-3.67-2.82-1.77-1.25-3.45-2.63-5.18-3.93-1.33-1-2.64-2-4-3.06s-2.87-2.28-4.36-3.35c-1.15-.83-2.15-1.87-3.3-2.71-1.36-1-2.51-2.22-3.92-3.14-.07-.05-.12-.13-.19-.19-1.07-1-2.15-1.94-3.2-2.94s-2.06-2-3-3a12.67,12.67,0,0,1-1.68-2.25,7.52,7.52,0,0,1-.55-1.91,7.4,7.4,0,0,1,.8-1.8c.73-.43,1.38-1,2.07-1.47,1.78-1.26,3.64-2.41,5.43-3.67a1.64,1.64,0,0,1,1.06-.36ZM336.64,184c0-.4-.33-.23-.54-.27a2.31,2.31,0,0,0-.5-.53c-2.5-1.3-5-2.57-7.5-3.87-.63-.32-1.23-.69-1.85-1a19.34,19.34,0,0,1-1.85-1c-.59-.42-1.37-.48-1.85-1.06-1.63-.52-2.92-1.74-4.58-2.19-1.2-1.07-2.77-1.52-4.13-2.33-2.16-1.29-4.45-2.37-6.7-3.51-3.84-1.95-7.68-3.87-11.52-5.8a29.62,29.62,0,0,0-3.46-1.66c-.67-.24-1.25-.66-1.93-.85a12,12,0,0,1-2-.76,4.25,4.25,0,0,0-1.77-.62,5.5,5.5,0,0,1-2.11-.68.47.47,0,0,0-.72.3,3,3,0,0,0,.09,1,4.45,4.45,0,0,0,1.55,2.56c1.54,1.58,3.06,3.17,4.74,4.62,1.42,1.22,2.93,2.33,4.28,3.64a9.88,9.88,0,0,0,1.69,1.41c1.6,1,3,2.32,4.46,3.43,1,.71,1.93,1.43,2.84,2.23.62.56,1.39,1,2,1.54s1.42,1.08,2.14,1.62c.89.65,1.78,1.3,2.66,2,1.23.92,2.46,1.83,3.68,2.77.95.74,1.83,1.58,2.82,2.26,1.75,1.2,3.4,2.54,5.12,3.78.89.64,1.78,1.3,2.66,2,.72.52,1.47,1,2.17,1.57,1,.77,1.88,1.67,2.92,2.34,1.76,1.13,3.39,2.42,5,3.71.12.09.33.07.49.1l.54.54c1.24.89,2.43,1.85,3.72,2.66,2.69,1.7,5.28,3.55,8,5.23,2.41,1.48,4.81,3,7.33,4.3a38.78,38.78,0,0,0,5.29,2.4,15.71,15.71,0,0,0,2.54.63,3.7,3.7,0,0,0,3.39-1.15,5,5,0,0,0,1.3-3.21,10,10,0,0,0-.18-3,15.94,15.94,0,0,0-.74-2.52,18.67,18.67,0,0,0-3.49-5.37,18,18,0,0,0-2.31-2.13c-1.11-.89-2.16-1.86-3.31-2.71s-2.16-1.64-3.3-2.38c-1.46-1-3-1.75-4.47-2.75s-2.81-1.66-4.19-2.52c-1-.65-2.27-1-3.28-1.74-1.49-1-3.12-1.78-4.64-2.72A2.72,2.72,0,0,0,336.64,184Zm13.12-16.34c0-.08-.06-.22-.09-.22-1,0-1.74-.69-2.71-.58-1.55-.85-3.33-1-5-1.58s-3.2-.88-4.78-1.38c-1.1-.36-2.22-.7-3.32-1-2.09-.57-4.17-1.18-6.25-1.75s-3.92-1-5.82-1.76a23.89,23.89,0,0,0-3-.82c-1-.24-2-.53-3-.85-1.14-.38-2.33-.59-3.46-1a33.38,33.38,0,0,0-4.67-1.3c-2-.43-3.9-1.35-6-1.4a12.83,12.83,0,0,0-4.51-1.07c-.4-.5-1.05,0-1.45-.36s-.81,0-1.13-.19a2.08,2.08,0,0,0-1.11-.25c-.62,0-1.25,0-1.87,0a1.54,1.54,0,0,0-1.06.38c-.71.58-1.54,1-2.3,1.54-1,.72-2,1.48-3.09,2.25a7.52,7.52,0,0,0,1.53.37,4.1,4.1,0,0,1,1.51.56,20.83,20.83,0,0,1,3.33,1.33c.42.27,1,.21,1.37.59s1,.22,1.29.75c.59-.22.79.44,1.25.56a6.55,6.55,0,0,1,1.13.49c.41.19.83.36,1.24.56,3.68,1.87,7.38,3.73,11.05,5.63,1.95,1,3.91,2,5.83,3.07,1.14.65,2.44,1.06,3.54,1.77,1.79,1.16,3.76,1.95,5.57,3,.95.58,2.06.9,3,1.5,1.79,1.14,3.74,2,5.56,3.06.64.39,1.32.7,2,1.1a7.79,7.79,0,0,0,2.59,1.17,17.3,17.3,0,0,0,3.7,2.2c1.41.8,2.84,1.59,4.2,2.44a68.33,68.33,0,0,1,6.7,4.2c1.69.63,3,1.89,4.43,2.88a43.66,43.66,0,0,1,5.14,4.06,32,32,0,0,1,5.33,5.81c1.37,2.11,2.48,4.3,2.37,6.92,0,0,.06.06.15.18.22-.31.47-.58.65-.89q1.35-2.38,2.68-4.78c.41-.72.82-1.44,1.24-2.16.57-1,1.18-1.92,1.7-2.91a30.91,30.91,0,0,0,1.5-3.26,13.28,13.28,0,0,0,.89-3.11,12.36,12.36,0,0,0-1.31-7.07c-.32-.68-.7-1.32-1-2a20.38,20.38,0,0,0-5.21-6.8,28.2,28.2,0,0,0-4.83-3.22c-2.47-1.25-4.95-2.49-7.46-3.64a18.26,18.26,0,0,0-2-.89c-1.26-.41-2.44-1-3.71-1.41C351.24,168.19,350.61,167.6,349.76,167.65Z"/><path class="cls-2" d="M78.71,114.63c-.49,0-1,0-1.47,0-2.3.13-4.56-.47-6.85-.27-1.19-.45-2.45-.09-3.63-.31s-2.2,0-3.23-.28a20.91,20.91,0,0,0-2.71-.22c-.68-.06-1.36-.18-2-.26s-1.39.17-2-.26c-.15-.1-.43,0-.66,0a24.35,24.35,0,0,1-4.29-.33c-1-.27-2.16.11-3.14-.47-.1,0-.27,0-.4,0a33.8,33.8,0,0,1-4.16-.3c-.91-.17-1.84-.06-2.7-.27s-1.84-.06-2.7-.27-1.65-.09-2.44-.25a23.58,23.58,0,0,1-4-.72,5.05,5.05,0,0,0-1-.07c-.33,0-.64-.19-1-.25-1.93-.37-3.84-.81-5.76-1.25-1.27-.28-2.52-.63-3.78-.92s-2.37-.75-3.55-1.12A23.15,23.15,0,0,1,13.1,105a20.86,20.86,0,0,1-4.89-3.39c-.36-.36-.86-.59-1.2-1a20.47,20.47,0,0,1-3.64-4.91,24.78,24.78,0,0,1-1-2.94c-.16-.47-.26-1-.4-1.44,0-.12-.13-.22-.14-.34-.09-1.12-.17-2.25-.27-3.37-.06-.59-.17-1.18-.27-1.76s.27-1.16-.26-1.64c0,0,0-.08,0-.12C1.23,83,.7,81.88.75,80.74s0-2.32,0-3.48c0-.09,0-.22,0-.26.68-.55.39-1.43.73-2.12s.36-1.36.61-2c.37-1,.81-2,1.21-3,.51-1.27.93-2.58,1.49-3.8a16.11,16.11,0,0,1,3.43-5.41,27.89,27.89,0,0,1,2.65-2.34,14.94,14.94,0,0,1,3-1.54c1.38-.55,2.82-.94,4.23-1.42a7.63,7.63,0,0,1,1.95-.48,9.17,9.17,0,0,0,1-.26c.33-.06.67.1,1-.18.16-.14.5-.08.76-.09a31,31,0,0,1,3.34,0,14.86,14.86,0,0,1,3,.48c.54.17,1.16.12,1.76.26A45.47,45.47,0,0,1,38,57.41c3.62,1.52,7.19,3.14,10.64,5a47.92,47.92,0,0,1,5.53,3.14c.63.46,1.39.74,2.06,1.15,1.46.88,2.94,1.75,4.43,2.59s2.71,1.61,4.1,2.35c1.84,1,3.58,2.13,5.37,3.19,1,.61,2.11,1.18,3.14,1.8,1.64,1,3.23,2.09,4.91,3s3.38,2.14,5.12,3.13c1.39.79,2.7,1.7,4,2.57.85.55,1.64,1.2,2.52,1.67.65.35,1.12.92,1.75,1.26a16.87,16.87,0,0,1,1.78,1.21c1.25.87,2.53,1.7,3.72,2.65.13.1.33.11.44.21.92.81,1.83,1.64,2.74,2.46a21,21,0,0,0,2,1.82,9,9,0,0,1,2.37,3,6.85,6.85,0,0,1,1.17,2.06,10.87,10.87,0,0,1,.43,3.28,27.22,27.22,0,0,1-1.32,3.6,19.35,19.35,0,0,1-2.76,2.88,8.19,8.19,0,0,1-3.21,1.7,13.1,13.1,0,0,1-3.49,1,12.7,12.7,0,0,0-2.56.26,10.15,10.15,0,0,1-2.18.22Zm-43.39-5.36a12.54,12.54,0,0,0,1.36.26c1.44.11,2.87.19,4.31.28.09,0,.21,0,.26,0,.54.43,1.18.2,1.77.27s1.26.2,1.9.25c1.39.12,2.78.19,4.17.28,0,0,.1,0,.13,0a2.38,2.38,0,0,0,1.76.25c.69-.1,1.26.33,1.9.28,1.5-.12,2.95.46,4.45.27a.45.45,0,0,1,.26,0c.63.46,1.36.18,2,.26s1.36.2,2,.26a11.06,11.06,0,0,1,3,.25,7.06,7.06,0,0,0,1.6,0c.55,0,1.08.2,1.63.25a22,22,0,0,1,3.52.22,15.56,15.56,0,0,0,3.06.06c1,0,2,.19,3,.25.67,0,1.34,0,2,0h1.87a11.22,11.22,0,0,1,2,0c.56.1,1.13.16,1.68.21a33.44,33.44,0,0,0,3.61,0c1.17,0,2.34-.17,3.51-.26,0,0,.11,0,.13,0,.47-.53,1.09-.17,1.63-.27a13.31,13.31,0,0,1,1.76-.25,8.32,8.32,0,0,0,2.57-.61,8.86,8.86,0,0,1,1.27-.47A6.82,6.82,0,0,0,103.1,109c1-1.31,1.2-2.91,1.77-4.36a.41.41,0,0,0,0-.19,12.46,12.46,0,0,1-.43-2.5.84.84,0,0,0-.14-.47c-.65-.94-1.4-1.83-2-2.81-.4-.72-1.08-1-1.62-1.57-1-.92-1.92-1.8-2.92-2.65-.45-.39-1-.67-1.45-1l-5-3.54c-.83-.59-1.66-1.15-2.51-1.71S86.94,87,86,86.42c-1.73-1.1-3.44-2.24-5.19-3.3-1-.62-2-1.27-3.12-1.84-1.59-.83-3.06-1.87-4.6-2.8-.71-.43-1.45-.81-2.16-1.24-1.79-1.06-3.54-2.21-5.38-3.19-1.24-.67-2.38-1.52-3.65-2.15-.65-.33-1.33-.69-2-1.09-1.14-.7-2.27-1.41-3.43-2.08-1.37-.8-2.75-1.58-4.07-2.45-.29-.19-.61-.49-1-.39-.54-.32-1.07-.66-1.62-1l-6.62-3.41a4.07,4.07,0,0,0-.88-.45,20.19,20.19,0,0,1-3.4-1.5c-1.18-.49-2.35-1-3.54-1.46S32.7,57.33,31.39,57a21.19,21.19,0,0,0-4-.67,40.76,40.76,0,0,0-4.69,0,14.66,14.66,0,0,0-2.28.29,6,6,0,0,0-1.28.47,9.69,9.69,0,0,0-3.08,1.62c-.61.6-1.36,1-2,1.6-.28.25-.41.66-.68.92a18.38,18.38,0,0,0-3.22,4.56,30.33,30.33,0,0,0-2.75,5.42c-.38,1.18-1,2.27-1.33,3.47-.29,1-.5,1.93-.79,2.88a11.13,11.13,0,0,0-.53,2.06,7.35,7.35,0,0,1-.32,1.74,21.24,21.24,0,0,0-.68,5,14.3,14.3,0,0,0,.15,4.32,27.94,27.94,0,0,0,.6,3.24,3.53,3.53,0,0,0,.22.72c.7,1.37,1.11,2.92,2.36,4,.49,1.26,1.93,1.58,2.63,2.64.62,0,.79.59,1.25.84,1.42.78,2.79,1.64,4.28,2.3,1.21.53,2.45,1,3.7,1.42,1.1.38,2.27.56,3.38.88.79.22,1.61.38,2.4.67a9.5,9.5,0,0,0,2.57.54c1.25.09,2.42.51,3.65.64a4.47,4.47,0,0,1,1.48.26c.48.24.94.11,1.38.24A3.88,3.88,0,0,0,35.32,109.27ZM13.52,58.66a3.85,3.85,0,0,0-1,.14,13.25,13.25,0,0,0-2.36,1.43A10.51,10.51,0,0,0,8.3,62,11.9,11.9,0,0,0,7,64.3a15.8,15.8,0,0,0-1.16,2.33c-.35,1.11-.86,2.15-1.22,3.25-.26.82-.65,1.6-.94,2.41s-.64,1.7-.88,2.59a14.09,14.09,0,0,0-.74,4.64c0,.35,0,.72,0,1.07.1.71.24,1.42.38,2.24C3,81,3.08,79.24,3.64,77.54s1-3.42,1.64-5.08,1.33-3.19,2.07-4.76,1.84-3.07,2.76-4.61S12.44,60.37,13.52,58.66Z"/><path class="cls-3" d="M112.19,183.18V191c-.09-.07-.25-.14-.26-.21,0-.36,0-.71,0-1.07a9,9,0,0,1,0-1.47c.08-.43-.17-.78-.16-1.21s.39-.8.13-1.14.12-.82,0-1.26a5.25,5.25,0,0,1,0-1.31S112.11,183.21,112.19,183.18Z"/><path class="cls-4" d="M238.38,230.78a23.7,23.7,0,0,0,1.3-3.83,45.89,45.89,0,0,0,1.12-4.63c.11-.72.29-1.48.45-2.21a4.54,4.54,0,0,0,.31-2.16c.41-.49.07-1.16.3-1.6s.07-1.14.25-1.65a21.41,21.41,0,0,0,.29-2.16,19.22,19.22,0,0,1,.28-2.16c.39-1,.09-1.95.37-2.91s-.06-2,.15-2.9c.46-2.07.12-4.13.22-6.19.06-1.22-.45-2.41-.26-3.64-.54-.46-.13-1.14-.41-1.71a9.68,9.68,0,0,1-.4-1.84,8.61,8.61,0,0,0-.54-1.65,33.54,33.54,0,0,0-1.66-3.06,22.52,22.52,0,0,0-4.46-5,28.06,28.06,0,0,0-2.92-2c-1-.53-2.07-1-3.12-1.53a29.22,29.22,0,0,0-4-1.41c-1.32-.4-2.68-.7-4-1a20.21,20.21,0,0,1-3.31-.73,9.51,9.51,0,0,0-2.29-.3,6.11,6.11,0,0,1-.85-.18,32,32,0,0,0-3.5-.61,4.43,4.43,0,0,1-1.51-.25c-.43-.22-1,.19-1.49-.29-.07-.06-.26,0-.39,0a17.67,17.67,0,0,1-3.4-.51c-.61-.17-1.25,0-1.91-.24a13.94,13.94,0,0,0-2.69-.32c-.5-.06-1-.19-1.49-.26a6.82,6.82,0,0,1-1.38-.22c-.66-.22-1.43-.12-2.16-.29a28.61,28.61,0,0,0-3.09-.31c-.37,0-.73-.18-1.1-.25s-.81.16-1.1-.26c0,0-.17,0-.26,0-1-.09-2.07-.17-3.1-.28-.46,0-.91-.19-1.37-.25a9,9,0,0,1-1.24-.23c-.68-.19-1.43-.11-2.16-.28a30,30,0,0,1-3.07-.35c-1.05-.37-2.18.12-3.15-.49,0,0-.09,0-.13,0-1.26-.09-2.52-.19-3.78-.26-.6,0-1.12-.37-1.76-.3a2.26,2.26,0,0,1-1.77-.23c-.12-.09-.35,0-.53,0-1.61-.1-3.25.22-4.85-.26a4.68,4.68,0,0,0-1.06,0c-.24,0-.47.46-.71,0-.43.5-1,.23-1.51.24a18,18,0,0,0-2.43.25,9.2,9.2,0,0,0-2.2.54c-.26.12-.64,0-.88.12-1.29.68-2.74.94-4,1.77a16.32,16.32,0,0,0-2.5,1.72c-.4.38-.88.68-1.3,1a20.74,20.74,0,0,0-4.87,6.82,30,30,0,0,0-1.89,5.24,34.37,34.37,0,0,0-1.11,4.5c-.11.91-.43,1.8-.53,2.73a11.2,11.2,0,0,1-.28,1.75,12.37,12.37,0,0,1-.26,1.63c-.29.65,0,1.34-.27,1.9s0,1.34-.26,1.9c-.47,1.07.07,2.25-.5,3.27.2,1.32-.32,2.59-.28,3.91,0,1.47,0,2.94,0,4.41a15.42,15.42,0,0,0,.39,5,10.27,10.27,0,0,1-2.09-.28c-1-.37-2-.42-3-.77a17.31,17.31,0,0,1-2.27-.68c-.51-.25-1.15-.22-1.7-.42a18.59,18.59,0,0,1-5.36-3.51,35.88,35.88,0,0,1-3.74-5c-.88-1.51-1.67-3.06-2.42-4.63a28.37,28.37,0,0,1-1.49-4.33,22.05,22.05,0,0,1-.72-3.43,25.16,25.16,0,0,1-.34-3.36c0-1.25.07-2.51,0-3.75-.13-1.95.4-3.85.29-5.78a7.49,7.49,0,0,0,.29-2.3,14.48,14.48,0,0,1,.29-2.15c.41-1.28.59-2.61.92-3.89.26-1.05.48-2.14.69-3.22s.51-1.95.65-2.92a24.3,24.3,0,0,0,.65-3.36,2.87,2.87,0,0,1,.28-1.35c.38-.62.18-1.31.48-1.95s.1-1.38.33-2a16.1,16.1,0,0,0,.7-2.9c.16-1.1.45-2.16.66-3.24a24.43,24.43,0,0,1,1-4.27,12.81,12.81,0,0,0,.29-1.61,31.28,31.28,0,0,1,1.07-4.79,12.45,12.45,0,0,1,.61-3.24,15.38,15.38,0,0,1,.67-2.92,11.52,11.52,0,0,0,.34-1.73c.3-1.4.56-2.81.84-4.21.55-.44.07-1.14.46-1.69s.17-1.16.33-1.73c.47-1.78.64-3.63,1.28-5.36a3.81,3.81,0,0,0,.19-1.26c0-1.11.65-2.08.69-3.21a12.32,12.32,0,0,1,.56-2.57,33.53,33.53,0,0,0,.75-3.3,22.84,22.84,0,0,0,.57-2.58c.53-.44.07-1.14.46-1.7s.16-1.16.32-1.73c.34-1.25.54-2.54.86-3.79.24-1,.42-2,.71-2.92.54-1.75.67-3.61,1.34-5.33,0-1.51.76-2.85.86-4.35a11.09,11.09,0,0,1,.55-2.31c.3-1,.39-2,.73-3s.29-1.84.59-2.71.47-1.77.72-2.64.41-1.89.61-2.84c.26-1.26.67-2.49,1-3.75.18-.82.43-1.62.6-2.42.25-1.19.65-2.34.9-3.53a23.94,23.94,0,0,1,1-3.33,51.5,51.5,0,0,1,2.26-5.62,11.88,11.88,0,0,1,.94-1.89c.42-.56.61-1.27,1.09-1.83s.59-1,1-1.45c1.09-1.13,2-2.46,3.46-3.21s2.8-1.41,4.23-2.07c.3-.13.7,0,1.05-.05s.64-.18,1-.26a27.27,27.27,0,0,1,5.92-.26,12.26,12.26,0,0,1,1.89.26c.59.09,1.23-.23,1.78.25.1.09.35,0,.52,0,1.5-.2,2.95.39,4.45.27.87.59,2-.06,2.86.54,0,0,.08,0,.13,0,1.17.09,2.34.16,3.5.27.5,0,1,.19,1.5.26s1-.15,1.5.26c.08.07.26,0,.4,0a5.4,5.4,0,0,1,1.9.24c.54.2,1.22-.14,1.76.29,0,0,.09,0,.13,0,1.17.09,2.34.16,3.51.27.45,0,.9.19,1.36.26a6.82,6.82,0,0,1,1.38.22c.66.22,1.42.12,2.15.28a27.32,27.32,0,0,1,3.08.36c1.05.37,2.12,0,3.16.43a11.29,11.29,0,0,0,2.82.33c.46,0,.91.19,1.36.25s1-.13,1.37.27c.07.06.26,0,.4,0a5.47,5.47,0,0,1,1.91.23c.53.2,1.21-.13,1.75.3.06,0,.18,0,.27,0,1.12.09,2.26.1,3.36.29,1.27.22,2.54.35,3.8.55s2.63.29,3.92.54a12,12,0,0,1,2.16.28c.71.3,1.43,0,2,.25s1.34,0,1.9.27a6,6,0,0,0,1.91.24c.46.06.91.19,1.37.25s.88-.09,1.23.28c.92-.19,1.79.37,2.69.24.61-.08,1.08.25,1.64.3s1.06-.24,1.5.25c.06.07.26,0,.39,0a11.41,11.41,0,0,1,3.13.53,1.77,1.77,0,0,0,.4,0,5.66,5.66,0,0,1,1.91.23c.54.2,1.22-.13,1.75.3a9.45,9.45,0,0,1,2.7.3,8.52,8.52,0,0,1,2.49.44.78.78,0,0,0,.37.06c1.57-.07,3,.65,4.6.54.5.36,1.13.12,1.62.31s1.15.07,1.63.26,1.15.07,1.63.27a8.24,8.24,0,0,0,1.5.25c.86.21,1.75.35,2.58.58a27.52,27.52,0,0,1,2.92.7,13.94,13.94,0,0,1,1.39.52c.85.43,1.76.71,2.61,1.14A11,11,0,0,1,272.92,63a17,17,0,0,1,2.14,3.54,31.88,31.88,0,0,1,1.35,4c.46,1.54.43,3.17,1,4.66,0,.07,0,.17,0,.26.09,2,.21,3.94.26,5.92a38.44,38.44,0,0,1,0,5.88c-.29,2.08,0,4.15-.25,6.18s0,4.33-.29,6.45c-.22,1.59-.1,3.15-.21,4.72-.07.92-.22,1.83-.26,2.75a15.57,15.57,0,0,1,0,3.06,17,17,0,0,0-.19,4.32c0,1-.34,2-.31,3a12.59,12.59,0,0,1,0,3.07c-.35,1.58,0,3.17-.26,4.72-.27,1.75,0,3.52-.3,5.24-.22,1.41,0,2.81-.23,4.18-.29,1.66,0,3.34-.3,5a28.6,28.6,0,0,0-.19,3.91,10.08,10.08,0,0,0-.17,1.33,11.31,11.31,0,0,1-.11,1.42,7.09,7.09,0,0,1,0,1.6c-.43,1.3-.06,2.63-.27,3.91-.27,1.57,0,3.17-.3,4.7-.22,1.23,0,2.46-.24,3.65-.28,1.52-.06,3.07-.29,4.57-.2,1.22,0,2.46-.25,3.64-.28,1.35,0,2.72-.28,4s0,2.73-.27,4,0,2.91-.26,4.31,0,2.73-.27,4,0,2.56-.27,3.77c-.32,1.45,0,2.9-.26,4.31s0,2.73-.28,4a20,20,0,0,1-.71,4.11,11.89,11.89,0,0,0-.29,1.89c-.34,1.52-.43,3.11-.86,4.6a50.1,50.1,0,0,1-1.94,5.89c-.11.27-.2.55-.28.82a27.71,27.71,0,0,1-1.92,3.76c-.68,1.4-1.79,2.54-2.54,3.9a2.37,2.37,0,0,1-.47.48,12.78,12.78,0,0,0-1.58,1.63,9.29,9.29,0,0,1-1.55,1.46,31.28,31.28,0,0,1-4.62,3.35,15.93,15.93,0,0,1-4.32,1.87,9.91,9.91,0,0,1-2.22.43c-1.92.06-3.84,0-5.76,0-.54,0-1.08-.2-1.63-.24s-1.16,0-1.74,0C238.67,231.1,238.54,230.91,238.38,230.78ZM207.27,162c-.43,0-.89-.09-1.3.26h1.57c.18.62.83,0,1.08.41,1.19.21,2.32.78,3.57.67.18,0,.41-.08.52,0,.63.5,1.36.12,2,.26a5.51,5.51,0,0,0,2,.26c.31-.05.73-.28.9-.16.39.29.77.07,1.14.16s.54.18.81.27a8.1,8.1,0,0,1,1.5.24,22.56,22.56,0,0,1,4.57.29c2.33-.14,4.67.26,7-.23.87-.19,1.79,0,2.7-.27a19.77,19.77,0,0,1,2.69-.31,2,2,0,0,0,.56-.26,10.77,10.77,0,0,0,2.15-.56c.62-.3,1.38-.22,1.87-.78a8.32,8.32,0,0,0,1.94-.76,20.74,20.74,0,0,0,2.08-1.11,5.22,5.22,0,0,0,1.6-1.07c.82-.28,1.34-1,2.08-1.4.52-.28.45-.78.53-1.32a2.6,2.6,0,0,0-.46.18,20.3,20.3,0,0,0-2.68,2,5.25,5.25,0,0,0-1.88,1.07,2,2,0,0,0-.49.1c-.56.24-1.07.55-1.66.76a7.33,7.33,0,0,0-2.13,1c-.23,0-.52-.09-.66,0-.5.37-1.15.21-1.66.52a3.42,3.42,0,0,1-1.76.27c-.07,0-.14.17-.21.26-.49,0-1.1-.18-1.44,0-.56.38-1.21,0-1.62.27-.56.39-1.1.16-1.65.22-1.42.14-2.88-.24-4.29.26a1.19,1.19,0,0,1-.91,0,3.87,3.87,0,0,0-2.17-.23c-1.69,0-3.37,0-5.06,0-.07-.09-.14-.26-.21-.26-1,0-2-.15-3-.22a29.19,29.19,0,0,0-5.37-.33,1.34,1.34,0,0,1-.4,0,1.43,1.43,0,0,1-.46-.18,2.37,2.37,0,0,0-1.6-.36c-.42,0-.88.12-1.24-.25,0,0-.21.17-.33.26Zm-3.21-.54h-1.88c0-.31,0-.61-.43-.54a4.56,4.56,0,0,1-.64,0c0-.08-.05-.21-.09-.22l-2.85-.32c-.59-.09-1.17-.2-1.75-.26-.76-.09-1.56.18-2.28-.28-1.26.11-2.47-.46-3.74-.26-.35,0-.71,0-1.06,0s-.48-.05-.57-.18c-.28-.39-.66-.34-1.05-.35a3.7,3.7,0,0,1-.86-.15,3,3,0,0,0-2.35.15c-.13-.17-.22-.43-.38-.49-.46-.15-1,.08-1.44-.24l-.09.09-.33-.39c-.57-.17-1.09,0-1.68-.24a2,2,0,0,0-2,.2c-.46-.27-.9-.73-1.38-.77a17.06,17.06,0,0,0-3.71-.3.55.55,0,0,0,0-.13l-2.14-.41c0-.07,0-.21-.09-.22-1-.2-2.08-.35-3.1-.6a2.94,2.94,0,0,0-1.09-.25c-.37-.07-.75-.06-1.13-.13-.71-.14-1.32-.49-2-.68-1.19-.33-2.38-.68-3.55-1.07-.62-.22-1.17-.69-1.9-.53-1.05-.94-2.47-1.17-3.66-1.85-.29-.16-.76,0-1.38,0,.32.39.45.66.67.79.92.54,1.92.9,2.87,1.37.23.11.41.29.69.25.66.22,1.17.75,1.92.82a5.74,5.74,0,0,1,1.37.52,7.34,7.34,0,0,0,1.38.49,2.76,2.76,0,0,1,1.53.47c.41.35,1,0,1.47.32a5.16,5.16,0,0,0,2,.32.42.42,0,0,0,0,.13l2.14.41a3.06,3.06,0,0,0,.55.26,10.66,10.66,0,0,0,1.48.26c.57,0,1.14,0,1.72,0,.16,0,.39,0,.47.1a1.13,1.13,0,0,0,1.15.44c.13,0,.32,0,.38,0,.44.49,1.05,0,1.47.28a3.39,3.39,0,0,0,1.62.25c0,.44.39.25.61.25,1.11,0,2.25-.16,3.26.54a4.38,4.38,0,0,0,2.29-.26v.49c.9,0,1.66.48,2.5.31.48.5,1.12.09,1.62.3a4.68,4.68,0,0,0,1.77.24c.68,0,1.33.65,2,0,.11-.09.48.13.73.2a20.72,20.72,0,0,0,2.16.55c1,.15,2,.19,2.94.28.09,0,.22,0,.26,0,.43.49,1,.21,1.49.25s1,.46,1.62.28h.8s0,.12,0,.12a6,6,0,0,0,3-.39l.22-.09c0-.06-.07-.17-.11-.17ZM144.6,141.94a7.92,7.92,0,0,0-.85-1.48c-.4-.44-.27-1.11-.76-1.46-.17-.95-.82-1.72-1-2.69s-.55-1.77-.62-2.68a38.11,38.11,0,0,1,0-4.14,15.33,15.33,0,0,1,.23-4.05c.22-.72,0-1.52.25-2.31s.09-1.52.28-2.29a20.25,20.25,0,0,0,.31-2.83,1.21,1.21,0,0,1,.07-.37,14.15,14.15,0,0,0,.45-2.49,15.59,15.59,0,0,1,.33-2.68c.21-.61,0-1.25.29-1.75a2.77,2.77,0,0,0,.2-1c.07-.32.21-.64.25-1a18.15,18.15,0,0,1,.31-2.69,21.25,21.25,0,0,0,.77-4.23c.44-.47.17-1.08.33-1.61a7.32,7.32,0,0,0,.46-2.21,10.19,10.19,0,0,1,.36-2c.15-.78.35-1.55.5-2.34s.33-1.64.53-2.45a7.83,7.83,0,0,1,.35-1.72c.49-1,.31-2.25,1-3.22-.05-1.22.56-2.27.81-3.42.11-.52.43-1,.51-1.52.34-2.17,1.58-4,2.24-6,.92-1.2,1.38-2.68,2.34-3.85a1.68,1.68,0,0,0,.44-1.8,2.82,2.82,0,0,0-.81.49,20.94,20.94,0,0,0-1.77,2.35c-.6,1-1.08,2-1.62,3.07A10.31,10.31,0,0,1,150,77c-.3.4-.23,1.08-.91,1.22-.08,0-.08.31-.16.45a17.65,17.65,0,0,0-1,2.81c-.81,2.37-1.38,4.8-2,7.22-.22.94-.47,1.87-.62,2.83s-.54,2.2-.73,3.31a8,8,0,0,1-.34,1.73c-.28.61-.08,1.24-.41,1.85s-.15,1.35-.34,2-.19,1.32-.41,2a7.42,7.42,0,0,0-.35,2c0,.78-.48,1.5-.28,2.3a10.89,10.89,0,0,0-.75,3.55c-.21,1.35-.5,2.69-.65,4.05a7.76,7.76,0,0,1-.26,2c-.23.58,0,1.19-.26,1.63s-.15,1.11-.23,1.65a2.59,2.59,0,0,1-.09.63,2.66,2.66,0,0,0,0,2,1.53,1.53,0,0,1,0,1.13c-.3.43-.16.85-.21,1.26a5.44,5.44,0,0,0,0,.63c-.28.19-.23-.27-.54,0,.1,1.3.22,2.64.29,4,0,.81,0,1.61,0,2.41s.45,1.6.28,2.44c0,.11.06.24.09.36a13,13,0,0,1,.55,1.91,8.27,8.27,0,0,0,.72,1.85,4.82,4.82,0,0,0,1.05,1.9c0,.13-.06.3,0,.39.52.77,1.07,1.53,1.6,2.28l1.7,2.13.81-.46ZM257.36,95.08c0-.21.13-.52-.27-.54-.09-.1-.24-.2-.25-.32a4.67,4.67,0,0,1,0-.75c.09-.11.26-.23.26-.35a8.22,8.22,0,0,0-.79-3.4c-.11-1.14-1-2-1.12-3.13a30.72,30.72,0,0,0-2.92-4c-.44-.46-1-.79-1.47-1.23a21.51,21.51,0,0,0-4.26-2.9,4.18,4.18,0,0,0-1-.28c-.07-.09-.12-.24-.21-.26-1.47-.46-2.9-1-4.38-1.4-1.78-.49-3.59-.8-5.36-1.26-1.23-.32-2.54-.34-3.79-.59a15.38,15.38,0,0,1-1.88-.3,6.79,6.79,0,0,0-1.38-.21c-.46-.08-.91-.21-1.36-.26a12.35,12.35,0,0,1-2.55-.32c-.66-.23-1.36,0-1.9-.27s-1.37,0-1.89-.26-1.29-.15-1.92-.22c-.4,0-.81,0-1.21,0a8.22,8.22,0,0,1-1.09-.26c-.12-.09-.23-.25-.35-.25-.44,0-1,.13-1.31,0a3.12,3.12,0,0,0-1.25-.24c-.46-.06-.9-.21-1.36-.25-1-.12-2.07-.19-3.1-.28-.09,0-.23,0-.26,0-.34-.46-.82-.18-1.23-.26s-.9-.21-1.36-.26a24.31,24.31,0,0,1-3.09-.31c-.64-.16-1.31-.07-1.89-.27a7.14,7.14,0,0,0-2-.23c-.09,0-.21,0-.26,0-.54-.49-1.19-.13-1.76-.28a5.35,5.35,0,0,0-1.9-.25,4.11,4.11,0,0,0-.82-.26c-.39,0-.8,0-1.19,0a6.74,6.74,0,0,0-1.22-.24c-1.22.08-2.38-.49-3.61-.29-.08,0-.21,0-.25,0-.48-.53-1.09-.17-1.63-.26a14.59,14.59,0,0,0-1.61-.26c-.57,0-1.15,0-1.72,0,0-.08-.07-.22-.1-.22a35.18,35.18,0,0,1-4-.3,16.47,16.47,0,0,0-2.11,0h-1.6a20.59,20.59,0,0,0-6.4.53,23.42,23.42,0,0,0-2.71.81c-.54,0-.92.35-1.37.54a17.17,17.17,0,0,0-7.37,6,40.53,40.53,0,0,0-3.58,6.77c0,.79-.6,1.36-.75,2.09-.05.26-.27.6.21.72-.08.23-.19.46-.26.69-.23.75-.44,1.51-.68,2.26a3.87,3.87,0,0,0-.37.91c0,.28-.5.56,0,.85-.17.27-.33.55-.49.83,0,0,.09.07.09.09-.1.28-.22.55-.31.84s.33.47,0,.86a2.36,2.36,0,0,0-.47,1.51,2,2,0,0,1-.41,1.49l.09.09c.48.5-.28.7-.26,1.1s.24.75-.12,1.06c-.06.11-.2.25-.18.32.18.47-.09.9-.12,1.35s-.53,1-.43,1.38a2,2,0,0,1-.31,1.4c.64.39-.11.73-.06,1.13a3.2,3.2,0,0,1-.25,1.35c-.16.4-.41.82-.23,1.22s-.47.41-.13.78c.12.13,0,.7-.22.86-.43.35.22.49.06.76s-.36.73-.54,1.11c.48.38-.23.72,0,1.1,0,0-.19.26-.17.27.21.21.29.38.07.67a1.57,1.57,0,0,0-.28.8c0,.21.2.5.12.64a1.61,1.61,0,0,0-.24,1.55.48.48,0,0,1-.06.37c-.29.45-.65.88-.2,1.44a2.66,2.66,0,0,0-.3,1.94c0,.31-.36.67-.37,1a9.45,9.45,0,0,1-.09,1.07,2.91,2.91,0,0,0-.1,1.39c.15.47-.2,1.07-.19,1.61,0,.29-.55.57,0,.85a7.14,7.14,0,0,0-.25,1.09c0,.37-.58.74,0,1.12a9,9,0,0,1,0,2.26,5.3,5.3,0,0,0,0,3.13,1.58,1.58,0,0,1-.08,1.27c-.28.38.22.42.11.64.09.26.33.62.24.77-.3.49.07.78.18,1.15,0,.13-.1.33-.15.49a22.8,22.8,0,0,0,.95,2.14c.37.65.94,1.2,1.29,1.87a12.71,12.71,0,0,0,1.32,1.83,2.76,2.76,0,0,1,.36.65c0,.09-.17.29-.13.36a2.1,2.1,0,0,0,.46.48c.91.72,1.46,1.83,2.69,2.22.46.14.83.7,1.36.89,0,.49,0,.95.62,1.09a4.28,4.28,0,0,1,1,.52c.12.17.21.4.37.49a9.2,9.2,0,0,0,2.08,1c.72.17,1.29.8,2.1.66.07.09.12.23.21.26.47.16,1,.3,1.43.44,1.26.39,2.51.85,3.79,1.16,1.71.42,3.47.66,5.16,1.13.65.18,1.3.07,1.89.28,1.2.44,2.49.4,3.7.75.75.22,1.58.11,2.28.32,1.35.41,2.76.34,4.11.72.9.25,1.91.1,2.81.34.6.16,1.2.11,1.77.26a6.79,6.79,0,0,0,1.9.24c.09,0,.23,0,.26,0,.3.41.73.21,1.1.27s.72.21,1.09.25a26.29,26.29,0,0,1,3.09.31c.73.17,1.49.07,2.16.29a3,3,0,0,0,1.37.19c.56-.07,1,.29,1.5.29a5.64,5.64,0,0,1,1.77.24c.55.17,1.16.09,1.77.25s1.34.14,2,.29,1.44.06,2.17.26,1.34.06,2,.26a11.7,11.7,0,0,0,2.15.25,14.32,14.32,0,0,0,3.63.33c.22,0,.55-.1.65,0,.42.45.94.29,1.38.23s1,.3,1.5.3a21,21,0,0,1,2.84.21c1.54.2,3.13.19,4.7.26a30.21,30.21,0,0,0,6.58-.16c1.25-.22,2.54-.29,3.78-.6a15.31,15.31,0,0,0,3.3-1.06,4.51,4.51,0,0,0,2.34-1.87c.16,0,.41,0,.48-.1.31-.51.81-.44,1.28-.44.33-1,1.35-1.25,2-1.87.65.18,1-.32,1.32-.68a24,24,0,0,0,1.91-2.13,24.39,24.39,0,0,0,2.23-3.89,10.1,10.1,0,0,0,.56-1.37,3.4,3.4,0,0,0,.38-1.57,1.23,1.23,0,0,0,.19-.33c.3-1.44.61-2.87.88-4.32a5.84,5.84,0,0,0,.27-2.16c.45-.33.2-.81.27-1.23s.22-.81.26-1.23c.11-1.16.19-2.33.28-3.5,0,0,0-.11,0-.13.36-.35.22-.81.27-1.23s.19-.91.26-1.36A11.45,11.45,0,0,1,256,127c.27-.78,0-1.69.28-2.56s.06-1.61.27-2.43.09-1.61.26-2.43.08-2,.26-3c.22-1.18,0-2.42.28-3.64s0-2.41.26-3.64a21.36,21.36,0,0,0,0-4c0-1.36.46-2.68.27-4a2.43,2.43,0,0,0,0-.27c-.08-1.89-.17-3.79-.27-5.69C257.61,95.21,257.45,95.15,257.36,95.08ZM242.63,70.44c0,.07.05.21.09.22a7.47,7.47,0,0,1,1.45.33,3.52,3.52,0,0,0,1.9.22v-.66a8,8,0,0,0-2.64-.91c-.8-.22-1.6-.46-2.4-.66a33.37,33.37,0,0,0-3.9-.91c-.64-.07-1.24-.3-1.89-.32a6,6,0,0,1-1.89-.29c-.59-.22-1.23-.07-1.76-.26-1.33-.49-2.77-.32-4.1-.77-.52-.17-1.07.09-1.65-.23s-1.15-.09-1.75-.27-1.34-.1-2-.27-1.43,0-2.16-.28c-.55-.17-1.17-.06-1.77-.26s-1.16,0-1.77-.26-1.24-.07-1.89-.26-1.35-.1-2-.3-1.25,0-1.92-.24-1.34,0-2-.29c-.42-.17-1,.09-1.41-.13a2.11,2.11,0,0,0-1.27-.14c-.5,0-.92-.28-1.37-.27A15.37,15.37,0,0,1,202.3,63a10.13,10.13,0,0,1-2.18-.25c-.55-.16-1.16-.06-1.76-.26s-1.25-.08-1.9-.26-1.43-.06-2.16-.27-1.43-.06-2.17-.27-1.51,0-2.3-.26-1.52-.11-2.29-.28-1.79-.05-2.7-.26-1.82.06-2.69-.31a53.3,53.3,0,0,1-5.92-.26c-.84,0-1.69,0-2.54,0s-1.59.45-2.43.27a2.25,2.25,0,0,0-1.45.37c.07.89.13,1,.83,1,.21,0,.52.06.63-.06.31-.33.67-.22,1-.2,2.38.12,4.75-.23,7.13.23,1.14.22,2.32,0,3.5.26s2.16,0,3.24.28c.77.21,1.66-.19,2.42.29a32.24,32.24,0,0,1,4.6.53,16.51,16.51,0,0,1,2.18.24,18.49,18.49,0,0,0,3.09.3c.09,0,.2,0,.26,0,.88.58,1.92.14,2.88.48a30.32,30.32,0,0,0,3.07.35c.74.17,1.49.07,2.16.29a7.61,7.61,0,0,0,1.38.22c.5.06,1,.2,1.5.26a20.63,20.63,0,0,1,3,.31,8.76,8.76,0,0,0,1.51.23c.5.06,1,.2,1.49.26a18.71,18.71,0,0,1,2.83.31c.69.19,1.4.07,2,.28a6.22,6.22,0,0,0,1.24.22c.46.07.91.21,1.37.26,1,.11,2.06.18,3.1.27.09,0,.21,0,.25,0,.36.41.83.17,1.24.24s.91.18,1.37.27a6,6,0,0,0,1.22.25c1.39,0,2.69.54,4.06.55.58.59,1.39.1,2.09.49s1.5.05,2.11.37,1.32-.07,1.82.47C241.12,70.1,241.83,70.63,242.63,70.44ZM259.5,81.69l-.94-1.63-1.16.11c.69.81,1,1.66,1.57,2.32,0,.13-.06.31,0,.4a8.73,8.73,0,0,1,1.22,2.84c.43,1.34.83,2.7,1.18,4.07a16.45,16.45,0,0,1,.48,3.26c.06,1.31.34,2.59.33,3.9,0,1.47,0,2.94,0,4.42s-.4,2.94-.3,4.44a6.27,6.27,0,0,1-.21,2.71,8.26,8.26,0,0,0-.05,2c0,.68-.2,1.35-.25,2-.11,1.61-.18,3.23-.27,4.84,0,.09,0,.21,0,.26-.5.58-.16,1.28-.26,1.91s-.21,1.26-.26,1.89c-.11,1.26-.19,2.52-.27,3.78,0,0,0,.1,0,.13-.43.54-.19,1.17-.27,1.76s-.2,1.18-.25,1.77a26.73,26.73,0,0,1-.32,3.36,15.08,15.08,0,0,1-.27,1.89,5.71,5.71,0,0,0-.22,1.91,1.2,1.2,0,0,1,0,.27,22.56,22.56,0,0,0-.75,3.83c-.23,1.06-.32,2.17-.58,3.25a28.71,28.71,0,0,1-1.36,5.19,10.42,10.42,0,0,1-1.46,3,1.21,1.21,0,0,0-.4,1,7.24,7.24,0,0,0-1.73,2.34c.6.3,1,0,1.33-.47s.63-.89.94-1.33a2,2,0,0,0,.5-.39,14.78,14.78,0,0,1,1.17-1.91,8,8,0,0,0,1-2c.17-.36.34-.75.51-1.12s.21-.72.33-1.07a13.11,13.11,0,0,1,1.09-3.29,1.05,1.05,0,0,0,.24-.57,30.53,30.53,0,0,1,.28-4.17c0-.06.1-.12.14-.17l.32.27a12.85,12.85,0,0,0,.33-1.51c.12-1.16.19-2.33.28-3.5,0,0,0-.09,0-.13.6-1.44.41-3,.77-4.49.2-.82.07-1.7.26-2.57a27.5,27.5,0,0,0,.31-3.76c0-.13-.06-.31,0-.4a2.42,2.42,0,0,0,.24-1.76,8.6,8.6,0,0,1,.28-1.77,9.66,9.66,0,0,1,.23-2.44,7.17,7.17,0,0,0,.05-1.86c.05-.64.2-1.26.25-1.9a15.1,15.1,0,0,1,.24-3,11.84,11.84,0,0,0,.05-2.39c0-.82.22-1.62.24-2.44,0-1.33,0-2.67,0-4s-.08-2.59,0-3.88-.41-2.59-.3-3.9a7.52,7.52,0,0,0,0-.81c-.26-.14-.53-.23-.52-.28.06-.46-.24-.83-.26-1.23a22.55,22.55,0,0,0-1-3.91A26.91,26.91,0,0,0,260,82.07C259.92,81.9,259.67,81.81,259.5,81.69Z"/><path class="cls-5" d="M242.09,201c0,1,0,2,0,2.94a30.65,30.65,0,0,1-.3,4.3c-.14.78-.07,1.57-.25,2.3-.37,1.49-.21,3.05-.76,4.51-.13.35,0,.8,0,1.19s-.2.64-.25,1c-.14.89-.24,1.78-.39,2.66s-.28,1.67-.46,2.49c-.25,1.14-.47,2.29-.77,3.42s-.69,2.22-1.07,3.31a18.67,18.67,0,0,1-2.05,4,4,4,0,0,1-2.84,1.52,23.67,23.67,0,0,1-3.77.3c-1.79.07-3.57-.45-5.37-.26-.87-.42-1.84-.08-2.7-.31a11.76,11.76,0,0,0-2.57-.23c-.51,0-.95-.36-1.5-.28a1.49,1.49,0,0,1-1.37-.25s-.17,0-.26,0c-1.08-.09-2.16-.16-3.23-.28a11,11,0,0,1-1.37-.26c-.49-.1-1,.14-1.52-.22-.34-.23-1,.11-1.43-.08a5.28,5.28,0,0,0-1.91-.24c-.46-.06-.91-.2-1.37-.25a6.75,6.75,0,0,1-1.24-.23c-.63-.2-1.33-.09-2-.28a13.16,13.16,0,0,0-2.82-.29c-.52,0-.94-.41-1.5-.3a2.64,2.64,0,0,1-1.5-.22c-.46-.18-1,0-1.51-.25s-1.33-.09-2-.28a20.11,20.11,0,0,0-2.82-.31c-.46,0-.91-.18-1.37-.26s-.89.18-1.23-.26c0-.05-.17,0-.26,0a6.22,6.22,0,0,1-1.91-.24c-.56-.15-1.16-.09-1.76-.25a19,19,0,0,0-2.83-.32c-.46,0-.91-.18-1.36-.26s-.89.18-1.24-.25c0-.05-.17,0-.26,0a6.19,6.19,0,0,1-1.9-.23c-.55-.17-1.21.07-1.76-.3-.88.19-1.7-.28-2.57-.29a7.37,7.37,0,0,1-1.36-.25c-.41-.07-.88.18-1.24-.24-.06-.06-.26,0-.39,0a16.44,16.44,0,0,1-2.82-.29c-1.27-.35-2.59-.32-3.84-.74-.8-.27-1.72-.14-2.55-.33A15.26,15.26,0,0,1,156,225c-.52-.21-1.21.09-1.75-.31-1.25,0-2.4-.63-3.66-.53-2.12-.63-4.32-.92-6.44-1.56-1.12-.34-2.19-.78-3.29-1.14a3.35,3.35,0,0,1-1.49-.88,4.71,4.71,0,0,1-1.12-2.05c-.15-.88-.7-1.65-.63-2.57,0-.14-.2-.29-.21-.44a38.15,38.15,0,0,1-.23-7.24c.14-1.14.12-2.26.23-3.38a10.24,10.24,0,0,0,.27-1.76,2.48,2.48,0,0,1,.25-1.77,11.57,11.57,0,0,1,.3-3.1,12,12,0,0,1,.46-2.88c.19-.59-.1-1.3.31-1.87.13-2.38,1-4.61,1.34-7,.68-1.2.74-2.62,1.32-3.87s1-2.54,1.61-3.75a16.37,16.37,0,0,1,4.26-5.44,18.53,18.53,0,0,1,5.33-3c1.5-.51,3.07-.72,4.55-1.28.93.17,1.79-.28,2.7-.27,1.74,0,3.49-.09,5.22,0,1.35.09,2.7.16,4,.29a10,10,0,0,1,2.42.26c1,.39,2.17-.1,3.15.48.1.06.26,0,.39,0,.64.09,1.26-.11,1.92.23s1.3-.14,1.88.3c.06,0,.18,0,.27,0,1.08.08,2.17.11,3.23.29.68.11,1.38.13,2,.29a20.2,20.2,0,0,1,2,.26,6.91,6.91,0,0,0,1.78.23c.46.06.91.18,1.36.26s.89-.18,1.25.23c0,.05.16,0,.25,0,.94.09,1.9.12,2.83.29.68.13,1.38.14,2,.29s1.42.05,2,.27,1.23.06,1.77.26a10.05,10.05,0,0,0,1.77.25c1.31.21,2.61.4,3.93.57a10.36,10.36,0,0,1,1.76.25,16.12,16.12,0,0,0,1.63.25c1.17.24,2.36.34,3.53.55,1.63.28,3.28.47,4.88.83s3,.68,4.54,1a49.94,49.94,0,0,1,7.09,2,19.45,19.45,0,0,1,5.77,3.22,16.39,16.39,0,0,1,2.86,2.71c1,1.31,2.18,2.58,2.52,4.3.76,1,.86,2.32,1.28,3.49a7.78,7.78,0,0,1,.31,2.27,21,21,0,0,1,.3,3C242,198.93,242.09,200,242.09,201Zm-88.94-13a5.13,5.13,0,0,0,.84,3,6.31,6.31,0,0,0,4.28,3.15,4.37,4.37,0,0,0,2.12.09,5.9,5.9,0,0,0,2-.81,12.31,12.31,0,0,0,2.21-2,5.57,5.57,0,0,0,.86-5.24,8,8,0,0,0-2.15-3,9.06,9.06,0,0,0-2.48-1.13,5.05,5.05,0,0,0-3.71.24,7,7,0,0,0-2.32,1.83A5,5,0,0,0,153.15,188ZM223.1,191c-.07,0-.2,0-.34,0a3.44,3.44,0,0,0-2.61.8l-1.46,1.31a5.18,5.18,0,0,0-1.78,4.22,5,5,0,0,0,1.54,3.64c.41.41.83.81,1.23,1.23a3.6,3.6,0,0,0,2.62,1.12c.35,0,.71,0,1.07,0a4.22,4.22,0,0,0,2.3-.34c1.52-1.3,3.41-2.31,3.59-4.64a2.45,2.45,0,0,0,.16-2.15,4.31,4.31,0,0,0-.77-2c-.43-.47-.83-1-1.26-1.47A5.15,5.15,0,0,0,223.1,191Z"/><path class="cls-5" d="M246.63,49.05c-.34-.65-.9-1.17-.79-1.95a20.84,20.84,0,0,1,.18-2.19c.56-2.26,1.49-4.4,2.1-6.63.43-1.6,1-3.14,1.49-4.74s1.06-3.12,1.59-4.68c1.24-3.68,2.35-7.4,3.73-11,.23-.62.34-1.28.56-1.91a2.41,2.41,0,0,1,1.65-1.75c2.15-.62,1.56-.54,4-.28a12.13,12.13,0,0,1,4.39,1.69,2.35,2.35,0,0,1,1.25,2.12c0,.2.16.39.19.59a2.24,2.24,0,0,1,0,.89c-.38,1.22-.88,2.41-1.2,3.65-.58,2.29-1.53,4.46-2.15,6.72s-1.47,4.4-2.1,6.63c-.33,1.15-.65,2.31-1.06,3.44A23.79,23.79,0,0,1,259.23,43c-.12,1.69-1,3.16-1.36,4.79a4.84,4.84,0,0,1-.72,1.31c-.12.21-.26.42-.37.64a3.72,3.72,0,0,1-.59,1.08,3.8,3.8,0,0,1-1.16.41c-.08,0-.13.12-.28.27,0-.49-.07-.89-.1-1.3-.47-.47-.94-.95-1.42-1.42a5.44,5.44,0,0,0-4.78-1.32A2.74,2.74,0,0,0,246.63,49.05Z"/><path class="cls-5" d="M178.45,40c-.41-1.63-1.95-2.75-4.13-2.73s-3.84,1.17-4.09,2.61c-.67,0-.67,0-1.49-.84-.12-.47,0-1-.27-1.48a4.06,4.06,0,0,1-.32-1.88c0-1.35-.2-2.69-.24-4s0-2.68,0-4a26,26,0,0,0,0-4.14,36.06,36.06,0,0,1-.22-5.39c0-1.78.16-3.59,0-5.35-.26-2.11-.15-4.21-.24-6.32a3.47,3.47,0,0,1,.93-2.54,4.82,4.82,0,0,1,2.05-1.14,13.85,13.85,0,0,1,5-.25,4.6,4.6,0,0,1,2.22.75,3.35,3.35,0,0,1,1.63,2.72c.1,2,.19,4,.26,6.05,0,1,0,2,0,2.94,0,1.63.39,3.21.3,4.85a22.74,22.74,0,0,0,0,4.81c.39,2.56.11,5.11.21,7.66a12.28,12.28,0,0,1,.29,2.84c0,.25.08.57,0,.79a11.4,11.4,0,0,0-.51,2.65C179.55,39.23,178.88,39.41,178.45,40Z"/><path class="cls-6" d="M251.93,54.41l-5.1-.84c.25-.85.44-1.6.69-2.34s.49-1.31.73-2c.06-.18,0-.35.21-.54s.73.14,1-.19c.06-.08.44.19.67.21a4,4,0,0,1,3.15,1.58Z"/><path class="cls-7" d="M176.74,39.18c0,1.16,0,2.27,0,3.38a3.26,3.26,0,0,0,.16.86c.13.48-.2.94-.64.75-.72-.32-1.5,0-2.15-.29a14.33,14.33,0,0,0-2.22-.28c.18-1.31-.42-2.55-.26-3.87.08-.66.14-.78.81-.89.41-.08.81-.22,1.23-.26s.89,0,1.33,0A2.45,2.45,0,0,1,176.74,39.18Z"/><path class="cls-5" d="M349.76,167.65c.85-.05,1.48.54,2.23.76,1.27.37,2.45,1,3.71,1.41a18.26,18.26,0,0,1,2,.89c2.51,1.15,5,2.39,7.46,3.64a28.2,28.2,0,0,1,4.83,3.22,20.38,20.38,0,0,1,5.21,6.8c.34.66.72,1.3,1,2a12.36,12.36,0,0,1,1.31,7.07,13.28,13.28,0,0,1-.89,3.11,30.91,30.91,0,0,1-1.5,3.26c-.52,1-1.13,1.94-1.7,2.91-.42.72-.83,1.44-1.24,2.16q-1.33,2.4-2.68,4.78c-.18.31-.43.58-.65.89-.09-.12-.15-.15-.15-.18.11-2.62-1-4.81-2.37-6.92a32,32,0,0,0-5.33-5.81,43.66,43.66,0,0,0-5.14-4.06c-1.46-1-2.74-2.25-4.43-2.88a68.33,68.33,0,0,0-6.7-4.2c-1.36-.85-2.79-1.64-4.2-2.44a17.3,17.3,0,0,1-3.7-2.2,16.31,16.31,0,0,1,1-1.43c1-1.11,2.12-2.09,3.05-3.28s2.1-2.23,3.12-3.39c1.77-2,3.69-3.91,5.55-5.86A.79.79,0,0,0,349.76,167.65Z"/><path class="cls-8" d="M349.76,167.65a.79.79,0,0,1-.09.23c-1.86,2-3.78,3.84-5.55,5.86-1,1.16-2.17,2.19-3.12,3.39s-2.06,2.17-3.05,3.28a16.31,16.31,0,0,0-1,1.43,7.79,7.79,0,0,1-2.59-1.17c-.64-.4-1.32-.71-2-1.1-1.82-1.07-3.77-1.92-5.56-3.06-.93-.6-2-.92-3-1.5-1.81-1.1-3.78-1.89-5.57-3-1.1-.71-2.4-1.12-3.54-1.77-1.92-1.08-3.88-2.06-5.83-3.07-3.67-1.9-7.37-3.76-11.05-5.63-.41-.2-.83-.37-1.24-.56a6.55,6.55,0,0,0-1.13-.49c-.46-.12-.66-.78-1.25-.56-.27-.53-.93-.4-1.29-.75s-1-.32-1.37-.59a20.83,20.83,0,0,0-3.33-1.33,4.1,4.1,0,0,0-1.51-.56,7.52,7.52,0,0,1-1.53-.37c1.06-.77,2.06-1.53,3.09-2.25.76-.53,1.59-1,2.3-1.54a1.54,1.54,0,0,1,1.06-.38c.62,0,1.25,0,1.87,0a2.08,2.08,0,0,1,1.11.25c.32.17.74-.11,1.13.19s1-.14,1.45.36a12.83,12.83,0,0,1,4.51,1.07c2.09,0,4,1,6,1.4a33.38,33.38,0,0,1,4.67,1.3c1.13.42,2.32.63,3.46,1,1,.32,2,.61,3,.85a23.89,23.89,0,0,1,3,.82c1.9.72,3.87,1.22,5.82,1.76s4.16,1.18,6.25,1.75c1.1.31,2.22.65,3.32,1,1.58.5,3.24.8,4.78,1.38s3.42.73,5,1.58c1-.11,1.75.63,2.71.58C349.7,167.43,349.73,167.57,349.76,167.65Z"/><path class="cls-9" d="M335,200.59c-.16,0-.37,0-.49-.1-1.63-1.29-3.26-2.58-5-3.71-1-.67-1.94-1.57-2.92-2.34-.7-.55-1.45-1.05-2.17-1.57-.88-.65-1.77-1.31-2.66-2-1.72-1.24-3.37-2.58-5.12-3.78-1-.68-1.87-1.52-2.82-2.26-1.22-.94-2.45-1.85-3.68-2.77-.88-.66-1.77-1.31-2.66-2-.72-.54-1.47-1-2.14-1.62s-1.41-1-2-1.54c-.91-.8-1.87-1.52-2.84-2.23-1.51-1.11-2.86-2.43-4.46-3.43a9.88,9.88,0,0,1-1.69-1.41c-1.35-1.31-2.86-2.42-4.28-3.64-1.68-1.45-3.2-3-4.74-4.62a4.45,4.45,0,0,1-1.55-2.56,3,3,0,0,1-.09-1,.47.47,0,0,1,.72-.3,5.5,5.5,0,0,0,2.11.68,4.25,4.25,0,0,1,1.77.62,12,12,0,0,0,2,.76c.68.19,1.26.61,1.93.85a29.62,29.62,0,0,1,3.46,1.66c3.84,1.93,7.68,3.85,11.52,5.8,2.25,1.14,4.54,2.22,6.7,3.51,1.36.81,2.93,1.26,4.13,2.33,1.66.45,2.95,1.67,4.58,2.19.48.58,1.26.64,1.85,1.06a19.34,19.34,0,0,0,1.85,1c.62.34,1.22.71,1.85,1,2.49,1.3,5,2.57,7.5,3.87a2.31,2.31,0,0,1,.5.53,7.8,7.8,0,0,1-.22,2c-.15.51-.17,1.07-.29,1.61s-.13,1.17-.25,1.76a20.69,20.69,0,0,0-.3,3.61C335,195.35,335,198,335,200.59Z"/><path class="cls-5" d="M336.64,184a2.72,2.72,0,0,1,.59.19c1.52.94,3.15,1.7,4.64,2.72,1,.69,2.23,1.09,3.28,1.74,1.38.86,2.85,1.58,4.19,2.52s3,1.79,4.47,2.75c1.14.74,2.21,1.57,3.3,2.38s2.2,1.82,3.31,2.71a18,18,0,0,1,2.31,2.13,18.67,18.67,0,0,1,3.49,5.37A15.94,15.94,0,0,1,367,209a10,10,0,0,1,.18,3,5,5,0,0,1-1.3,3.21,3.7,3.7,0,0,1-3.39,1.15,15.71,15.71,0,0,1-2.54-.63,38.78,38.78,0,0,1-5.29-2.4c-2.52-1.31-4.92-2.82-7.33-4.3-2.72-1.68-5.31-3.53-8-5.23-1.29-.81-2.48-1.77-3.72-2.66,0-1.83,0-3.66,0-5.49a31,31,0,0,1,.22-5.52c.23-1.13,0-2.33.28-3.5a19.17,19.17,0,0,0,.34-2.54S336.56,184,336.64,184Zm8.84,12c0-.08-.05-.21-.1-.22a6.41,6.41,0,0,0-2.5-.32c-.59.05-.94.26-1.05.86-.05.24.12.51.16.77a3.55,3.55,0,0,0,1.08,1.85,7.38,7.38,0,0,0,.86,1.24,42.13,42.13,0,0,0,3.5,3.19c.39.31.78.65,1.2.94a26.29,26.29,0,0,0,4.24,2.36,6.35,6.35,0,0,0,3.26.85,1.18,1.18,0,0,0,1.14-1.14,3.37,3.37,0,0,0-.81-2.88c-.21-.21-.36-.47-.56-.7A27.27,27.27,0,0,0,350,198a40,40,0,0,0-3.85-2C346,196,345.7,196,345.48,196Z"/><path class="cls-10" d="M336.64,184c-.08,0-.21,0-.22.09a19.17,19.17,0,0,1-.34,2.54c-.32,1.17-.05,2.37-.28,3.5a31,31,0,0,0-.22,5.52c-.05,1.83,0,3.66,0,5.49l-.54-.54c0-2.62,0-5.24,0-7.86a20.69,20.69,0,0,1,.3-3.61c.12-.59.13-1.18.25-1.76s.14-1.1.29-1.61a7.8,7.8,0,0,0,.22-2C336.31,183.76,336.62,183.59,336.64,184Z"/><path class="cls-11" d="M51.39,65.89c.43-.1.75.2,1,.39,1.32.87,2.7,1.65,4.07,2.45,1.16.67,2.29,1.38,3.43,2.08.63.4,1.31.76,2,1.09,1.27.63,2.41,1.48,3.65,2.15,1.84,1,3.59,2.13,5.38,3.19.71.43,1.45.81,2.16,1.24,1.54.93,3,2,4.6,2.8,1.07.57,2.09,1.22,3.12,1.84,1.75,1.06,3.46,2.2,5.19,3.3,1,.61,1.92,1.19,2.87,1.8s1.68,1.12,2.51,1.71l5,3.54c.48.34,1,.62,1.45,1,1,.85,2,1.73,2.92,2.65.54.52,1.22.85,1.62,1.57.56,1,1.31,1.87,2,2.81a.84.84,0,0,1,.14.47,12.46,12.46,0,0,0,.43,2.5.41.41,0,0,1,0,.19c-.57,1.45-.77,3-1.77,4.36a6.82,6.82,0,0,1-3.64,2.39,8.86,8.86,0,0,0-1.27.47,8.32,8.32,0,0,1-2.57.61,13.31,13.31,0,0,0-1.76.25c-.54.1-1.16-.26-1.63.27,0,0-.09,0-.13,0-1.17.09-2.34.21-3.51.26a33.44,33.44,0,0,1-3.61,0c-.55-.05-1.12-.11-1.68-.21a11.22,11.22,0,0,0-2,0H79.42c-.67,0-1.34,0-2,0-1-.06-2-.21-3-.25a15.56,15.56,0,0,1-3.06-.06,22,22,0,0,0-3.52-.22c-.55,0-1.08-.21-1.63-.25a7.06,7.06,0,0,1-1.6,0,11.06,11.06,0,0,0-3-.25c-.68-.06-1.36-.17-2-.26s-1.4.2-2-.26a.45.45,0,0,0-.26,0c-1.5.19-2.95-.39-4.45-.27-.64,0-1.21-.38-1.9-.28a2.38,2.38,0,0,1-1.76-.25s-.09,0-.13,0c-1.39-.09-2.78-.16-4.17-.28-.64,0-1.27-.18-1.9-.25s-1.23.16-1.77-.27c0,0-.17,0-.26,0-1.44-.09-2.87-.17-4.31-.28a12.54,12.54,0,0,1-1.36-.26,32.07,32.07,0,0,1,1-3c.5-1.4,1-2.78,1.64-4.13.67-1.51,1.05-3.13,1.86-4.58a51,51,0,0,1,2.77-7.68c.82-2,1.51-4,2.27-6,.92-2.38,1.72-4.82,2.62-7.21.1-.26-.18-.78.38-.83.09-.07.23-.12.26-.21.54-1.49,1.11-3,1.6-4.48a5.15,5.15,0,0,0,.55-2A18.05,18.05,0,0,1,51.39,65.89Z"/><path class="cls-5" d="M47.91,75.8c-.56,0-.28.57-.38.83-.9,2.39-1.7,4.83-2.62,7.21-.76,2-1.45,4-2.27,6a51,51,0,0,0-2.77,7.68c-.81,1.45-1.19,3.07-1.86,4.58-.6,1.35-1.14,2.73-1.64,4.13a32.07,32.07,0,0,0-1,3,3.88,3.88,0,0,1-1.5-.25c-.44-.13-.9,0-1.38-.24a4.47,4.47,0,0,0-1.48-.26c-1.23-.13-2.4-.55-3.65-.64a9.5,9.5,0,0,1-2.57-.54c-.79-.29-1.61-.45-2.4-.67-1.11-.32-2.28-.5-3.38-.88-1.25-.44-2.49-.89-3.7-1.42-1.49-.66-2.86-1.52-4.28-2.3-.46-.25-.63-.88-1.25-.84-.7-1.06-2.14-1.38-2.63-2.64-1.25-1-1.66-2.6-2.36-4a3.53,3.53,0,0,1-.22-.72,27.94,27.94,0,0,1-.6-3.24,14.3,14.3,0,0,1-.15-4.32,21.24,21.24,0,0,1,.68-5,7.35,7.35,0,0,0,.32-1.74,11.13,11.13,0,0,1,.53-2.06c.29-.95.5-1.93.79-2.88.35-1.2,1-2.29,1.33-3.47a30.33,30.33,0,0,1,2.75-5.42,18.38,18.38,0,0,1,3.22-4.56c.27-.26.4-.67.68-.92.64-.56,1.39-1,2-1.6A9.69,9.69,0,0,1,19.15,57a6,6,0,0,1,1.28-.47,14.66,14.66,0,0,1,2.28-.29,40.76,40.76,0,0,1,4.69,0,21.19,21.19,0,0,1,4,.67c1.31.38,2.65.67,3.94,1.17s2.36,1,3.54,1.46a20.19,20.19,0,0,0,3.4,1.5,4.07,4.07,0,0,1,.88.45l6.62,3.41c.55.29,1.08.63,1.62,1a18.05,18.05,0,0,0-1.07,3.21c-.09.07-.23.12-.26.21-.55,1.49-1.11,3-1.6,4.47A4.91,4.91,0,0,0,47.91,75.8ZM26.62,90.27a9.6,9.6,0,0,0,3.15-.48,9.52,9.52,0,0,0,4.07-2.45c1.49-1.39,1.89-3.22,2.28-5.08,0-.13.06-.32,0-.39-.4-.41-.2-.91-.26-1.37,0-.24-.12-.48-.17-.73a8.23,8.23,0,0,0-1.16-2.45,9.24,9.24,0,0,0-3.77-3.38,12.55,12.55,0,0,0-5.18-1.34c-.4,0-.82.24-1.23.24a7.43,7.43,0,0,0-3.56,1.09,4.94,4.94,0,0,0-2.65,3.38c-.54.4,0,1.06-.42,1.58a3.88,3.88,0,0,0-.64,1.47,6.94,6.94,0,0,0,0,3.39,8.54,8.54,0,0,0,3.51,4.61A10.1,10.1,0,0,0,26.62,90.27Z"/><path class="cls-12" d="M13.52,58.66c-1.08,1.71-2.48,2.88-3.41,4.43s-2,3-2.76,4.61-1.41,3.16-2.07,4.76-1.09,3.39-1.64,5.08S3,81,2.49,82.83c-.14-.82-.28-1.53-.38-2.24,0-.35,0-.72,0-1.07a14.09,14.09,0,0,1,.74-4.64c.24-.89.58-1.73.88-2.59s.68-1.59.94-2.41c.36-1.1.87-2.14,1.22-3.25A15.8,15.8,0,0,1,7,64.3,11.9,11.9,0,0,1,8.3,62a10.51,10.51,0,0,1,1.9-1.8,13.25,13.25,0,0,1,2.36-1.43A3.85,3.85,0,0,1,13.52,58.66Z"/><path class="cls-13" d="M154.51,146.49c-.53-.19-.9-.75-1.36-.89-1.23-.39-1.78-1.5-2.69-2.22a2.1,2.1,0,0,1-.46-.48c0-.07.16-.27.13-.36a2.76,2.76,0,0,0-.36-.65,12.71,12.71,0,0,1-1.32-1.83c-.35-.67-.92-1.22-1.29-1.87a22.8,22.8,0,0,1-.95-2.14h.73l.19.58c.24-.53.24-.53.68-.32a2.34,2.34,0,0,0,0-.8,7.75,7.75,0,0,1-.54-3.4c0-.11-.16-.23-.25-.34a14.92,14.92,0,0,1,.23-3.39,10.57,10.57,0,0,0,0-2.26c0-.72.18-1.44.25-2.16.11-1.13.18-2.25.27-3.37,0,0,0-.11,0-.13.45-.49.15-1.1.27-1.63a4.34,4.34,0,0,0,.26-1.64c0-.17-.08-.44,0-.52.41-.36.19-.82.26-1.24s.17-.91.26-1.36a6.74,6.74,0,0,0,.26-1.23c0-1.38.59-2.68.55-4.06.37-.54.09-1.23.3-1.75a14.21,14.21,0,0,0,.71-3.17c.28-1.63.57-3.25.9-4.87a8.85,8.85,0,0,0,.23-1.77h.27c.67.47,1.4.2,2,.25l.45-1.65,1.45.29c.87-.29-.12-1.5.93-1.85a1,1,0,0,0,1.15.24,4.65,4.65,0,0,0,.42-.92,4.54,4.54,0,0,0,0-.91c-.73,0-1.41.12-1.84-.42l.33-1.48h1.75c.13-1.2.26-2.31.38-3.4l1.73.27.44-1.62h1.51v1.73a2.08,2.08,0,0,0,1.86.25V86.28c-1.8-.06-1.62-.15-1.61-1.56a1.06,1.06,0,0,1,.09-.33c1-.17,1.89.37,2.87.27.73-.07.74.06.79-.57a2.43,2.43,0,0,1,0-.27c.06-.76.33-.91,1.11-.63a4.42,4.42,0,0,0,.61.13,2.17,2.17,0,0,0,.38-1.8L167,81.05c.66-.41.11-1.07.5-1.55l3.39.41c-.07.6-.16,1.2-.21,1.79a6.08,6.08,0,0,1-.17,1.94,6.64,6.64,0,0,0-.25,1.84,17.12,17.12,0,0,0,2-.13V83.82c.63.06,1.22-.12,1.78.2l.38-1.78-2-.41c.54-.38.08-1,.38-1.5h1.7c.09-1.45.09-1.45,1.55-1.59.41,0,.69-.26.64-.64-.13-1,.44-1.84.27-2.84a12.6,12.6,0,0,0,1.86.25c1.83,0,1.65.12,1.63,1.69,0,.07-.09.14-.14.21h-1.6a2.32,2.32,0,0,0-.39,1.71c.08.6-.56,1.11-.15,1.76a6.79,6.79,0,0,1,.9,0,4.2,4.2,0,0,1,.71.27l.47-1.94c.3.07.52.1.72.17.76.27,1.13.09,1.08-.65-.07-.93.42-1.75.29-2.68a7.8,7.8,0,0,1,1.3,0c.26,0,.72,0,.37.65-.25.45,0,1.15-.1,1.7s-.37.85-.17,1.3l1.81.32c-.1-1.07.45-2,.29-3.11,0-.2.29-.45.35-.54l3.3.49.65-3.78,1.2.27c.41.09.89-.21,1.25.21.3-.48.62.31,1-.11.1-.49.23-1.1.36-1.7h1.69a6.51,6.51,0,0,1,.12-.73c.3-.86.3-.85-.33-1.41a5.35,5.35,0,0,1,1.9.25c.57.15,1.22-.21,1.76.28,0,0,.17,0,.26,0a7.14,7.14,0,0,1,2,.23c.58.2,1.25.11,1.89.27a24.31,24.31,0,0,0,3.09.31c.46,0,.91.18,1.36.26s.89-.2,1.23.26c0,0,.17,0,.26,0,1,.09,2.07.16,3.1.28.46,0,.9.19,1.36.25a3.12,3.12,0,0,1,1.25.24c.34.18.87,0,1.31,0,.12,0,.23.16.35.25H216a2.28,2.28,0,0,0-.34,1.79l1.41.3c.67-.25.28-.88.49-1.26.89.24-.25,1,.28,1.24l.52-.46c.07.13.13.28.21.4s.12.06.19.09l.17-1,.23,0c-.08,1-.17,2-.26,3l1.85.44a30.63,30.63,0,0,0-.59,3.66,7.9,7.9,0,0,1,1.31,0c.25,0,.6,0,.39.64a14.17,14.17,0,0,0-.36,3,6.09,6.09,0,0,0,.91.35,9.34,9.34,0,0,0,1,.12c-.53.61-.1,1.31-.33,1.83a3.17,3.17,0,0,0-.19,1.8h1.83V87h.82c1.3,0,1.3,0,1.32-1.32a.69.69,0,0,1,.09-.25,2.11,2.11,0,0,1,1.81.42c0,.19-.08.4-.15.6-.27.76-.09,1,.68,1.1s1.77.2,2.65.3a6.59,6.59,0,0,1,0,1.27c0,.26,0,.73-.65.36-.44-.25-1.15,0-1.7-.09s-.85-.38-1.3-.18c-.13.6-.24,1.16-.36,1.7.71.13,1.33.27,2,.37a4.33,4.33,0,0,1,1.27.17c.53.27.21.87.28,1.33s.25.67.65.64c1.15-.09,2.23.47,3.37.28.13,0,.33-.06.39,0,.4.46,1,.09,1.36.28a3.75,3.75,0,0,0,1.51.25,1.71,1.71,0,0,1,.86.18.62.62,0,0,0,.95-.62c-.1-1,.38-1.84.32-2.74a7.75,7.75,0,0,1,3.44.35,6.65,6.65,0,0,1,0,1.18c-.05.25,0,.76-.64.37-.27-.18-.76,0-1.13,0a2,2,0,0,0-.28,1.76l3.42.42c-.07.61.12,1.2-.21,1.75.44.2.9,0,1.39.24s1,.07,1.56.08a.17.17,0,0,1,.11.06c.42.42.48-.1.6-.27s0-.35,0-.53c.06-.79.48-1.15,1.2-.81a2.56,2.56,0,0,0,1.13.2c.47,0,1,0,1.46,0-.21,1.33-.39,2.53-.57,3.75h1.18c.58.05.9.46.6,1s-.08.94-.18,1.4-.2.86-.29,1.31a5,5,0,0,1,2.7.86v1.61c0,.58,0,1.16,0,1.73s-.21,1.09-.25,1.63a27.7,27.7,0,0,1-.23,3.51c-.24,1.12-.1,2.32-.28,3.49-.23,1.55-.21,3.13-.3,4.69,0,.09,0,.22,0,.27-.44.49-.19,1.08-.26,1.63s-.22,1.08-.26,1.62a8.86,8.86,0,0,1-.24,2.17,5.86,5.86,0,0,0,0,1.73c0,.56-.45,1-.26,1.63s-.26,1.07-.28,1.62a5.71,5.71,0,0,1-.22,1.91,9.67,9.67,0,0,0-.26,1.89c-.16,1.17-.41,2.34-.54,3.51a30.91,30.91,0,0,1-.62,3.24c-.13.58-.15,1.17-.33,1.73-.26.84-.11,1.05.77,1.1h.4a3.4,3.4,0,0,1-.38,1.57,10.1,10.1,0,0,1-.56,1.37,24.39,24.39,0,0,1-2.23,3.89,24,24,0,0,1-1.91,2.13c-.36.36-.67.86-1.32.68-.66.62-1.68.85-2,1.87-.47,0-1-.07-1.28.44-.07.09-.32.07-.48.1-.46.1-.92-.13-1.41.17a13,13,0,0,1-3.82,1.43,10.71,10.71,0,0,1-2.46.55c-.86,0-1.68.31-2.56.28-2-.07-4,0-6,0s-3.93-.36-5.91-.25c-.13,0-.32.06-.39,0-.54-.49-1.19-.15-1.78-.26a6.11,6.11,0,0,0-1.76-.28,16.83,16.83,0,0,1-1.74,0c0-.08-.06-.22-.09-.22l-4.2-.32c-1.24-.09-2.49-.17-3.73-.28a1.84,1.84,0,0,1-.55-.26c0-.07-.05-.21-.09-.21-1.22-.12-2.44-.22-3.66-.32a7.87,7.87,0,0,0-1.19,0,1.56,1.56,0,0,1-.95-.28c0-.08-.06-.21-.1-.22-.39,0-.79,0-1.18-.06s-.72-.21-1.09-.25c-1-.11-2.06-.18-3.09-.27-.09,0-.22,0-.26,0-.54-.48-1.24-.05-1.75-.29a4.84,4.84,0,0,0-1.91-.24,7.5,7.5,0,0,1-1.06,0,8.47,8.47,0,0,1-1.08-.26c0-.07-.05-.21-.09-.21-1-.12-2.08-.22-3.12-.32h-.54c0-.08-.05-.21-.09-.22-1.1-.11-2.19-.23-3.29-.31-.48,0-1,0-1.44,0,0-.4-.33-.22-.54-.27s-.13-.24-.21-.25a6.2,6.2,0,0,1-1.06,0,13.26,13.26,0,0,0-3.91-.52c-.12,0-.31,0-.36-.07-.35-.5-.59.07-.89.07h-.26v-.48l1-.11v-1c-.68,0-1.35.12-1.76-.38l.28-1.81c-1.08.2-2-.37-2.92-.24-.37.05-.64-.23-.64-.65V146.8l-1.61-.09V145l-1.65-.47.27-1.75c-1.24.19-2.42-.56-3.72-.16v1.54l-1.87-.13a6,6,0,0,1-.27,1.05c-.18.4.43.72,0,1.13l1,.16,0,.11-1,.16c.43.16.88.16,1.27.31.54.2.14.8.36,1.16,1,.08,1.28.21,1.51.73-.53.4-1-.17-1.61-.16.14,1.2,1.14.59,1.68,1l-.31.66-.81-.26c-.07-.09-.12-.24-.2-.26a5.91,5.91,0,0,1-1.57-.35,26.27,26.27,0,0,0-3.58-1.54c-.07-.09-.12-.22-.21-.26C156.16,147.2,155.33,146.85,154.51,146.49Zm86.55-21.68c-1.07.11-1.94-.42-2.92-.3-.35,0-.62-.24-.6-.68a9.62,9.62,0,0,1,.23-2.44c.18-.64.07-1.34.27-2s0-1.43.27-2.16,0-1.51.25-2.31-.05-1.54.32-2.28c-.13-1.67.39-3.29.29-5a5,5,0,0,1,.22-2.71c.1-.18,0-.49-.1-.74a4.15,4.15,0,0,1-.14-.61,12.4,12.4,0,0,0-.23-2.17,9.61,9.61,0,0,0-1.39-3.71,7.15,7.15,0,0,0-4.64-2.88c-.56-.11-1.22.11-1.69-.12s-1,.14-1.57.17a4.1,4.1,0,0,0-2.37,1,11.66,11.66,0,0,0-3.6,5.19,8.44,8.44,0,0,0-.56,1.77c-.1,1-.65,1.92-.67,2.94-.44.4.15,1.07-.38,1.45-.33,1.61-.6,3.24-.84,4.87a15,15,0,0,1-.32,2.54c-.21.62-.06,1.23-.26,1.77a6,6,0,0,0-.23,1.91c0,.13,0,.28,0,.4-.45,1-.21,2.1-.6,3.06-1.32.49-2.62-.52-3.95-.08v.58a1.22,1.22,0,0,1,0,.27c-.23.8-.21.82.53.94.46.07.91.19,1.37.25A3.68,3.68,0,0,1,219,124a3.67,3.67,0,0,0,1.45,0c.09,0,.21,0,.27,0,.54.43,1.21.1,1.75.3a5.44,5.44,0,0,0,1.91.23c.13,0,.33,0,.39,0,.37.37.82.21,1.24.27s.9.19,1.36.25.94-.06,1.28.13a2.39,2.39,0,0,0,1.28.13,10.22,10.22,0,0,1,1.23.26c1.41.14,2.81.28,4.2.54a11.12,11.12,0,0,1,1.77.26c.54.19,1.16,0,1.77.25s1.23,0,1.84.22C241.33,126.25,240.88,125.53,241.06,124.81ZM184,117.24a10,10,0,0,1,.25-2.4c.24-.65,0-1.42.26-2.16s.07-1.52.28-2.29.07-1.34.26-2a18.47,18.47,0,0,0,.27-2.16,36.22,36.22,0,0,0,.3-4.43c0-1.2,0-2.41,0-3.61,0-.31.23-.68.12-.9-.26-.48-.05-1-.13-1.42a9.69,9.69,0,0,1-.26-1.49,6.37,6.37,0,0,0-.86-2.86,7.77,7.77,0,0,0-2.05-2.34,5,5,0,0,0-3.33-1.31c-.18,0-.4.08-.53,0-.7-.43-1.34-.17-2.07,0-2.38.52-3,1-4.87,3.4a11.05,11.05,0,0,0-1.79,3.94,36.47,36.47,0,0,0-1.16,4.88,6.91,6.91,0,0,1-.29,1.87c-.25.5-.08.95-.21,1.39a3.76,3.76,0,0,0-.27,1.37c.06.77-.44,1.5-.26,2.29-.45.44-.1,1-.29,1.49a3.56,3.56,0,0,0-.24,1.5c0,.18.07.44,0,.52-.45.41-.17.92-.25,1.38a8.43,8.43,0,0,0-.25,1.49,2.71,2.71,0,0,1-.46,1.61c-.52-.1-1.06-.24-1.6-.31s-1.14-.08-1.83-.13a7.5,7.5,0,0,0-.4,1.24.61.61,0,0,0,.66.75,9.33,9.33,0,0,1,1.9.25c1,.21,2.09.1,3.09.33.73.17,1.49.07,2.15.28a3.22,3.22,0,0,0,1.38.2c.55-.07,1,.28,1.49.29a6,6,0,0,1,1.78.23c.54.18,1.16,0,1.76.27s1.32,0,2,.25a15.1,15.1,0,0,0,2.15.29,24.31,24.31,0,0,0,3.09.3,2,2,0,0,1,.47.15c.72.29,1.56-.11,2.25.38.06,0,.18,0,.27,0,.49,0,.66-.25.68-.88,0-.92-.1-1.28-.58-1.24A13.14,13.14,0,0,1,184,117.24Zm20.52,29a20.1,20.1,0,0,0,3.21-.37,19.22,19.22,0,0,0,3.31-1,16.33,16.33,0,0,0,4.4-2.62,9.41,9.41,0,0,0,1.63-2.13c.52-.85.52-1.84.95-2.69a.73.73,0,0,0,0-.5,1.63,1.63,0,0,0-1.64-1.15c-1.2,0-2.41,0-3.61,0s-2.45-.24-3.64.25c-.15.06-.43.09-.52,0-.33-.35-.72-.24-1.11-.26-2.19-.12-4.39.24-6.58-.24a24.3,24.3,0,0,0-3.09-.29.72.72,0,0,1-.26,0,33.72,33.72,0,0,0-5-1.27c-2.08-.56-4.16-1.12-6.2-1.83a8.77,8.77,0,0,0-3.76-.62,1.15,1.15,0,0,0-1,1,9.3,9.3,0,0,0,.41,3.31,10.9,10.9,0,0,0,3,4.52,16.17,16.17,0,0,0,2.22,1.71,18.91,18.91,0,0,0,4.28,2.27,19.76,19.76,0,0,0,3.94,1.19c.72.1,1.44.37,2.19.5a16.54,16.54,0,0,0,2.44.25c.72,0,1.48-.23,2.17.25a.44.44,0,0,0,.39,0C203.14,146,203.83,146.35,204.47,146.28Zm-2.26-25.82a15.45,15.45,0,0,1,3.32.38c1,.33,2,0,2.89.45.58.27,1-.13,1-.8,0-.34,0-.69,0-1.14.59.6,1.19.26,1.73.37l1.77.36v1.74h1.8c-.16-.77.61-.34.9-.66l-.39-.11-.4-.06v-.81c1.33.53,2.63.27,4.09.37l-.51-1.43H217v-.72a2.05,2.05,0,0,0,1.75.46l.31-.68-1-.24,1-.16c-.09-.24-.27-.55-.22-.59.35-.28.24-.64.25-1s0-.69,0-1.33a5.25,5.25,0,0,1,.52.89,3.75,3.75,0,0,1,.07.81c.21-.21.42-.32.45-.47.14-.65-.43-1.21-.27-1.89,0-.1-.38-.3-.5-.39.2-.44.52-.83.43-1-.3-.52-.09-1-.16-1.54,0,0,.11-.08.16-.12l.21.48a6.11,6.11,0,0,0-.09-1.37,2.6,2.6,0,0,1,.21-1.51c.21-.36.07-.92.08-1.44H221l-1.09-1-1.35-.18c-.09.68-.23,1.39-.27,2.11a2,2,0,0,1-.44,1.46c-.52-.42-1.1-.12-1.73-.25v1.67h-1.79a5.81,5.81,0,0,0-.32,1.38,6.49,6.49,0,0,1-.39,2l-1.82-.24c-.55-.08-1.09-.19-1.63-.27s-1.16-.13-1.76-.2c-.17.47,0,1-.27,1.49s0,1,0,1.61l1.56.45,0,.17h-1.84v.72l-1.08.12v.74c-.53,0-.8-.25-.75-.74a9.52,9.52,0,0,1,.23-1.06,2,2,0,0,0-1.68-.31,4.88,4.88,0,0,0-.42.91,5.21,5.21,0,0,0,0,1c-.64-.53-1.24-.25-1.85-.35Z"/><path class="cls-14" d="M256.29,104.18a5,5,0,0,0-2.7-.86c.09-.45.19-.88.29-1.31s-.11-.91.18-1.4,0-.93-.6-1h-1.18c.18-1.22.36-2.42.57-3.75-.51,0-1,0-1.46,0a2.56,2.56,0,0,1-1.13-.2c-.72-.34-1.14,0-1.2.81,0,.18.06.41,0,.53s-.18.69-.6.27a.17.17,0,0,0-.11-.06c-.53,0-1.16.15-1.56-.08s-1,0-1.39-.24c.33-.55.14-1.14.21-1.75l-3.42-.42a2,2,0,0,1,.28-1.76c.37,0,.86-.15,1.13,0,.6.39.59-.12.64-.37a6.65,6.65,0,0,0,0-1.18,7.75,7.75,0,0,0-3.44-.35c.06.9-.42,1.76-.32,2.74a.62.62,0,0,1-.95.62,1.71,1.71,0,0,0-.86-.18,3.75,3.75,0,0,1-1.51-.25c-.4-.19-1,.18-1.36-.28-.06-.07-.26,0-.39,0-1.14.19-2.22-.37-3.37-.28-.4,0-.6-.24-.65-.64s.25-1.06-.28-1.33a4.33,4.33,0,0,0-1.27-.17c-.62-.1-1.24-.24-2-.37.12-.54.23-1.1.36-1.7.45-.2.85.08,1.3.18s1.26-.16,1.7.09c.63.37.6-.1.65-.36a6.59,6.59,0,0,0,0-1.27c-.88-.1-1.77-.23-2.65-.3s-.95-.34-.68-1.1c.07-.2.1-.41.15-.6a2.11,2.11,0,0,0-1.81-.42.69.69,0,0,0-.09.25c0,1.31,0,1.31-1.32,1.32h-.82V88.6h-1.83a3.17,3.17,0,0,1,.19-1.8c.23-.52-.2-1.22.33-1.83a9.34,9.34,0,0,1-1-.12,6.09,6.09,0,0,1-.91-.35,14.17,14.17,0,0,1,.36-3c.21-.63-.14-.59-.39-.64a7.9,7.9,0,0,0-1.31,0,30.63,30.63,0,0,1,.59-3.66l-1.85-.44c.09-1,.18-2,.26-3l-.23,0-.17,1c-.07,0-.16,0-.19-.09s-.14-.27-.21-.4l-.52.46c-.53-.26.61-1-.28-1.24-.21.38.18,1-.49,1.26l-1.41-.3a2.28,2.28,0,0,1,.34-1.79h.69a8.22,8.22,0,0,0,1.09.26c.4,0,.81,0,1.21,0,.63.07,1.26-.14,1.92.22s1.23-.07,1.89.26,1.24,0,1.9.27a12.35,12.35,0,0,0,2.55.32c.45,0,.9.18,1.36.26a6.79,6.79,0,0,1,1.38.21,15.38,15.38,0,0,0,1.88.3c1.25.25,2.56.27,3.79.59,1.77.46,3.58.77,5.36,1.26,1.48.4,2.91.94,4.38,1.4.09,0,.14.17.21.26-.24.74-1.09.79-1.5,1.33-.81-.08-1.65.21-2.47-.23-.11.78-.57,1.52-.21,2.34a3.06,3.06,0,0,1,.61.11c0,.7.68.34,1,.63a.56.56,0,0,0,.81-.09.68.68,0,0,0,.12-.83c-.1-.23-.17-.46-.24-.65.34-.25.59-.55.89-.61a2.1,2.1,0,0,1,1,.15c.35.11.6-.37,1,0,.25.19.75.06,1.13.07v1.7c-.21.4-1,.37-.75,1.16l2.06.41c-.07.78-.07.77-.86.71a5,5,0,0,0-.67,0c-.43,0-.37.24-.2.53.48,0,1,0,1.46,0s.56.36.42.8c-.07.23-.09.48-.16.81l.9,0c-.13-.15-.24-.22-.23-.27a10.67,10.67,0,0,1,.3-1.27c0-.1.32-.22.35-.2.37.43.75,0,1.22,0-.12.19-.21.43-.29.42-.71,0-.92.34-.9,1,0,.09-.15.18-.17.2l.62.78.2-.55.5.25.75-.62-.2,1.07c.34-.31.63.11,1,.07a.45.45,0,0,1,.3.16s0,.17,0,.32c-.41,0-.84.2-1.18-.22-.5.92-.52,1-1.46.65-.44-.15-.34.25-.53.3.89,1.07,2-.18,3,.22a2.18,2.18,0,0,0-.27,1.73c.24,0,.62,0,.64.1.17.72.68.45,1.12.44V89.77l-.58-.11.92-1.08v1.51c.51-.67.92-.71,1.33-.37a8.22,8.22,0,0,1,.79,3.4c0,.12-.17.24-.26.35l-.08-.22-.18.22c-.09.1-.24.2-.26.32a4.68,4.68,0,0,0,0,.75v.54c-.52.14-.33.67-.24.82a3,3,0,0,1,.24,1.59Z"/><path class="cls-14" d="M195.49,69.64c.63.56.63.55.33,1.41a6.51,6.51,0,0,0-.12.73H194c-.13.6-.26,1.21-.36,1.7-.41.42-.73-.37-1,.11-.36-.42-.84-.12-1.25-.21l-1.2-.27-.65,3.78-3.3-.49c-.06.09-.38.34-.35.54.16,1.07-.39,2-.29,3.11l-1.81-.32c-.2-.45.08-.85.17-1.3s-.15-1.25.1-1.7c.35-.63-.11-.6-.37-.65a7.8,7.8,0,0,0-1.3,0c.13.93-.36,1.75-.29,2.68,0,.74-.32.92-1.08.65-.2-.07-.42-.1-.72-.17l-.47,1.94a4.2,4.2,0,0,0-.71-.27,6.79,6.79,0,0,0-.9,0c-.41-.65.23-1.16.15-1.76a2.32,2.32,0,0,1,.39-1.71h1.6c0-.07.14-.14.14-.21,0-1.57.2-1.72-1.63-1.69a12.6,12.6,0,0,1-1.86-.25c.17,1-.4,1.86-.27,2.84.05.38-.23.61-.64.64-1.46.14-1.46.14-1.55,1.59h-1.7c-.3.48.16,1.12-.38,1.5l2,.41L174,84c-.56-.32-1.15-.14-1.78-.2v1.53a17.12,17.12,0,0,1-2,.13,6.64,6.64,0,0,1,.25-1.84,6.08,6.08,0,0,0,.17-1.94c.05-.59.14-1.19.21-1.79l-3.39-.41c-.39.48.16,1.14-.5,1.55l1.91.47a2.17,2.17,0,0,1-.38,1.8,4.42,4.42,0,0,1-.61-.13c-.78-.28-1.05-.13-1.11.63a2.43,2.43,0,0,0,0,.27c-.05.63-.06.5-.79.57-1,.1-1.87-.44-2.87-.27a1.06,1.06,0,0,0-.09.33c0,1.41-.19,1.5,1.61,1.56V88a2.08,2.08,0,0,1-1.86-.25V86h-1.51l-.44,1.62-1.73-.27c-.12,1.09-.25,2.2-.38,3.4H157l-.33,1.48c.43.54,1.11.39,1.84.42a4.54,4.54,0,0,1,0,.91,4.65,4.65,0,0,1-.42.92,1,1,0,0,1-1.15-.24c-1.05.35-.06,1.56-.93,1.85l-1.45-.29-.45,1.65c-.61,0-1.34.22-2-.25a14.17,14.17,0,0,1,.21-1.61c.16-1,.4-2,.63-3.06a4.09,4.09,0,0,1,.5-1.76c.36-.1.38-.68,1-.57.41.08.83-.45.91-.91,0-.2.05-.59.1-.6.69,0,.43-.56.42-.88a2.43,2.43,0,0,1,.28-1.1c.15-.33.27-.68.45-1.12l.19,1c.87-.23,1.67-.61,2.53.06V85.43h-1.46c-.32-.7.19-1.29.15-1.9s.66-.7.61-1.23l1.25-.33.19.25c-.44.33-.69.82-1.21,1.08-.14.07-.22.25-.43.51a8.58,8.58,0,0,1,3,.27c.09-.61,0-1.27.3-1.59.48-.53.29-1.08.3-1.61,0-.18-.29-.4-.49-.52a1.45,1.45,0,0,0-.57-.09c.32-1.58.32-1.58-.29-2.44.66.32,1.2.46,1.65-.06,0-.9,0-.9,1.12-1.35,0,0,.13,0,.19,0,.07.58.12.64.55.57.06-.59-.15-1.22.28-1.75h.75l.1-.66a2.47,2.47,0,0,0,.74,0c.12,0,.2-.25.28-.4.22-.42.41-.78,1-.29.16.15.57,0,.88,0l.09-1.66h1a5.08,5.08,0,0,0-.25-2.2c-.14-.28,0-.51.46-.38,0,.1,0,.23.06.35s.06.26.16.66l.53-2.58a9.36,9.36,0,0,1,.11,2c0,.35.3.7.54.58.53-.25,1,.26,1.52,0,.28-.38.22-1,.74-1.2.62.7-.47.82-.39,1.36.53.14.51.13.82-.22.06-.07.3,0,.4,0l.52-.8c.13.22.35.49.31.53-.43.48-.06.64.29.82l.61-.74v.67a2.19,2.19,0,0,0,1.81.35c0-.87-.1-1-.74-1h-1.07v-.51c.6,0,1.11-.13,1.57.23.1.07.45,0,.48-.06.34-.8.76-.49,1.31-.23.31.16.76,0,1.16,0-.1-.5-.1-.5-.38-.53a1.93,1.93,0,0,1-1.64-.78l-.18.47c-.42-.59-.42-.59-1.19-.3l-.17-.49c-.45.54-1,.19-1.56.32l.6-.83h1.6c.18.62.74.22,1.11.37a3.7,3.7,0,0,0,2.61.4,9.29,9.29,0,0,1,2.45-.23c.57,0,1.15,0,1.72,0a14.59,14.59,0,0,1,1.61.26c.54.09,1.15-.27,1.63.26,0,0,.17,0,.25,0,1.23-.2,2.39.37,3.61.29a6.74,6.74,0,0,1,1.22.24c.39,0,.8,0,1.19,0A4.11,4.11,0,0,1,195.49,69.64Z"/><path class="cls-15" d="M254.41,152.65a1.21,1.21,0,0,1,.4-1,10.42,10.42,0,0,0,1.46-3,28.71,28.71,0,0,0,1.36-5.19c.26-1.08.35-2.19.58-3.25a22.56,22.56,0,0,1,.75-3.83,1.2,1.2,0,0,0,0-.27,5.71,5.71,0,0,1,.22-1.91,15.08,15.08,0,0,0,.27-1.89,26.73,26.73,0,0,0,.32-3.36c.05-.59.18-1.18.25-1.77s-.16-1.22.27-1.76c0,0,0-.09,0-.13.08-1.26.16-2.52.27-3.78.05-.63.17-1.26.26-1.89s-.24-1.33.26-1.91c0,0,0-.17,0-.26.09-1.61.16-3.23.27-4.84.05-.68.21-1.35.25-2a8.26,8.26,0,0,1,.05-2,6.27,6.27,0,0,0,.21-2.71c-.1-1.5.32-2.95.3-4.44s0-2.95,0-4.42c0-1.31-.27-2.59-.33-3.9a16.45,16.45,0,0,0-.48-3.26c-.35-1.37-.75-2.73-1.18-4.07A8.73,8.73,0,0,0,259,82.89c-.06-.09,0-.27,0-.4a.65.65,0,0,1,.53-.8c.17.12.42.21.5.38a26.91,26.91,0,0,1,2.05,4.76,22.55,22.55,0,0,1,1,3.91c0,.4.32.77.26,1.23,0,0,.26.14.52.28a7.52,7.52,0,0,1,0,.81c-.11,1.31.39,2.58.3,3.9s0,2.59,0,3.88,0,2.68,0,4c0,.82-.2,1.62-.24,2.44a11.84,11.84,0,0,1-.05,2.39,15.1,15.1,0,0,0-.24,3c-.05.64-.2,1.26-.25,1.9a7.17,7.17,0,0,1-.05,1.86,9.66,9.66,0,0,0-.23,2.44,8.6,8.6,0,0,0-.28,1.77,2.42,2.42,0,0,1-.24,1.76c-.07.09,0,.27,0,.4a27.5,27.5,0,0,1-.31,3.76c-.19.87-.06,1.75-.26,2.57-.36,1.48-.17,3-.77,4.49,0,0,0,.09,0,.13-.09,1.17-.16,2.34-.28,3.5a12.85,12.85,0,0,1-.33,1.51l-.32-.27c0,.05-.13.11-.14.17a30.53,30.53,0,0,0-.28,4.17,1.05,1.05,0,0,1-.24.57,13.11,13.11,0,0,0-1.09,3.29c-.12.35-.18.73-.33,1.07s-.34.76-.51,1.12a8,8,0,0,1-1,2,14.78,14.78,0,0,0-1.17,1.91,2,2,0,0,1-.5.39Z"/><path class="cls-15" d="M142.46,140.07a4.82,4.82,0,0,1-1.05-1.9,8.27,8.27,0,0,1-.72-1.85,13,13,0,0,0-.55-1.91c0-.12-.11-.25-.09-.36.17-.84-.31-1.61-.28-2.44s0-1.6,0-2.41c-.07-1.34-.19-2.68-.29-4,.31-.28.26.18.54,0a5.44,5.44,0,0,1,0-.63c0-.41-.09-.83.21-1.26a1.53,1.53,0,0,0,0-1.13,2.66,2.66,0,0,1,0-2,2.59,2.59,0,0,0,.09-.63c.08-.54-.1-1.08.23-1.65s0-1,.26-1.63a7.76,7.76,0,0,0,.26-2c.15-1.36.44-2.7.65-4.05a10.89,10.89,0,0,1,.75-3.55c-.2-.8.25-1.52.28-2.3a7.42,7.42,0,0,1,.35-2c.22-.65.22-1.32.41-2s0-1.44.34-2,.13-1.24.41-1.85a8,8,0,0,0,.34-1.73c.19-1.11.55-2.2.73-3.31s.4-1.89.62-2.83c.58-2.42,1.15-4.85,2-7.22a17.65,17.65,0,0,1,1-2.81c.08-.14.08-.43.16-.45.68-.14.61-.82.91-1.22a10.31,10.31,0,0,0,.81-1.41c.54-1,1-2.09,1.62-3.07a20.94,20.94,0,0,1,1.77-2.35,2.82,2.82,0,0,1,.81-.49,1.68,1.68,0,0,1-.44,1.8c-1,1.17-1.42,2.65-2.34,3.85-.66,2-1.9,3.87-2.24,6-.08.52-.4,1-.51,1.52-.25,1.15-.86,2.2-.81,3.42-.65,1-.47,2.19-1,3.22a7.83,7.83,0,0,0-.35,1.72c-.2.81-.38,1.63-.53,2.45s-.35,1.56-.5,2.34a10.19,10.19,0,0,0-.36,2,7.32,7.32,0,0,1-.46,2.21c-.16.53.11,1.14-.33,1.61a21.25,21.25,0,0,1-.77,4.23,18.15,18.15,0,0,0-.31,2.69c0,.32-.18.64-.25,1a2.77,2.77,0,0,1-.2,1c-.28.5-.08,1.14-.29,1.75a15.59,15.59,0,0,0-.33,2.68,14.15,14.15,0,0,1-.45,2.49,1.21,1.21,0,0,0-.07.37,20.25,20.25,0,0,1-.31,2.83c-.19.77-.05,1.59-.28,2.29s0,1.59-.25,2.31a15.33,15.33,0,0,0-.23,4.05,38.11,38.11,0,0,0,0,4.14c.07.91.48,1.78.62,2.68s.79,1.74,1,2.69C143,139.45,143.05,139.92,142.46,140.07Z"/><path class="cls-13" d="M164.42,75.26c-.43.53-.22,1.16-.28,1.75-.43.07-.48,0-.55-.57-.06,0-.14,0-.19,0-1.08.45-1.08.45-1.12,1.35-.45.52-1,.38-1.65.06.61.86.61.86.29,2.44a1.45,1.45,0,0,1,.57.09c.2.12.49.34.49.52,0,.53.18,1.08-.3,1.61-.29.32-.21,1-.3,1.59a8.58,8.58,0,0,0-3-.27c.21-.26.29-.44.43-.51.52-.26.77-.75,1.21-1.08l-.19-.25-1.25.33c0,.53-.66.65-.61,1.23s-.47,1.2-.15,1.9h1.46v1.19c-.86-.67-1.66-.29-2.53-.06l-.19-1c-.18.44-.3.79-.45,1.12a2.43,2.43,0,0,0-.28,1.1c0,.32.27.84-.42.88,0,0-.06.4-.1.6-.08.46-.5,1-.91.91-.58-.11-.6.47-1,.57a6.92,6.92,0,0,0,.24-1.48,3.56,3.56,0,0,1,.32-1.74,4,4,0,0,0,.24-1.77c0-.36-.22-.54-.54-.63-.48-.12-.26-.46-.21-.72.15-.73.78-1.3.75-2.09a40.53,40.53,0,0,1,3.58-6.77,17.17,17.17,0,0,1,7.37-6c.45-.19.83-.58,1.37-.54,0,.29-.09.6.16.88.05.06-.33.42-.41.67a1,1,0,0,0,.13.6,1,1,0,0,1-.41,1.38.83.83,0,0,0-1.39.11s-.25-.07-.39-.11l-.33.69.5.17Z"/><path class="cls-15" d="M242.63,70.44c-.8.19-1.51-.34-2.29-.28-.5-.54-1.21-.16-1.82-.47s-1.53,0-2.11-.37-1.51.1-2.09-.49c-1.37,0-2.67-.57-4.06-.55A6,6,0,0,1,229,68c-.46-.09-.91-.19-1.37-.27s-.88.17-1.24-.24c0,0-.16,0-.25,0-1-.09-2.07-.16-3.1-.27-.46,0-.91-.19-1.37-.26a6.22,6.22,0,0,1-1.24-.22c-.62-.21-1.33-.09-2-.28a18.71,18.71,0,0,0-2.83-.31c-.5-.06-1-.2-1.49-.26a8.76,8.76,0,0,1-1.51-.23,20.63,20.63,0,0,0-3-.31c-.51-.06-1-.2-1.5-.26a7.61,7.61,0,0,1-1.38-.22c-.67-.22-1.42-.12-2.16-.29a30.32,30.32,0,0,1-3.07-.35c-1-.34-2,.1-2.88-.48-.06,0-.17,0-.26,0a18.49,18.49,0,0,1-3.09-.3,16.51,16.51,0,0,0-2.18-.24,32.24,32.24,0,0,0-4.6-.53c-.76-.48-1.65-.08-2.42-.29-1.08-.3-2.2-.06-3.24-.28s-2.36,0-3.5-.26c-2.38-.46-4.75-.11-7.13-.23-.32,0-.68-.13-1,.2-.11.12-.42.06-.63.06-.7,0-.76-.08-.83-1a2.25,2.25,0,0,1,1.45-.37c.84.18,1.6-.3,2.43-.27s1.7,0,2.54,0a53.3,53.3,0,0,0,5.92.26c.87.37,1.82.11,2.69.31s1.83.08,2.7.26,1.59,0,2.29.28,1.58,0,2.3.26,1.49.07,2.17.27,1.48.08,2.16.27,1.31.07,1.9.26,1.21.1,1.76.26a10.13,10.13,0,0,0,2.18.25,15.37,15.37,0,0,0,2.16.28c.45,0,.87.29,1.37.27a2.11,2.11,0,0,1,1.27.14c.37.22,1,0,1.41.13.68.27,1.44,0,2,.29s1.31.06,1.92.24,1.39.11,2,.3,1.33,0,1.89.26,1.23.07,1.77.26,1.22.09,1.77.26c.73.23,1.47.1,2.16.28s1.4.08,2,.27,1.28,0,1.75.27,1.13.06,1.65.23c1.33.45,2.77.28,4.1.77.53.19,1.17,0,1.76.26a6,6,0,0,0,1.89.29c.65,0,1.25.25,1.89.32A33.37,33.37,0,0,1,241,69c.8.2,1.6.44,2.4.66-.06.49-.47.15-.69.29,0,0,0,.11-.06.17l.46.18,0,.16Z"/><path class="cls-16" d="M173.26,152.92h.26v.43c.7.4,1.48-.45,2,.37a9.37,9.37,0,0,1,1.06,0,5.81,5.81,0,0,0,.95.25c.81,0,1.61-.17,2.41-.26.21.05.52-.13.54.27v.45l3.44.5.14-.41h1.78l-.63.5a3.1,3.1,0,0,0,.88.29c1,0,2-.17,3-.26a8.47,8.47,0,0,0,1.08.26,7.5,7.5,0,0,0,1.06,0v.75a16,16,0,0,1,3.41.38c.86.28,1.74.08,2.61.43.66.26,1.52,0,2.27.3.22.09.53,0,.8-.06V157l-.75-.17,0-.18h1a1.56,1.56,0,0,0,.95.28,7.87,7.87,0,0,1,1.19,0c-.21.42-.11.77.24.79s.92-.15,1.17,0c.56.43.6-.19.89-.29a1.26,1.26,0,0,1,.39,0h1.06a1.84,1.84,0,0,0,.55.26c1.24.11,2.49.19,3.73.28l-.49.39c.77.79,1.88.15,2.77.65a1.38,1.38,0,0,0,1.25-.1l-.56-.25,0-.15H215a16.83,16.83,0,0,0,1.74,0,6.11,6.11,0,0,1,1.76.28c.59.11,1.24-.23,1.78.26.07.07.26,0,.39,0,2-.11,3.94.17,5.91.25s4,0,6,0c.88,0,1.7-.28,2.56-.28a10.71,10.71,0,0,0,2.46-.55,13,13,0,0,0,3.82-1.43c.49-.3.95-.07,1.41-.17a4.51,4.51,0,0,1-2.34,1.87,15.31,15.31,0,0,1-3.3,1.06c-1.24.31-2.53.38-3.78.6a30.21,30.21,0,0,1-6.58.16c-1.57-.07-3.16-.06-4.7-.26a21,21,0,0,0-2.84-.21c-.53,0-.94-.38-1.5-.3s-1,.22-1.38-.23c-.1-.11-.43,0-.65,0a14.32,14.32,0,0,1-3.63-.33,11.7,11.7,0,0,1-2.15-.25c-.69-.2-1.39-.08-2-.26s-1.47-.12-2.17-.26-1.39-.12-2-.29-1.22-.08-1.77-.25a5.64,5.64,0,0,0-1.77-.24c-.51,0-.94-.36-1.5-.29a3,3,0,0,1-1.37-.19c-.67-.22-1.43-.12-2.16-.29a26.29,26.29,0,0,0-3.09-.31c-.37,0-.72-.19-1.09-.25s-.8.14-1.1-.27c0,0-.17,0-.26,0a6.79,6.79,0,0,1-1.9-.24c-.57-.15-1.17-.1-1.77-.26-.9-.24-1.91-.09-2.81-.34-1.35-.38-2.76-.31-4.11-.72-.7-.21-1.53-.1-2.28-.32-1.21-.35-2.5-.31-3.7-.75-.59-.21-1.24-.1-1.89-.28-1.69-.47-3.45-.71-5.16-1.13-1.28-.31-2.53-.77-3.79-1.16-.48-.14-1-.28-1.43-.44-.09,0-.14-.17-.21-.26.62-.19,1.13.31,1.72.26.05,0,.08-.1.12-.16l-.49-.21,0-.15h.49l.81.26.22.09c1.07.43,2.19.65,3.28,1,.16.05.46.07.46.11,0,.7.55.38.87.42a5.21,5.21,0,0,0,.79,0c.11.09.2.24.32.26a4.68,4.68,0,0,0,.75,0c0,.07.06.21.09.21a6.42,6.42,0,0,1,1.79.32l.2.27.33-.27.54.27.09.22Z"/><path class="cls-17" d="M253.07,144.89h-.4c-.88,0-1-.26-.77-1.1.18-.56.2-1.15.33-1.73a30.91,30.91,0,0,0,.62-3.24c.13-1.17.38-2.34.54-3.51a9.67,9.67,0,0,1,.26-1.89,5.71,5.71,0,0,0,.22-1.91c0-.55.46-1,.28-1.62s.27-1.07.26-1.63a5.86,5.86,0,0,1,0-1.73,8.86,8.86,0,0,0,.24-2.17c0-.54.18-1.08.26-1.62s-.18-1.14.26-1.63c0,0,0-.18,0-.27.09-1.56.07-3.14.3-4.69.18-1.17,0-2.37.28-3.49a27.7,27.7,0,0,0,.23-3.51c0-.54.21-1.08.25-1.63s0-1.15,0-1.73c.44-.05.26-.39.26-.61,0-2.1,0-4.2,0-6.18l.53-.44h.27c0,.43,0,.87,0,1.3s0,.92,0,1.38h.49c.19,1.36-.31,2.68-.27,4a21.36,21.36,0,0,1,0,4c-.22,1.23,0,2.46-.26,3.64s-.06,2.46-.28,3.64c-.18,1-.05,2-.26,3s-.07,1.65-.26,2.43-.07,1.66-.27,2.43,0,1.78-.28,2.56a11.45,11.45,0,0,0-.22,2.45c-.07.45-.2.9-.26,1.36s.09.88-.27,1.23c0,0,0,.09,0,.13-.09,1.17-.17,2.34-.28,3.5,0,.42-.18.82-.26,1.23s.18.9-.27,1.23a5.84,5.84,0,0,1-.27,2.16c-.27,1.45-.58,2.88-.88,4.32A1.23,1.23,0,0,1,253.07,144.89Z"/><path class="cls-18" d="M256.29,89.72c-.41-.34-.82-.3-1.33.37V88.58L254,89.66l.58.11V91c-.44,0-1,.28-1.12-.44,0-.08-.4-.07-.64-.1a2.18,2.18,0,0,1,.27-1.73c-1-.4-2.09.85-3-.22.19,0,.09-.45.53-.3.94.33,1,.27,1.46-.65.34.42.77.26,1.18.22,0-.15.05-.27,0-.32a.45.45,0,0,0-.3-.16c-.33,0-.62-.38-1-.07l.2-1.07-.75.62-.5-.25-.2.55-.62-.78s.17-.11.17-.2c0-.63.19-1,.9-1,.08,0,.17-.23.29-.42-.47,0-.85.43-1.22,0,0,0-.32.1-.35.2a10.67,10.67,0,0,0-.3,1.27s.1.12.23.27l-.9,0c.07-.33.09-.58.16-.81.14-.44,0-.77-.42-.8s-1,0-1.46,0c-.17-.29-.23-.51.2-.53a5,5,0,0,1,.67,0c.79.06.79.07.86-.71L247,83.25c-.29-.79.54-.76.75-1.16v-1.7c-.38,0-.88.12-1.13-.07-.41-.33-.66.15-1,0a2.1,2.1,0,0,0-1-.15c-.3.06-.55.36-.89.61.07.19.14.42.24.65a.68.68,0,0,1-.12.83.56.56,0,0,1-.81.09c-.28-.29-1,.07-1-.63a3.06,3.06,0,0,0-.61-.11c-.36-.82.1-1.56.21-2.34.82.44,1.66.15,2.47.23.41-.54,1.26-.59,1.5-1.33a4.18,4.18,0,0,1,1,.28,21.51,21.51,0,0,1,4.26,2.9c.45.44,1,.77,1.47,1.23a30.72,30.72,0,0,1,2.92,4C255.33,87.71,256.18,88.58,256.29,89.72Z"/><path class="cls-19" d="M151.83,97.22A8.85,8.85,0,0,1,151.6,99c-.33,1.62-.62,3.24-.9,4.87A14.21,14.21,0,0,1,150,107c-.21.52.07,1.21-.3,1.75,0,1.38-.54,2.68-.55,4.06a6.74,6.74,0,0,1-.26,1.23c-.09.45-.19.91-.26,1.36s.15.88-.26,1.24c-.09.08,0,.35,0,.52a4.34,4.34,0,0,1-.26,1.64c-.12.53.18,1.14-.27,1.63,0,0,0,.08,0,.13-.09,1.12-.16,2.24-.27,3.37-.07.72-.21,1.44-.25,2.16a10.57,10.57,0,0,1,0,2.26,14.92,14.92,0,0,0-.23,3.39v1.47l-1.07.4c.11-.22-.39-.26-.11-.64a1.58,1.58,0,0,0,.08-1.27,5.3,5.3,0,0,1,0-3.13,9,9,0,0,0,0-2.26c-.57-.38,0-.75,0-1.12a7.14,7.14,0,0,1,.25-1.09c-.52-.28,0-.56,0-.85,0-.54.34-1.14.19-1.61a2.91,2.91,0,0,1,.1-1.39,9.45,9.45,0,0,0,.09-1.07c0-.35.41-.71.37-1a2.66,2.66,0,0,1,.3-1.94c-.45-.56-.09-1,.2-1.44a.48.48,0,0,0,.06-.37,1.61,1.61,0,0,1,.24-1.55c.08-.14-.15-.43-.12-.64a1.57,1.57,0,0,1,.28-.8c.22-.29.14-.46-.07-.67,0,0,.19-.22.17-.27-.19-.38.52-.72,0-1.1.18-.38.34-.76.54-1.11s-.49-.41-.06-.76c.2-.16.34-.73.22-.86-.34-.37.27-.46.13-.78s.07-.82.23-1.22a3.2,3.2,0,0,0,.25-1.35c0-.4.7-.74.06-1.13a2,2,0,0,0,.31-1.4c-.1-.39.4-.9.43-1.38s.3-.88.12-1.35c0-.07.12-.21.18-.32.95-.06,1-.1,1.08-1a1.54,1.54,0,0,1,.1-.35l.16,0Z"/><path class="cls-20" d="M164.42,75.26V73.49l-.5-.17.33-.69c.14,0,.36.15.39.11a.83.83,0,0,1,1.39-.11,1,1,0,0,0,.41-1.38,1,1,0,0,1-.13-.6c.08-.25.46-.61.41-.67-.25-.28-.12-.59-.16-.88a23.42,23.42,0,0,1,2.71-.81,20.59,20.59,0,0,1,6.4-.53l-.6.83c.58-.13,1.11.22,1.56-.32l.17.49c.77-.29.77-.29,1.19.3l.18-.47a1.93,1.93,0,0,0,1.64.78c.28,0,.28,0,.38.53-.4,0-.85.13-1.16,0-.55-.26-1-.57-1.31.23,0,.08-.38.13-.48.06-.46-.36-1-.25-1.57-.23v.51l-.61.74c-.35-.18-.72-.34-.29-.82,0,0-.18-.31-.31-.53l-.52.8c-.1,0-.34-.11-.4,0-.31.35-.29.36-.82.22-.08-.54,1-.66.39-1.36-.52.17-.46.82-.74,1.2-.5.28-1-.23-1.52,0-.24.12-.52-.23-.54-.58a9.36,9.36,0,0,0-.11-2l-.53,2.58c-.1-.4-.14-.53-.16-.66s0-.25-.06-.35c-.42-.13-.6.1-.46.38a5.08,5.08,0,0,1,.25,2.2h-1l-.09,1.66c-.31,0-.72.12-.88,0-.55-.49-.74-.13-1,.29-.08.15-.16.36-.28.4a2.47,2.47,0,0,1-.74,0l-.1.66Z"/><path class="cls-21" d="M220.13,163.37c1.69,0,3.37,0,5.06,0a3.87,3.87,0,0,1,2.17.23,1.19,1.19,0,0,0,.91,0c1.41-.5,2.87-.12,4.29-.26.55-.06,1.09.17,1.65-.22.41-.29,1.06.11,1.62-.27.34-.22.95,0,1.44,0a1,1,0,0,1,1.34.8,2,2,0,0,1-.56.26,19.77,19.77,0,0,0-2.69.31c-.91.23-1.83.08-2.7.27-2.33.49-4.67.09-7,.23a22.56,22.56,0,0,0-4.57-.29,8.1,8.1,0,0,0-1.5-.24c.07-.09.14-.26.21-.26C220.25,163.92,220.11,163.6,220.13,163.37Z"/><path class="cls-22" d="M151.83,97.22v-.74l-.16,0a1.54,1.54,0,0,0-.1.35c-.09.86-.13.9-1.08,1,.36-.31.14-.7.12-1.06s.74-.6.26-1.1l-.09-.09a2,2,0,0,0,.41-1.49,2.36,2.36,0,0,1,.47-1.51c.33-.39-.09-.59,0-.86s.21-.56.31-.84c0,0-.09-.08-.09-.09.16-.28.32-.56.49-.83-.48-.29,0-.57,0-.85a3.87,3.87,0,0,1,.37-.91c.24-.75.45-1.51.68-2.26.07-.23.18-.46.26-.69.32.09.56.27.54.63a4,4,0,0,1-.24,1.77,3.56,3.56,0,0,0-.32,1.74,6.92,6.92,0,0,1-.24,1.48,4.09,4.09,0,0,0-.5,1.76c-.23,1-.47,2-.63,3.06a14.17,14.17,0,0,0-.21,1.61Z"/><path class="cls-23" d="M220.13,163.37c0,.23.12.55-.33.54-.07,0-.14.17-.21.26-.27-.09-.54-.19-.81-.27s-.75.13-1.14-.16c-.17-.12-.59.11-.9.16a5.51,5.51,0,0,1-2-.26c-.66-.14-1.39.24-2-.26-.11-.09-.34,0-.52,0-1.25.11-2.38-.46-3.57-.67-.25-.41-.9.21-1.08-.41l.22-.08-.22-.18c.12-.09.32-.27.33-.26.36.37.82.26,1.24.25a2.37,2.37,0,0,1,1.6.36,1.43,1.43,0,0,0,.46.18,1.34,1.34,0,0,0,.4,0,29.19,29.19,0,0,1,5.37.33c1,.07,2,.18,3,.22C220,163.11,220.06,163.28,220.13,163.37Z"/><path class="cls-24" d="M158.53,152.92c.73-.16,1.28.31,1.9.53,1.17.39,2.36.74,3.55,1.07.67.19,1.28.54,2,.68.38.07.76.06,1.13.13l-.59.46,1.64.48,0,.13h-.77a5.16,5.16,0,0,1-2-.32c-.52-.31-1.06,0-1.47-.32a2.76,2.76,0,0,0-1.53-.47,7.34,7.34,0,0,1-1.38-.49,5.74,5.74,0,0,0-1.37-.52c-.75-.07-1.26-.6-1.92-.82Z"/><path class="cls-23" d="M190.4,159.62c1.27-.2,2.48.37,3.74.26.72.46,1.52.19,2.28.28.58.06,1.16.17,1.75.26-.12.09-.23.24-.35.26a7.41,7.41,0,0,0-1.8.16l3.33.38c.61.06,1.13-.46,1.76-.26a4.56,4.56,0,0,0,.64,0c.47-.07.45.23.43.54l-.53.54c-.59.18-1.07-.24-1.62-.28s-1.06.24-1.49-.25c0-.05-.17,0-.26,0-1-.09-2-.13-2.94-.28a20.72,20.72,0,0,1-2.16-.55c-.25-.07-.62-.29-.73-.2-.72.61-1.37,0-2,0C190.63,160,190.63,160,190.4,159.62Z"/><path class="cls-25" d="M162.54,150h-.49l0,.15.49.21c0,.06-.07.16-.12.16-.59.05-1.1-.45-1.72-.26-.81.14-1.38-.49-2.1-.66a9.2,9.2,0,0,1-2.08-1c-.16-.09-.25-.32-.37-.49a1.52,1.52,0,0,0,1.07-.27,26.27,26.27,0,0,1,3.58,1.54,5.91,5.91,0,0,0,1.57.35C162.42,149.74,162.47,149.89,162.54,150Z"/><path class="cls-26" d="M184.51,159.08a4.38,4.38,0,0,1-2.29.26c-1-.7-2.15-.5-3.26-.54-.22,0-.57.19-.61-.25l.26-.54a2,2,0,0,1,2-.2c.59.26,1.11.07,1.68.24l.33.39.09-.09c.45.32,1,.09,1.44.24C184.29,158.65,184.38,158.91,184.51,159.08Z"/><path class="cls-27" d="M190.4,159.62c.23.4.23.4,0,.8a4.68,4.68,0,0,1-1.77-.24c-.5-.21-1.14.2-1.62-.3-.84.17-1.6-.28-2.5-.31v-.49a3,3,0,0,1,2.35-.15,3.7,3.7,0,0,0,.86.15c.39,0,.77,0,1.05.35.09.13.37.16.57.18S190.05,159.62,190.4,159.62Z"/><path class="cls-28" d="M178.61,158l-.26.54a3.39,3.39,0,0,1-1.62-.25c-.42-.23-1,.21-1.47-.28-.06-.06-.25,0-.38,0a1.13,1.13,0,0,1-1.15-.44c-.08-.1-.31-.07-.47-.1l.26-.53a17.06,17.06,0,0,1,3.71.3C177.71,157.28,178.15,157.74,178.61,158Z"/><path class="cls-29" d="M158.53,152.92l-.81.54c-.28,0-.46-.14-.69-.25-.95-.47-1.95-.83-2.87-1.37-.22-.13-.35-.4-.67-.79.62,0,1.09-.14,1.38,0C156.06,151.75,157.48,152,158.53,152.92Z"/><path class="cls-30" d="M241.56,161.76a7.33,7.33,0,0,1,2.13-1c.59-.21,1.1-.52,1.66-.76a2,2,0,0,1,.49-.1l.81.54a20.74,20.74,0,0,1-2.08,1.11,8.32,8.32,0,0,1-1.94.76A1.23,1.23,0,0,0,241.56,161.76Z"/><path class="cls-23" d="M241.56,161.76a1.23,1.23,0,0,1,1.07.53c-.49.56-1.25.48-1.87.78a10.77,10.77,0,0,1-2.15.56,1,1,0,0,0-1.34-.8c.07-.09.14-.25.21-.26a3.42,3.42,0,0,0,1.76-.27c.51-.31,1.16-.15,1.66-.52C241,161.67,241.33,161.76,241.56,161.76Z"/><path class="cls-31" d="M145.94,133.64l1.07-.4v-1.47c.09.11.26.23.25.34a7.75,7.75,0,0,0,.54,3.4,2.34,2.34,0,0,1,0,.8c-.44-.21-.44-.21-.68.32l-.19-.58h-.73c0-.16.2-.36.15-.49-.11-.37-.48-.66-.18-1.15C146.27,134.26,146,133.9,145.94,133.64Z"/><path class="cls-32" d="M167.36,156.4h.77l0-.13-1.64-.48.59-.46a2.94,2.94,0,0,1,1.09.25c1,.25,2.07.4,3.1.6,0,0,.06.15.09.22a9.2,9.2,0,0,0-1.87.42s0,.08,0,.12l-2.14-.41A.42.42,0,0,1,167.36,156.4Z"/><path class="cls-28" d="M242.63,70.44h.47l0-.16-.46-.18c0-.06,0-.14.06-.17.22-.14.63.2.69-.29a8,8,0,0,1,2.64.91v.66a3.52,3.52,0,0,1-1.9-.22,7.47,7.47,0,0,0-1.45-.33S242.66,70.51,242.63,70.44Z"/><path class="cls-33" d="M257.36,98.56h-.27c0-.09,0-.2,0-.25-.26-.28-.53-.55-.8-.82a3,3,0,0,0-.24-1.59c-.09-.15-.28-.68.24-.82.2,0,.51.13.53-.27l.27-.27c.4,0,.23.33.27.54-.44,0-.33.47-.25.57a2,2,0,0,1,.25,1.34C257.37,97.51,257.36,98,257.36,98.56Z"/><path class="cls-34" d="M169.51,156.94s0-.12,0-.12a9.2,9.2,0,0,1,1.87-.42l2.14.41a.55.55,0,0,1,0,.13l-.26.53c-.58,0-1.15,0-1.72,0a10.66,10.66,0,0,1-1.48-.26A3.06,3.06,0,0,1,169.51,156.94Z"/><path class="cls-23" d="M142.46,140.07c.59-.15.55-.62.53-1.07.49.35.36,1,.76,1.46a7.92,7.92,0,0,1,.85,1.48l-.54.8c-.53-.75-1.08-1.51-1.6-2.28C142.4,140.37,142.46,140.2,142.46,140.07Z"/><path class="cls-35" d="M247.72,158.81a20.3,20.3,0,0,1,2.68-2,2.6,2.6,0,0,1,.46-.18c-.08.54,0,1-.53,1.32-.74.39-1.26,1.12-2.08,1.4Z"/><path class="cls-20" d="M183.44,68.3a9.29,9.29,0,0,0-2.45.23,3.7,3.7,0,0,1-2.61-.4c-.37-.15-.93.25-1.11-.37a16.47,16.47,0,0,1,2.11,0,35.18,35.18,0,0,0,4,.3S183.4,68.22,183.44,68.3Z"/><path class="cls-36" d="M144.06,142.74l.54-.8,2,2.47-.81.46Z"/><path class="cls-37" d="M257.36,98.56c0-.52,0-1,0-1.57a2,2,0,0,0-.25-1.34c-.08-.1-.19-.53.25-.57.09.07.25.13.26.2.1,1.9.19,3.8.27,5.69a2.43,2.43,0,0,1,0,.27h-.49c0-.46,0-.92,0-1.38S257.36,99,257.36,98.56Z"/><path class="cls-34" d="M254.41,152.65l.54.54c-.31.44-.61.9-.94,1.33s-.73.77-1.33.47A7.24,7.24,0,0,1,254.41,152.65Z"/><path class="cls-38" d="M157.19,147.83a1.52,1.52,0,0,1-1.07.27,4.28,4.28,0,0,0-1-.52c-.67-.14-.63-.6-.62-1.09.82.36,1.65.71,2.47,1.08C157.07,147.61,157.12,147.74,157.19,147.83Z"/><path class="cls-30" d="M259.5,81.69a.65.65,0,0,0-.53.8c-.6-.66-.88-1.51-1.57-2.32l1.16-.11Z"/><path class="cls-34" d="M201.11,161c-.63-.2-1.15.32-1.76.26l-3.33-.38a7.41,7.41,0,0,1,1.8-.16c.12,0,.23-.17.35-.26l2.85.32S201.08,160.88,201.11,161Z"/><path class="cls-39" d="M247.72,158.81l.53.54a5.22,5.22,0,0,1-1.6,1.07l-.81-.54A5.25,5.25,0,0,1,247.72,158.81Z"/><path class="cls-40" d="M201.65,162l.53-.54h1.88c.11.09.21.24.32.26.34,0,.68,0,1,0a6,6,0,0,1-3,.39s0-.08,0-.12l1.06-.05,0-.32c-.4.34-.91-.23-1.29.37Z"/><path class="cls-41" d="M257.09,94.54l-.27.27-.26-.27V93.47l.18-.22.08.22a4.67,4.67,0,0,0,0,.75C256.85,94.34,257,94.44,257.09,94.54Z"/><path class="cls-21" d="M205.4,161.76c-.34,0-.68,0-1,0-.11,0-.21-.17-.32-.26h1.45s.08.11.11.17Z"/><path class="cls-42" d="M202.18,162c.38-.6.89,0,1.29-.37l0,.32-1.06.05Z"/><path class="cls-40" d="M207.27,162.29H206c.41-.35.87-.22,1.3-.26Z"/><circle class="cls-27" cx="207.41" cy="162.16" r="0.19"/><path class="cls-43" d="M153.15,188a5,5,0,0,1,1.6-3.88,7,7,0,0,1,2.32-1.83,5.05,5.05,0,0,1,3.71-.24,9.06,9.06,0,0,1,2.48,1.13,8,8,0,0,1,2.15,3,5.57,5.57,0,0,1-.86,5.24,12.31,12.31,0,0,1-2.21,2,5.9,5.9,0,0,1-2,.81,4.37,4.37,0,0,1-2.12-.09,6.31,6.31,0,0,1-4.28-3.15A5.13,5.13,0,0,1,153.15,188Zm6.16,4.52a8.35,8.35,0,0,0,1.35,0,3,3,0,0,0,2.32-1.13,5.94,5.94,0,0,0,.93-2.82,12.15,12.15,0,0,0-.31-2.43,3.49,3.49,0,0,0-2.44-2.44c-.84-.12-1.73.24-2.54-.23-1.16.5-2.73.27-3.16,2-.17.74-.64,1.7-.69,2.25-.12,1.27.56,2.35.83,3.53,0,.18.38.3.58.44A4.57,4.57,0,0,0,159.31,192.56Z"/><path class="cls-44" d="M223.1,191a5.15,5.15,0,0,1,4.29,1.76c.43.48.83,1,1.26,1.47a4.31,4.31,0,0,1,.77,2,2.45,2.45,0,0,1-.16,2.15c-.18,2.33-2.07,3.34-3.59,4.64a4.22,4.22,0,0,1-2.3.34c-.36,0-.72,0-1.07,0a3.6,3.6,0,0,1-2.62-1.12c-.4-.42-.82-.82-1.23-1.23a5,5,0,0,1-1.54-3.64,5.18,5.18,0,0,1,1.78-4.22l1.46-1.31a3.44,3.44,0,0,1,2.61-.8C222.9,191,223,191,223.1,191Zm.08,10.69a5,5,0,0,0,3.12-.79,1.19,1.19,0,0,0,.5-.38,5.68,5.68,0,0,0,.73-1.56c.14-.7.59-1.42.34-2.11a18.93,18.93,0,0,0-.72-2.37,2.07,2.07,0,0,0-1-1.08,6.39,6.39,0,0,0-3.54-.75,6,6,0,0,0-1.48.26c-.68.27-1.49.49-1.84,1.24a8.29,8.29,0,0,0-.84,2.86c-.05.56.34,1,.29,1.49,0,.29.22.5.24.69a2.35,2.35,0,0,0,1.68,2A4.5,4.5,0,0,0,223.18,201.64Z"/><path class="cls-45" d="M345.48,196c.22,0,.48-.08.66,0a40,40,0,0,1,3.85,2,27.27,27.27,0,0,1,5.91,4.8c.2.23.35.49.56.7a3.37,3.37,0,0,1,.81,2.88,1.18,1.18,0,0,1-1.14,1.14,6.35,6.35,0,0,1-3.26-.85,26.29,26.29,0,0,1-4.24-2.36c-.42-.29-.81-.63-1.2-.94a42.13,42.13,0,0,1-3.5-3.19,7.38,7.38,0,0,1-.86-1.24c0-.63-.47-1-.66-1.58-.27-.77-.19-.92.5-1.38a1.3,1.3,0,0,1,1.44-.13C344.74,196.1,345.11,196,345.48,196Z"/><path class="cls-46" d="M345.48,196c-.37-.07-.74.06-1.13-.15a1.3,1.3,0,0,0-1.44.13c-.69.46-.77.61-.5,1.38.19.55.7.95.66,1.58a3.55,3.55,0,0,1-1.08-1.85c0-.26-.21-.53-.16-.77.11-.6.46-.81,1.05-.86a6.41,6.41,0,0,1,2.5.32C345.43,195.83,345.45,196,345.48,196Z"/><path class="cls-47" d="M47.91,75.8a4.91,4.91,0,0,1,.55-2c.49-1.5,1-3,1.6-4.47,0-.09.17-.14.26-.21a5.15,5.15,0,0,1-.55,2c-.49,1.51-1.06,3-1.6,4.48C48.14,75.68,48,75.73,47.91,75.8Z"/><path class="cls-48" d="M26.62,90.27a10.1,10.1,0,0,1-6-1.91,8.54,8.54,0,0,1-3.51-4.61,6.94,6.94,0,0,1,0-3.39,3.88,3.88,0,0,1,.64-1.47c.39-.52-.12-1.18.42-1.58a4.94,4.94,0,0,1,2.65-3.38,7.43,7.43,0,0,1,3.56-1.09c.41,0,.83-.27,1.23-.24a12.55,12.55,0,0,1,5.18,1.34,9.24,9.24,0,0,1,3.77,3.38,8.23,8.23,0,0,1,1.16,2.45c0,.25.14.49.17.73.06.46-.14,1,.26,1.37.07.07,0,.26,0,.39-.39,1.86-.79,3.69-2.28,5.08a9.52,9.52,0,0,1-4.07,2.45A9.6,9.6,0,0,1,26.62,90.27Z"/><path class="cls-14" d="M202.21,120.46v-1.84c.61.1,1.21-.18,1.85.35a5.21,5.21,0,0,1,0-1,4.88,4.88,0,0,1,.42-.91,2,2,0,0,1,1.68.31,9.52,9.52,0,0,0-.23,1.06c-.05.49.22.71.75.74v-.74l1.08-.12v-.72h1.84l0-.17-1.56-.45c0-.57-.18-1.2,0-1.61s.1-1,.27-1.49c.6.07,1.18.12,1.76.2s1.08.19,1.63.27l1.82.24a6.49,6.49,0,0,0,.39-2,5.81,5.81,0,0,1,.32-1.38h1.79V109.5c.63.13,1.21-.17,1.73.25a2,2,0,0,0,.44-1.46c0-.72.18-1.43.27-2.11l1.35.18,1.09,1h-.81c0,.52.13,1.08-.08,1.44a2.6,2.6,0,0,0-.21,1.51,6.11,6.11,0,0,1,.09,1.37l-.21-.48s-.16.09-.16.12c.07.51-.14,1,.16,1.54.09.16-.23.55-.43,1,.12.09.52.29.5.39-.16.68.41,1.24.27,1.89,0,.15-.24.26-.45.47a3.75,3.75,0,0,0-.07-.81,5.25,5.25,0,0,0-.52-.89c0,.64,0,1,0,1.33s.1.7-.25,1c-.05,0,.13.35.22.59l-1,.16,1,.24-.31.68a2.05,2.05,0,0,1-1.75-.46v.72h1.46l.51,1.43c-1.46-.1-2.76.16-4.09-.37V121l.4.06.39.11c-.29.32-1.06-.11-.9.66h-1.8v-1.74l-1.77-.36c-.54-.11-1.14.23-1.73-.37,0,.45,0,.8,0,1.14,0,.67-.41,1.07-1,.8-.93-.45-1.92-.12-2.89-.45A15.45,15.45,0,0,0,202.21,120.46Z"/><path class="cls-14" d="M169,151.85a5.21,5.21,0,0,1-.79,0c-.32,0-.84.28-.87-.42,0,0-.3-.06-.46-.11-1.09-.33-2.21-.55-3.28-1l-.22-.09.31-.66c-.54-.36-1.54.25-1.68-1,.59,0,1.08.56,1.61.16-.23-.52-.49-.65-1.51-.73-.22-.36.18-1-.36-1.16-.39-.15-.84-.15-1.27-.31l1-.16,0-.11-1-.16c.41-.41-.2-.73,0-1.13a6,6,0,0,0,.27-1.05l1.87.13v-1.54c1.3-.4,2.48.35,3.72.16l-.27,1.75,1.65.47v1.76l1.61.09v1.44c0,.42.27.7.64.65,1-.13,1.84.44,2.92.24l-.28,1.81c.41.5,1.08.35,1.76.38v1l-1,.11v.48H173l-.54-.27h-.53a6.42,6.42,0,0,0-1.79-.32s-.06-.14-.09-.21-.2-.24-.31-.26A4.82,4.82,0,0,0,169,151.85Z"/><path class="cls-25" d="M200.58,156.67h-1l0,.18.75.17v.11c-.27,0-.58.15-.8.06-.75-.31-1.61,0-2.27-.3-.87-.35-1.75-.15-2.61-.43a16,16,0,0,0-3.41-.38v-.75a4.84,4.84,0,0,1,1.91.24c.51.24,1.21-.19,1.75.29,0,0,.17,0,.26,0,1,.09,2.06.16,3.09.27.37,0,.72.21,1.09.25s.79,0,1.18.06C200.52,156.46,200.55,156.59,200.58,156.67Z"/><path class="cls-49" d="M180,153.72c-.8.09-1.6.22-2.41.26a5.81,5.81,0,0,1-.95-.25,9.37,9.37,0,0,0-1.06,0c-.53-.82-1.31,0-2-.37v-.43c.3,0,.54-.57.89-.07.05.07.24.07.36.07a13.26,13.26,0,0,1,3.91.52,6.2,6.2,0,0,0,1.06,0C179.82,153.48,179.88,153.64,180,153.72Z"/><path class="cls-25" d="M215,158.55h-1.3l0,.15.56.25a1.38,1.38,0,0,1-1.25.1c-.89-.5-2,.14-2.77-.65l.49-.39,4.2.32S215,158.47,215,158.55Z"/><path class="cls-50" d="M185.31,154.53h-1.24l-.14.41-3.44-.5V154c.48,0,1,0,1.44,0,1.1.08,2.19.2,3.29.31C185.26,154.32,185.28,154.45,185.31,154.53Z"/><path class="cls-51" d="M256.29,97.49c.27.27.54.54.8.82,0,0,0,.16,0,.25l-.53.44c0,2,0,4.08,0,6.18,0,.22.18.56-.26.61v-8.3Z"/><path class="cls-25" d="M206.47,157.47h-1.06a1.26,1.26,0,0,0-.39,0c-.29.1-.33.72-.89.29-.25-.19-.77,0-1.17,0s-.45-.37-.24-.79c1.22.1,2.44.2,3.66.32C206.42,157.26,206.44,157.4,206.47,157.47Z"/><path class="cls-52" d="M189.06,155.06c-1,.09-2,.21-3,.26a3.1,3.1,0,0,1-.88-.29l.63-.5c1,.1,2.08.2,3.12.32C189,154.85,189,155,189.06,155.06Z"/><path class="cls-53" d="M256.56,93.47v1.07h-.27a4.68,4.68,0,0,1,0-.75C256.32,93.67,256.47,93.57,256.56,93.47Z"/><path class="cls-54" d="M256.29,94.54h.27l.26.27c0,.4-.33.23-.53.27Z"/><path class="cls-20" d="M175.67,70.44h1.07c.64,0,.73.15.74,1a2.19,2.19,0,0,1-1.81-.35Z"/><path class="cls-55" d="M169,151.85a4.82,4.82,0,0,1,.76,0c.11,0,.21.17.31.26a4.68,4.68,0,0,1-.75,0C169.17,152.09,169.08,151.94,169,151.85Z"/><path class="cls-56" d="M171.92,152.65h.53l-.33.27Z"/><path class="cls-56" d="M173,152.92h.27l-.18.22Z"/><path class="cls-40" d="M207.54,162.29V162l.22.18Z"/><path class="cls-6" d="M159.31,192.56a4.57,4.57,0,0,1-3.13-.81c-.2-.14-.54-.26-.58-.44-.27-1.18-.95-2.26-.83-3.53,0-.55.52-1.51.69-2.25.43-1.77,2-1.54,3.16-2,.81.47,1.7.11,2.54.23a3.49,3.49,0,0,1,2.44,2.44,12.15,12.15,0,0,1,.31,2.43,5.94,5.94,0,0,1-.93,2.82,3,3,0,0,1-2.32,1.13A8.35,8.35,0,0,1,159.31,192.56Z"/><path class="cls-6" d="M223.18,201.64a4.5,4.5,0,0,1-2.47-.5,2.35,2.35,0,0,1-1.68-2c0-.19-.27-.4-.24-.69.05-.52-.34-.93-.29-1.49a8.29,8.29,0,0,1,.84-2.86c.35-.75,1.16-1,1.84-1.24a6,6,0,0,1,1.48-.26,6.39,6.39,0,0,1,3.54.75,2.07,2.07,0,0,1,1,1.08,18.93,18.93,0,0,1,.72,2.37c.25.69-.2,1.41-.34,2.11a5.68,5.68,0,0,1-.73,1.56,1.19,1.19,0,0,1-.5.38A5,5,0,0,1,223.18,201.64Z"/></g></g></svg>